<?xml version="1.0" standalone="no"?>
<!DOCTYPE svg PUBLIC "-//W3C//DTD SVG 1.1//EN" "http://www.w3.org/Graphics/SVG/1.1/DTD/svg11.dtd" >
<svg xmlns="http://www.w3.org/2000/svg" xmlns:xlink="http://www.w3.org/1999/xlink" version="1.1">
<metadata>
Created by FontForge 20170924 at Wed Sep 11 12:53:57 2019
 By www-data
Copyright 2019 CoType Foundry. All Rights Reserved
</metadata>
<defs>
<font id="Ambit-Bold" horiz-adv-x="584" >
  <font-face 
    font-family="Ambit"
    font-weight="700"
    font-stretch="normal"
    units-per-em="1000"
    panose-1="0 0 8 0 0 0 0 0 0 0"
    ascent="750"
    descent="-250"
    x-height="492"
    cap-height="695"
    bbox="-378 -233 1403 895"
    underline-thickness="95"
    underline-position="-157"
    stemh="114"
    stemv="149"
    unicode-range="U+000D-FB03"
  />
<missing-glyph horiz-adv-x="620" 
d="M60 720h500v-829h-500v829zM217 632c-55 0 -85 -35 -85 -90s30 -90 85 -90c44 0 71 28 74 67h-46c-4 -17 -12 -29 -30 -29c-25 0 -35 21 -35 52c0 30 10 52 35 52c18 0 26 -13 30 -30h46c-3 40 -30 68 -74 68zM394 632c-54 0 -87 -39 -87 -90c0 -52 33 -90 87 -90
c53 0 87 38 87 90c0 51 -34 90 -87 90zM394 490c-26 0 -39 22 -39 52s13 52 39 52s39 -22 39 -52s-13 -52 -39 -52zM142 400v-40h49v-138h47v138h50v40h-146zM417 288l64 112h-52l-35 -65l-33 65h-55l64 -112v-66h47v66zM231 46c40 0 67 24 67 61c0 38 -27 62 -67 62h-74
v-178h46v55h28zM463 -9v40h-78v31h60v37h-60v30h75v40h-122v-178h125zM227 131c14 0 24 -9 24 -24c0 -14 -10 -23 -24 -23h-24v47h24z" />
    <glyph glyph-name="f_f" unicode="ff" horiz-adv-x="659" 
d="M500 553c0 -19 7 -39 23 -60h130v-118h-118v-375h-145v375h-160v-375h-145v375h-77v118h71c-12 29 -16 53 -16 78c0 84 78 136 169 136c56 0 100 -17 119 -37l-54 -92c-13 15 -29 24 -53 24c-26 0 -49 -17 -49 -49c0 -19 7 -39 23 -60h166c-12 29 -16 53 -16 78
c0 84 78 136 170 136c82 0 134 -31 157 -81l-89 -63c-11 25 -31 39 -59 39c-26 0 -47 -17 -47 -49z" />
    <glyph glyph-name="f_f_i" unicode="ffi" horiz-adv-x="898" 
d="M767 550c-46 0 -82 34 -82 79s36 79 82 79c45 0 81 -34 81 -79s-36 -79 -81 -79zM549 602c-26 0 -49 -17 -49 -49c0 -19 7 -39 23 -60h116v-118h-104v-375h-145v375h-160v-375h-145v375h-77v118h71c-12 29 -16 53 -16 78c0 84 78 136 169 136c56 0 100 -17 119 -37
l-54 -92c-13 15 -29 24 -53 24c-26 0 -49 -17 -49 -49c0 -19 7 -39 23 -60h166c-12 29 -16 53 -16 78c0 84 78 136 169 136c56 0 100 -17 119 -37l-54 -92c-13 15 -29 24 -53 24zM694 0v493h144v-493h-144z" />
    <glyph glyph-name="f_f_l" unicode="ffl" horiz-adv-x="898" 
d="M549 602c-26 0 -49 -17 -49 -49c0 -19 7 -39 23 -60h116v-118h-104v-375h-145v375h-160v-375h-145v375h-77v118h71c-12 29 -16 53 -16 78c0 84 78 136 169 136c56 0 100 -17 119 -37l-54 -92c-13 15 -29 24 -53 24c-26 0 -49 -17 -49 -49c0 -19 7 -39 23 -60h166
c-12 29 -16 53 -16 78c0 84 78 136 169 136c56 0 100 -17 119 -37l-54 -92c-13 15 -29 24 -53 24zM694 695h145v-695h-145v695z" />
    <glyph glyph-name="fi" unicode="fi" horiz-adv-x="594" 
d="M462 550c-45 0 -81 34 -81 79s36 79 81 79c46 0 82 -34 82 -79s-36 -79 -82 -79zM85 0v375h-77v118h71c-12 29 -16 53 -16 78c0 84 78 136 169 136c56 0 100 -17 119 -37l-54 -92c-13 15 -29 24 -53 24c-26 0 -49 -17 -49 -49c0 -19 7 -39 23 -60h116v-118h-104v-375
h-145zM390 0v493h144v-493h-144z" />
    <glyph glyph-name="fl" unicode="fl" horiz-adv-x="594" 
d="M85 0v375h-77v118h71c-12 29 -16 53 -16 78c0 84 78 136 169 136c56 0 100 -17 119 -37l-54 -92c-13 15 -29 24 -53 24c-26 0 -49 -17 -49 -49c0 -19 7 -39 23 -60h116v-118h-104v-375h-145zM390 0v695h144v-695h-144z" />
    <glyph glyph-name=".notdef" horiz-adv-x="620" 
d="M60 720h500v-829h-500v829zM217 632c-55 0 -85 -35 -85 -90s30 -90 85 -90c44 0 71 28 74 67h-46c-4 -17 -12 -29 -30 -29c-25 0 -35 21 -35 52c0 30 10 52 35 52c18 0 26 -13 30 -30h46c-3 40 -30 68 -74 68zM394 632c-54 0 -87 -39 -87 -90c0 -52 33 -90 87 -90
c53 0 87 38 87 90c0 51 -34 90 -87 90zM394 490c-26 0 -39 22 -39 52s13 52 39 52s39 -22 39 -52s-13 -52 -39 -52zM142 400v-40h49v-138h47v138h50v40h-146zM417 288l64 112h-52l-35 -65l-33 65h-55l64 -112v-66h47v66zM231 46c40 0 67 24 67 61c0 38 -27 62 -67 62h-74
v-178h46v55h28zM463 -9v40h-78v31h60v37h-60v30h75v40h-122v-178h125zM227 131c14 0 24 -9 24 -24c0 -14 -10 -23 -24 -23h-24v47h24z" />
    <glyph glyph-name="CR" unicode="&#xd;" horiz-adv-x="600" 
 />
    <glyph glyph-name="space" unicode=" " horiz-adv-x="230" 
 />
    <glyph glyph-name="A" unicode="A" horiz-adv-x="689" 
d="M534 0l-58 167h-265l-56 -167h-156l248 695h195l248 -695h-156zM250 284h185l-94 271z" />
    <glyph glyph-name="Aacute" unicode="&#xc1;" horiz-adv-x="689" 
d="M521 894l-124 -145h-109l85 145h148zM534 0l-58 167h-265l-56 -167h-156l248 695h195l248 -695h-156zM250 284h185l-94 271z" />
    <glyph glyph-name="Abreve" unicode="&#x102;" horiz-adv-x="689" 
d="M345 746c-92 0 -150 52 -150 145h93c0 -35 22 -56 57 -56s57 21 57 56h93c0 -93 -58 -145 -150 -145zM534 0l-58 167h-265l-56 -167h-156l248 695h195l248 -695h-156zM250 284h185l-94 271z" />
    <glyph glyph-name="Acircumflex" unicode="&#xc2;" horiz-adv-x="689" 
d="M342 815l-55 -66h-108l107 145h118l106 -145h-112zM534 0l-58 167h-265l-56 -167h-156l248 695h195l248 -695h-156zM250 284h185l-94 271z" />
    <glyph glyph-name="Adieresis" unicode="&#xc4;" horiz-adv-x="689" 
d="M241 751c-43 0 -74 32 -74 72c0 41 31 71 74 71c42 0 74 -30 74 -71c0 -40 -32 -72 -74 -72zM449 751c-43 0 -74 32 -74 72c0 41 31 71 74 71c42 0 74 -30 74 -71c0 -40 -32 -72 -74 -72zM534 0l-58 167h-265l-56 -167h-156l248 695h195l248 -695h-156zM250 284h185
l-94 271z" />
    <glyph glyph-name="Agrave" unicode="&#xc0;" horiz-adv-x="689" 
d="M404 749h-109l-124 145h148zM534 0l-58 167h-265l-56 -167h-156l248 695h195l248 -695h-156zM250 284h185l-94 271z" />
    <glyph glyph-name="Amacron" unicode="&#x100;" horiz-adv-x="689" 
d="M498 871v-99h-306v99h306zM534 0l-58 167h-265l-56 -167h-156l248 695h195l248 -695h-156zM250 284h185l-94 271z" />
    <glyph glyph-name="Aogonek" unicode="&#x104;" horiz-adv-x="689" 
d="M675 -106l32 -79c-21 -15 -51 -24 -91 -24c-63 0 -120 24 -120 89c0 42 28 85 86 120h-48l-58 167h-265l-56 -167h-156l248 695h195l248 -695c-53 -37 -77 -62 -77 -89c0 -20 12 -29 30 -29c13 0 23 5 32 12zM250 284h185l-94 271z" />
    <glyph glyph-name="Aring" unicode="&#xc5;" horiz-adv-x="689" 
d="M534 0l-58 167h-265l-56 -167h-156l243 681c-13 17 -20 38 -20 62c0 64 50 109 122 109c71 0 122 -45 122 -109c0 -23 -7 -44 -19 -61l243 -682h-156zM344 781c-24 0 -40 -15 -40 -38c0 -22 16 -38 40 -38s40 16 40 38c0 23 -16 38 -40 38zM250 284h185l-94 271z" />
    <glyph glyph-name="Atilde" unicode="&#xc3;" horiz-adv-x="689" 
d="M296 797c-20 0 -28 -17 -29 -43h-89c0 88 41 137 103 137c59 0 76 -42 105 -42c20 0 28 16 29 42h89c-1 -88 -41 -136 -103 -136c-59 0 -77 42 -105 42zM534 0l-58 167h-265l-56 -167h-156l248 695h195l248 -695h-156zM250 284h185l-94 271z" />
    <glyph glyph-name="AE" unicode="&#xc6;" horiz-adv-x="989" 
d="M597 129h356v-129h-505v173h-232l-71 -173h-154l292 695h665v-129h-351v-151h287v-129h-287v-157zM265 290h183v273h-71z" />
    <glyph glyph-name="B" unicode="B" horiz-adv-x="675" 
d="M73 0v695h291c155 0 237 -64 237 -179c0 -78 -53 -134 -119 -151c94 -22 150 -78 150 -167c0 -128 -88 -198 -244 -198h-315zM222 412h124c70 0 107 31 107 89c0 55 -38 84 -107 84h-124v-173zM222 110h135c77 0 120 33 120 93s-42 95 -123 95h-132v-188z" />
    <glyph glyph-name="C" unicode="C" horiz-adv-x="741" 
d="M381 -14c-200 0 -343 146 -343 361c0 210 147 362 349 362c170 0 282 -100 320 -275l-147 -38c-29 121 -90 177 -179 177c-108 0 -187 -92 -187 -226c0 -133 78 -225 190 -225c89 0 147 43 174 143l154 -25c-44 -170 -158 -254 -331 -254z" />
    <glyph glyph-name="Cacute" unicode="&#x106;" horiz-adv-x="741" 
d="M328 749l85 145h148l-124 -145h-109zM381 -14c-200 0 -343 146 -343 361c0 210 147 362 349 362c170 0 282 -100 320 -275l-147 -38c-29 121 -90 177 -179 177c-108 0 -187 -92 -187 -226c0 -133 78 -225 190 -225c89 0 147 43 174 143l154 -25
c-44 -170 -158 -254 -331 -254z" />
    <glyph glyph-name="Ccaron" unicode="&#x10c;" horiz-adv-x="741" 
d="M551 894l-107 -145h-118l-106 145h112l56 -66l55 66h108zM381 -14c-200 0 -343 146 -343 361c0 210 147 362 349 362c170 0 282 -100 320 -275l-147 -38c-29 121 -90 177 -179 177c-108 0 -187 -92 -187 -226c0 -133 78 -225 190 -225c89 0 147 43 174 143l154 -25
c-44 -170 -158 -254 -331 -254z" />
    <glyph glyph-name="Ccedilla" unicode="&#xc7;" horiz-adv-x="741" 
d="M712 240c-39 -151 -134 -234 -276 -251l-39 -145h-113l37 147c-168 26 -283 163 -283 356c0 210 147 362 349 362c170 0 282 -100 320 -275l-147 -38c-29 121 -90 177 -179 177c-108 0 -187 -92 -187 -226c0 -133 78 -225 190 -225c89 0 147 43 174 143z" />
    <glyph glyph-name="Ccircumflex" unicode="&#x108;" horiz-adv-x="741" 
d="M219 749l107 145h118l106 -145h-112l-56 66l-55 -66h-108zM381 -14c-200 0 -343 146 -343 361c0 210 147 362 349 362c170 0 282 -100 320 -275l-147 -38c-29 121 -90 177 -179 177c-108 0 -187 -92 -187 -226c0 -133 78 -225 190 -225c89 0 147 43 174 143l154 -25
c-44 -170 -158 -254 -331 -254z" />
    <glyph glyph-name="Cdotaccent" unicode="&#x10a;" horiz-adv-x="741" 
d="M385 750c-42 0 -75 30 -75 72s33 73 75 73s75 -31 75 -73s-33 -72 -75 -72zM381 -14c-200 0 -343 146 -343 361c0 210 147 362 349 362c170 0 282 -100 320 -275l-147 -38c-29 121 -90 177 -179 177c-108 0 -187 -92 -187 -226c0 -133 78 -225 190 -225
c89 0 147 43 174 143l154 -25c-44 -170 -158 -254 -331 -254z" />
    <glyph glyph-name="D" unicode="D" horiz-adv-x="745" 
d="M73 0v695h274c185 0 359 -121 359 -348c0 -226 -174 -347 -359 -347h-274zM222 136h109c112 0 220 56 220 212c0 155 -108 211 -220 211h-109v-423z" />
    <glyph glyph-name="Eth" unicode="&#xd0;" horiz-adv-x="745" 
d="M347 695c185 0 359 -121 359 -348c0 -226 -174 -347 -359 -347h-274v302h-59v104h59v289h274zM331 136c112 0 220 56 220 212c0 155 -108 211 -220 211h-109v-153h149v-104h-149v-166h109z" />
    <glyph glyph-name="Dcaron" unicode="&#x10e;" horiz-adv-x="745" 
d="M475 894l-107 -145h-118l-106 145h112l56 -66l55 66h108zM73 0v695h274c185 0 359 -121 359 -348c0 -226 -174 -347 -359 -347h-274zM222 136h109c112 0 220 56 220 212c0 155 -108 211 -220 211h-109v-423z" />
    <glyph glyph-name="Dcroat" unicode="&#x110;" horiz-adv-x="745" 
d="M347 695c185 0 359 -121 359 -348c0 -226 -174 -347 -359 -347h-274v302h-59v104h59v289h274zM331 136c112 0 220 56 220 212c0 155 -108 211 -220 211h-109v-153h149v-104h-149v-166h109z" />
    <glyph glyph-name="E" unicode="E" horiz-adv-x="614" 
d="M73 0v695h500v-129h-351v-151h287v-129h-287v-157h356v-129h-505z" />
    <glyph glyph-name="Eacute" unicode="&#xc9;" horiz-adv-x="614" 
d="M265 749l85 145h148l-124 -145h-109zM73 0v695h500v-129h-351v-151h287v-129h-287v-157h356v-129h-505z" />
    <glyph glyph-name="Ebreve" unicode="&#x114;" horiz-adv-x="614" 
d="M322 746c-92 0 -150 52 -150 145h93c0 -35 22 -56 57 -56s57 21 57 56h93c0 -93 -58 -145 -150 -145zM73 0v695h500v-129h-351v-151h287v-129h-287v-157h356v-129h-505z" />
    <glyph glyph-name="Ecaron" unicode="&#x11a;" horiz-adv-x="614" 
d="M488 894l-107 -145h-118l-106 145h112l56 -66l55 66h108zM73 0v695h500v-129h-351v-151h287v-129h-287v-157h356v-129h-505z" />
    <glyph glyph-name="Ecircumflex" unicode="&#xca;" horiz-adv-x="614" 
d="M156 749l107 145h118l106 -145h-112l-56 66l-55 -66h-108zM73 0v695h500v-129h-351v-151h287v-129h-287v-157h356v-129h-505z" />
    <glyph glyph-name="Edieresis" unicode="&#xcb;" horiz-adv-x="614" 
d="M218 751c-43 0 -74 32 -74 72c0 41 31 71 74 71c42 0 74 -30 74 -71c0 -40 -32 -72 -74 -72zM426 751c-43 0 -74 32 -74 72c0 41 31 71 74 71c42 0 74 -30 74 -71c0 -40 -32 -72 -74 -72zM73 0v695h500v-129h-351v-151h287v-129h-287v-157h356v-129h-505z" />
    <glyph glyph-name="Edotaccent" unicode="&#x116;" horiz-adv-x="614" 
d="M322 750c-42 0 -75 30 -75 72s33 73 75 73s75 -31 75 -73s-33 -72 -75 -72zM73 0v695h500v-129h-351v-151h287v-129h-287v-157h356v-129h-505z" />
    <glyph glyph-name="Egrave" unicode="&#xc8;" horiz-adv-x="614" 
d="M272 749l-124 145h148l85 -145h-109zM73 0v695h500v-129h-351v-151h287v-129h-287v-157h356v-129h-505z" />
    <glyph glyph-name="Emacron" unicode="&#x112;" horiz-adv-x="614" 
d="M169 772v99h306v-99h-306zM73 0v695h500v-129h-351v-151h287v-129h-287v-157h356v-129h-505z" />
    <glyph glyph-name="Eogonek" unicode="&#x118;" horiz-adv-x="614" 
d="M563 -106l32 -79c-21 -15 -51 -24 -91 -24c-63 0 -120 24 -120 89c0 42 28 85 86 120h-397v695h500v-129h-351v-151h287v-129h-287v-157h356v-129c-53 -37 -77 -62 -77 -89c0 -20 12 -29 30 -29c13 0 23 5 32 12z" />
    <glyph glyph-name="F" unicode="F" 
d="M73 0v695h486v-136h-337v-161h275v-136h-275v-262h-149z" />
    <glyph glyph-name="G" unicode="G" horiz-adv-x="805" 
d="M374 -14c-194 0 -336 146 -336 361c0 210 151 362 356 362c168 0 282 -82 316 -228l-151 -39c-22 90 -85 134 -170 134c-112 0 -195 -93 -195 -229c0 -145 91 -230 207 -230c101 0 181 57 193 150h-198v118h342v-385h-135v109c-45 -86 -124 -123 -229 -123z" />
    <glyph glyph-name="Gbreve" unicode="&#x11e;" horiz-adv-x="805" 
d="M391 746c-92 0 -150 52 -150 145h93c0 -35 22 -56 57 -56s57 21 57 56h93c0 -93 -58 -145 -150 -145zM374 -14c-194 0 -336 146 -336 361c0 210 151 362 356 362c168 0 282 -82 316 -228l-151 -39c-22 90 -85 134 -170 134c-112 0 -195 -93 -195 -229
c0 -145 91 -230 207 -230c101 0 181 57 193 150h-198v118h342v-385h-135v109c-45 -86 -124 -123 -229 -123z" />
    <glyph glyph-name="Gcircumflex" unicode="&#x11c;" horiz-adv-x="805" 
d="M225 749l107 145h118l106 -145h-112l-56 66l-55 -66h-108zM374 -14c-194 0 -336 146 -336 361c0 210 151 362 356 362c168 0 282 -82 316 -228l-151 -39c-22 90 -85 134 -170 134c-112 0 -195 -93 -195 -229c0 -145 91 -230 207 -230c101 0 181 57 193 150h-198v118h342
v-385h-135v109c-45 -86 -124 -123 -229 -123z" />
    <glyph glyph-name="uni0122" unicode="&#x122;" horiz-adv-x="805" 
d="M374 -14c-194 0 -336 146 -336 361c0 210 151 362 356 362c168 0 282 -82 316 -228l-151 -39c-22 90 -85 134 -170 134c-112 0 -195 -93 -195 -229c0 -145 91 -230 207 -230c101 0 181 57 193 150h-198v118h342v-385h-135v109c-45 -86 -124 -123 -229 -123zM288 -233
l45 173h124l-62 -173h-107z" />
    <glyph glyph-name="Gdotaccent" unicode="&#x120;" horiz-adv-x="805" 
d="M391 750c-42 0 -75 30 -75 72s33 73 75 73s75 -31 75 -73s-33 -72 -75 -72zM374 -14c-194 0 -336 146 -336 361c0 210 151 362 356 362c168 0 282 -82 316 -228l-151 -39c-22 90 -85 134 -170 134c-112 0 -195 -93 -195 -229c0 -145 91 -230 207 -230
c101 0 181 57 193 150h-198v118h342v-385h-135v109c-45 -86 -124 -123 -229 -123z" />
    <glyph glyph-name="H" unicode="H" horiz-adv-x="753" 
d="M73 0v695h149v-274h309v274h149v-695h-149v285h-309v-285h-149z" />
    <glyph glyph-name="Hbar" unicode="&#x126;" horiz-adv-x="753" 
d="M740 589v-105h-60v-484h-149v263h-309v-263h-149v484h-60v105h60v106h149v-106h309v106h149v-106h60zM531 394v90h-309v-90h309z" />
    <glyph glyph-name="Hcircumflex" unicode="&#x124;" horiz-adv-x="753" 
d="M211 749l107 145h118l106 -145h-112l-56 66l-55 -66h-108zM73 0v695h149v-274h309v274h149v-695h-149v285h-309v-285h-149z" />
    <glyph glyph-name="I" unicode="I" horiz-adv-x="294" 
d="M73 0v695h149v-695h-149z" />
    <glyph glyph-name="IJ" unicode="&#x132;" horiz-adv-x="704" 
d="M63 332v363h149v-363h-149zM352 -14c-193 0 -287 100 -287 235c0 14 1 25 3 36h144v-19c0 -69 46 -119 141 -119c98 0 140 58 140 158v418h149v-431c0 -178 -107 -278 -290 -278z" />
    <glyph glyph-name="Iacute" unicode="&#xcd;" horiz-adv-x="294" 
d="M91 749l85 145h148l-124 -145h-109zM73 0v695h149v-695h-149z" />
    <glyph glyph-name="Ibreve" unicode="&#x12c;" horiz-adv-x="294" 
d="M148 746c-92 0 -150 52 -150 145h93c0 -35 22 -56 57 -56s57 21 57 56h93c0 -93 -58 -145 -150 -145zM73 0v695h149v-695h-149z" />
    <glyph glyph-name="Icircumflex" unicode="&#xce;" horiz-adv-x="294" 
d="M-18 749l107 145h118l106 -145h-112l-56 66l-55 -66h-108zM73 0v695h149v-695h-149z" />
    <glyph glyph-name="Idieresis" unicode="&#xcf;" horiz-adv-x="294" 
d="M44 751c-43 0 -74 32 -74 72c0 41 31 71 74 71c42 0 74 -30 74 -71c0 -40 -32 -72 -74 -72zM252 751c-43 0 -74 32 -74 72c0 41 31 71 74 71c42 0 74 -30 74 -71c0 -40 -32 -72 -74 -72zM73 0v695h149v-695h-149z" />
    <glyph glyph-name="Idotaccent" unicode="&#x130;" horiz-adv-x="294" 
d="M148 750c-42 0 -75 30 -75 72s33 73 75 73s75 -31 75 -73s-33 -72 -75 -72zM73 0v695h149v-695h-149z" />
    <glyph glyph-name="Igrave" unicode="&#xcc;" horiz-adv-x="294" 
d="M98 749l-124 145h148l85 -145h-109zM73 0v695h149v-695h-149z" />
    <glyph glyph-name="Imacron" unicode="&#x12a;" horiz-adv-x="294" 
d="M-5 772v99h306v-99h-306zM73 0v695h149v-695h-149z" />
    <glyph glyph-name="Iogonek" unicode="&#x12e;" horiz-adv-x="294" 
d="M219 -106l32 -79c-22 -15 -51 -24 -91 -24c-63 0 -120 24 -120 89c0 42 26 85 77 120h-44v695h149v-695c-42 -37 -65 -62 -65 -89c0 -20 12 -29 30 -29c13 0 23 5 32 12z" />
    <glyph glyph-name="Itilde" unicode="&#x128;" horiz-adv-x="294" 
d="M-19 754c0 88 41 137 103 137c59 0 76 -42 105 -42c20 0 28 16 29 42h89c-1 -88 -41 -136 -103 -136c-59 0 -77 42 -105 42c-20 0 -28 -17 -29 -43h-89zM73 0v695h149v-695h-149z" />
    <glyph glyph-name="J" unicode="J" horiz-adv-x="597" 
d="M277 -14c-162 0 -250 98 -250 240c0 29 4 60 11 92l145 -26c-4 -20 -6 -41 -6 -58c0 -69 32 -115 101 -115c75 0 108 52 108 149v427h149v-461c0 -157 -96 -248 -258 -248z" />
    <glyph glyph-name="Jcircumflex" unicode="&#x134;" horiz-adv-x="597" 
d="M296 749l107 145h118l106 -145h-112l-56 66l-55 -66h-108zM277 -14c-162 0 -250 98 -250 240c0 29 4 60 11 92l145 -26c-4 -20 -6 -41 -6 -58c0 -69 32 -115 101 -115c75 0 108 52 108 149v427h149v-461c0 -157 -96 -248 -258 -248z" />
    <glyph glyph-name="K" unicode="K" horiz-adv-x="686" 
d="M642 137c10 0 18 1 24 3v-138c-12 -4 -24 -6 -36 -6c-119 0 -182 53 -293 219l-51 76l-64 -75v-216h-149v695h149v-324l264 324h176l-260 -310l70 -101c80 -115 116 -147 170 -147z" />
    <glyph glyph-name="uni0136" unicode="&#x136;" horiz-adv-x="686" 
d="M642 137c10 0 18 1 24 3v-138c-12 -4 -24 -6 -36 -6c-119 0 -182 53 -293 219l-51 76l-64 -75v-216h-149v695h149v-324l264 324h176l-260 -310l70 -101c80 -115 116 -147 170 -147zM263 -233l45 173h124l-62 -173h-107z" />
    <glyph glyph-name="L" unicode="L" horiz-adv-x="549" 
d="M73 0v695h149v-559h317v-136h-466z" />
    <glyph glyph-name="Lacute" unicode="&#x139;" horiz-adv-x="549" 
d="M90 749l85 145h148l-124 -145h-109zM73 0v695h149v-559h317v-136h-466z" />
    <glyph glyph-name="Lcaron" unicode="&#x13d;" horiz-adv-x="549" 
d="M73 0v695h149v-559h317v-136h-466zM275 518l19 177h119l-45 -177h-93z" />
    <glyph glyph-name="uni013B" unicode="&#x13b;" horiz-adv-x="549" 
d="M73 0v695h149v-559h317v-136h-466zM200 -233l45 173h124l-62 -173h-107z" />
    <glyph glyph-name="Ldot" unicode="&#x13f;" horiz-adv-x="549" 
d="M73 0v695h149v-559h317v-136h-466zM422 284c-49 0 -91 39 -91 90c0 52 42 91 91 91c52 0 92 -39 92 -91c0 -51 -40 -90 -92 -90z" />
    <glyph glyph-name="Lslash" unicode="&#x141;" horiz-adv-x="549" 
d="M222 136h317v-136h-466v304l-56 -20v109l56 20v282h149v-229l158 56v-108l-158 -57v-221z" />
    <glyph glyph-name="M" unicode="M" horiz-adv-x="908" 
d="M73 0v695h208l175 -387l170 387h209v-695h-149v515l-166 -369h-132l-166 369v-515h-149z" />
    <glyph glyph-name="N" unicode="N" horiz-adv-x="752" 
d="M73 0v695h149l313 -467v467h144v-695h-150l-312 466v-466h-144z" />
    <glyph glyph-name="Nacute" unicode="&#x143;" horiz-adv-x="752" 
d="M322 749l85 145h148l-124 -145h-109zM73 0v695h149l313 -467v467h144v-695h-150l-312 466v-466h-144z" />
    <glyph glyph-name="Ncaron" unicode="&#x147;" horiz-adv-x="752" 
d="M545 894l-107 -145h-118l-106 145h112l56 -66l55 66h108zM73 0v695h149l313 -467v467h144v-695h-150l-312 466v-466h-144z" />
    <glyph glyph-name="uni0145" unicode="&#x145;" horiz-adv-x="752" 
d="M73 0v695h149l313 -467v467h144v-695h-150l-312 466v-466h-144zM268 -233l45 173h124l-62 -173h-107z" />
    <glyph glyph-name="Eng" unicode="&#x14a;" horiz-adv-x="755" 
d="M517 -223c-54 0 -100 14 -136 37l43 118c19 -20 42 -31 67 -31c30 0 50 13 50 55v48l-323 462v-466h-145v695h151l313 -454v454h145v-752c0 -127 -81 -166 -165 -166z" />
    <glyph glyph-name="Ntilde" unicode="&#xd1;" horiz-adv-x="752" 
d="M212 754c0 88 41 137 103 137c59 0 76 -42 105 -42c20 0 28 16 29 42h89c-1 -88 -41 -136 -103 -136c-59 0 -77 42 -105 42c-20 0 -28 -17 -29 -43h-89zM73 0v695h149l313 -467v467h144v-695h-150l-312 466v-466h-144z" />
    <glyph glyph-name="O" unicode="O" horiz-adv-x="791" 
d="M395 -14c-206 0 -357 152 -357 361c0 210 151 362 357 362c207 0 357 -152 357 -362c0 -209 -150 -361 -357 -361zM395 122c118 0 201 89 201 225s-83 226 -201 226c-116 0 -200 -90 -200 -226s84 -225 200 -225z" />
    <glyph glyph-name="Oacute" unicode="&#xd3;" horiz-adv-x="791" 
d="M338 749l85 145h148l-124 -145h-109zM395 -14c-206 0 -357 152 -357 361c0 210 151 362 357 362c207 0 357 -152 357 -362c0 -209 -150 -361 -357 -361zM395 122c118 0 201 89 201 225s-83 226 -201 226c-116 0 -200 -90 -200 -226s84 -225 200 -225z" />
    <glyph glyph-name="Obreve" unicode="&#x14e;" horiz-adv-x="791" 
d="M395 746c-92 0 -150 52 -150 145h93c0 -35 22 -56 57 -56s57 21 57 56h93c0 -93 -58 -145 -150 -145zM395 -14c-206 0 -357 152 -357 361c0 210 151 362 357 362c207 0 357 -152 357 -362c0 -209 -150 -361 -357 -361zM395 122c118 0 201 89 201 225s-83 226 -201 226
c-116 0 -200 -90 -200 -226s84 -225 200 -225z" />
    <glyph glyph-name="Ocircumflex" unicode="&#xd4;" horiz-adv-x="791" 
d="M229 749l107 145h118l106 -145h-112l-56 66l-55 -66h-108zM395 -14c-206 0 -357 152 -357 361c0 210 151 362 357 362c207 0 357 -152 357 -362c0 -209 -150 -361 -357 -361zM395 122c118 0 201 89 201 225s-83 226 -201 226c-116 0 -200 -90 -200 -226s84 -225 200 -225
z" />
    <glyph glyph-name="Odieresis" unicode="&#xd6;" horiz-adv-x="791" 
d="M291 751c-43 0 -74 32 -74 72c0 41 31 71 74 71c42 0 74 -30 74 -71c0 -40 -32 -72 -74 -72zM499 751c-43 0 -74 32 -74 72c0 41 31 71 74 71c42 0 74 -30 74 -71c0 -40 -32 -72 -74 -72zM395 -14c-206 0 -357 152 -357 361c0 210 151 362 357 362
c207 0 357 -152 357 -362c0 -209 -150 -361 -357 -361zM395 122c118 0 201 89 201 225s-83 226 -201 226c-116 0 -200 -90 -200 -226s84 -225 200 -225z" />
    <glyph glyph-name="Ograve" unicode="&#xd2;" horiz-adv-x="791" 
d="M345 749l-124 145h148l85 -145h-109zM395 -14c-206 0 -357 152 -357 361c0 210 151 362 357 362c207 0 357 -152 357 -362c0 -209 -150 -361 -357 -361zM395 122c118 0 201 89 201 225s-83 226 -201 226c-116 0 -200 -90 -200 -226s84 -225 200 -225z" />
    <glyph glyph-name="Ohungarumlaut" unicode="&#x150;" horiz-adv-x="791" 
d="M255 749l68 145h137l-107 -145h-98zM433 749l69 145h137l-108 -145h-98zM395 -14c-206 0 -357 152 -357 361c0 210 151 362 357 362c207 0 357 -152 357 -362c0 -209 -150 -361 -357 -361zM395 122c118 0 201 89 201 225s-83 226 -201 226c-116 0 -200 -90 -200 -226
s84 -225 200 -225z" />
    <glyph glyph-name="Omacron" unicode="&#x14c;" horiz-adv-x="791" 
d="M242 772v99h306v-99h-306zM395 -14c-206 0 -357 152 -357 361c0 210 151 362 357 362c207 0 357 -152 357 -362c0 -209 -150 -361 -357 -361zM395 122c118 0 201 89 201 225s-83 226 -201 226c-116 0 -200 -90 -200 -226s84 -225 200 -225z" />
    <glyph glyph-name="Oslash" unicode="&#xd8;" horiz-adv-x="791" 
d="M664 593c55 -63 88 -148 88 -246c0 -209 -150 -361 -357 -361c-73 0 -140 19 -195 54l-33 -40h-126l85 102c-55 63 -88 148 -88 245c0 210 151 362 357 362c74 0 140 -19 196 -54l33 40h125zM191 347c0 -50 11 -94 32 -130l278 332c-30 19 -66 30 -106 30
c-119 0 -204 -96 -204 -232zM395 116c120 0 204 96 204 231c0 50 -11 95 -32 131l-278 -332c30 -19 66 -30 106 -30z" />
    <glyph glyph-name="Otilde" unicode="&#xd5;" horiz-adv-x="791" 
d="M228 754c0 88 41 137 103 137c59 0 76 -42 105 -42c20 0 28 16 29 42h89c-1 -88 -41 -136 -103 -136c-59 0 -77 42 -105 42c-20 0 -28 -17 -29 -43h-89zM395 -14c-206 0 -357 152 -357 361c0 210 151 362 357 362c207 0 357 -152 357 -362c0 -209 -150 -361 -357 -361z
M395 122c118 0 201 89 201 225s-83 226 -201 226c-116 0 -200 -90 -200 -226s84 -225 200 -225z" />
    <glyph glyph-name="OE" unicode="&#x152;" horiz-adv-x="1080" 
d="M688 129h356v-129h-505v37c-52 -38 -108 -51 -169 -51c-196 0 -337 152 -337 361c0 210 141 362 337 362c61 0 117 -14 169 -51v37h500v-129h-351v-151h287v-129h-287v-157zM388 122c63 0 118 29 151 76v299c-33 47 -88 76 -151 76c-116 0 -199 -94 -199 -226
s83 -225 199 -225z" />
    <glyph glyph-name="P" unicode="P" horiz-adv-x="649" 
d="M73 0v695h294c149 0 257 -85 257 -227s-108 -227 -257 -227h-145v-241h-149zM222 369h129c76 0 117 36 117 99s-41 98 -119 98h-127v-197z" />
    <glyph glyph-name="Thorn" unicode="&#xde;" horiz-adv-x="657" 
d="M73 0v695h149v-115h145c149 0 257 -85 257 -227c0 -143 -108 -228 -257 -228h-145v-125h-149zM222 254h129c76 0 117 35 117 99c0 63 -41 98 -119 98h-127v-197z" />
    <glyph glyph-name="Q" unicode="Q" horiz-adv-x="791" 
d="M672 30l104 -42c-26 -106 -90 -143 -161 -143c-91 0 -149 58 -185 142c-11 0 -23 -1 -35 -1c-206 0 -357 152 -357 361c0 210 151 362 357 362c207 0 357 -152 357 -362c0 -157 -84 -281 -213 -334c20 -34 42 -48 74 -48s50 21 59 65zM195 347c0 -136 84 -225 200 -225
c118 0 201 89 201 225s-83 226 -201 226c-116 0 -200 -90 -200 -226z" />
    <glyph glyph-name="R" unicode="R" horiz-adv-x="687" 
d="M635 137c11 0 18 1 25 3v-138c-12 -4 -26 -6 -43 -6c-117 0 -201 39 -280 217l-21 43h-94v-256h-149v695h312c148 0 251 -82 251 -221c0 -107 -62 -176 -164 -197c62 -118 111 -140 163 -140zM222 566v-182h147c74 0 111 33 111 91c0 59 -37 91 -113 91h-145z" />
    <glyph glyph-name="Racute" unicode="&#x154;" horiz-adv-x="687" 
d="M485 894l-124 -145h-109l85 145h148zM635 137c11 0 18 1 25 3v-138c-12 -4 -26 -6 -43 -6c-117 0 -201 39 -280 217l-21 43h-94v-256h-149v695h312c148 0 251 -82 251 -221c0 -107 -62 -176 -164 -197c62 -118 111 -140 163 -140zM222 566v-182h147c74 0 111 33 111 91
c0 59 -37 91 -113 91h-145z" />
    <glyph glyph-name="Rcaron" unicode="&#x158;" horiz-adv-x="687" 
d="M368 749h-118l-106 145h112l56 -66l55 66h108zM635 137c11 0 18 1 25 3v-138c-12 -4 -26 -6 -43 -6c-117 0 -201 39 -280 217l-21 43h-94v-256h-149v695h312c148 0 251 -82 251 -221c0 -107 -62 -176 -164 -197c62 -118 111 -140 163 -140zM222 566v-182h147
c74 0 111 33 111 91c0 59 -37 91 -113 91h-145z" />
    <glyph glyph-name="uni0156" unicode="&#x156;" horiz-adv-x="687" 
d="M635 137c11 0 18 1 25 3v-138c-12 -4 -26 -6 -43 -6c-117 0 -201 39 -280 217l-21 43h-94v-256h-149v695h312c148 0 251 -82 251 -221c0 -107 -62 -176 -164 -197c62 -118 111 -140 163 -140zM222 566v-182h147c74 0 111 33 111 91c0 59 -37 91 -113 91h-145zM269 -233
l45 173h124l-62 -173h-107z" />
    <glyph glyph-name="S" unicode="S" horiz-adv-x="658" 
d="M335 -14c-191 0 -298 91 -298 214c0 28 6 60 14 85l143 -33c-6 -15 -8 -31 -8 -46c0 -61 60 -98 152 -98c83 0 134 33 134 88c0 47 -42 71 -94 81l-92 16c-165 28 -232 97 -232 207c0 117 102 209 265 209c186 0 279 -86 289 -235l-147 -18c-10 80 -49 131 -147 131
c-64 0 -111 -30 -111 -79c0 -50 48 -73 109 -84l92 -16c156 -27 216 -95 216 -198c0 -135 -114 -224 -285 -224z" />
    <glyph glyph-name="Sacute" unicode="&#x15a;" horiz-adv-x="658" 
d="M271 749l85 145h148l-124 -145h-109zM335 -14c-191 0 -298 91 -298 214c0 28 6 60 14 85l143 -33c-6 -15 -8 -31 -8 -46c0 -61 60 -98 152 -98c83 0 134 33 134 88c0 47 -42 71 -94 81l-92 16c-165 28 -232 97 -232 207c0 117 102 209 265 209c186 0 279 -86 289 -235
l-147 -18c-10 80 -49 131 -147 131c-64 0 -111 -30 -111 -79c0 -50 48 -73 109 -84l92 -16c156 -27 216 -95 216 -198c0 -135 -114 -224 -285 -224z" />
    <glyph glyph-name="Scaron" unicode="&#x160;" horiz-adv-x="658" 
d="M494 894l-107 -145h-118l-106 145h112l56 -66l55 66h108zM335 -14c-191 0 -298 91 -298 214c0 28 6 60 14 85l143 -33c-6 -15 -8 -31 -8 -46c0 -61 60 -98 152 -98c83 0 134 33 134 88c0 47 -42 71 -94 81l-92 16c-165 28 -232 97 -232 207c0 117 102 209 265 209
c186 0 279 -86 289 -235l-147 -18c-10 80 -49 131 -147 131c-64 0 -111 -30 -111 -79c0 -50 48 -73 109 -84l92 -16c156 -27 216 -95 216 -198c0 -135 -114 -224 -285 -224z" />
    <glyph glyph-name="Scedilla" unicode="&#x15e;" horiz-adv-x="658" 
d="M620 210c0 -120 -89 -203 -229 -221l-39 -145h-113l37 145c-154 17 -239 101 -239 211c0 28 6 60 14 85l143 -33c-6 -15 -8 -31 -8 -46c0 -61 60 -98 152 -98c83 0 134 33 134 88c0 47 -42 71 -94 81l-92 16c-165 28 -232 97 -232 207c0 117 102 209 265 209
c186 0 279 -86 289 -235l-147 -18c-10 80 -49 131 -147 131c-64 0 -111 -30 -111 -79c0 -50 48 -73 109 -84l92 -16c156 -27 216 -95 216 -198z" />
    <glyph glyph-name="Scircumflex" unicode="&#x15c;" horiz-adv-x="658" 
d="M162 749l107 145h118l106 -145h-112l-56 66l-55 -66h-108zM335 -14c-191 0 -298 91 -298 214c0 28 6 60 14 85l143 -33c-6 -15 -8 -31 -8 -46c0 -61 60 -98 152 -98c83 0 134 33 134 88c0 47 -42 71 -94 81l-92 16c-165 28 -232 97 -232 207c0 117 102 209 265 209
c186 0 279 -86 289 -235l-147 -18c-10 80 -49 131 -147 131c-64 0 -111 -30 -111 -79c0 -50 48 -73 109 -84l92 -16c156 -27 216 -95 216 -198c0 -135 -114 -224 -285 -224z" />
    <glyph glyph-name="uni0218" unicode="&#x218;" horiz-adv-x="658" 
d="M335 -14c-191 0 -298 91 -298 214c0 28 6 60 14 85l143 -33c-6 -15 -8 -31 -8 -46c0 -61 60 -98 152 -98c83 0 134 33 134 88c0 47 -42 71 -94 81l-92 16c-165 28 -232 97 -232 207c0 117 102 209 265 209c186 0 279 -86 289 -235l-147 -18c-10 80 -49 131 -147 131
c-64 0 -111 -30 -111 -79c0 -50 48 -73 109 -84l92 -16c156 -27 216 -95 216 -198c0 -135 -114 -224 -285 -224zM231 -233l45 173h124l-62 -173h-107z" />
    <glyph glyph-name="uni1E9E" unicode="&#x1e9e;" horiz-adv-x="787" 
d="M488 -14c-100 0 -172 31 -218 80l86 105c28 -40 78 -62 139 -62c69 0 109 33 109 85c0 61 -78 98 -226 105l-30 89l201 182h-327v-570h-149v695h622v-146l-181 -152c156 -21 241 -96 241 -200c0 -134 -103 -211 -267 -211z" />
    <glyph glyph-name="T" unicode="T" horiz-adv-x="616" 
d="M234 0v559h-214v136h576v-136h-213v-559h-149z" />
    <glyph glyph-name="Tbar" unicode="&#x166;" horiz-adv-x="616" 
d="M596 559h-213v-171h103v-104h-103v-284h-149v284h-105v104h105v171h-214v136h576v-136z" />
    <glyph glyph-name="Tcaron" unicode="&#x164;" horiz-adv-x="616" 
d="M474 894l-107 -145h-118l-106 145h112l56 -66l55 66h108zM234 0v559h-214v136h576v-136h-213v-559h-149z" />
    <glyph glyph-name="uni0162" unicode="&#x162;" horiz-adv-x="616" 
d="M234 0v559h-214v136h576v-136h-213v-559h-149zM202 -233l45 173h124l-62 -173h-107z" />
    <glyph glyph-name="uni021A" unicode="&#x21a;" horiz-adv-x="616" 
d="M234 0v559h-214v136h576v-136h-213v-559h-149zM202 -233l45 173h124l-62 -173h-107z" />
    <glyph glyph-name="U" unicode="U" horiz-adv-x="726" 
d="M363 -14c-193 0 -300 105 -300 292v417h149v-400c0 -112 52 -173 151 -173c98 0 151 61 151 173v400h149v-417c0 -187 -106 -292 -300 -292z" />
    <glyph glyph-name="Uacute" unicode="&#xda;" horiz-adv-x="726" 
d="M306 749l85 145h148l-124 -145h-109zM363 -14c-193 0 -300 105 -300 292v417h149v-400c0 -112 52 -173 151 -173c98 0 151 61 151 173v400h149v-417c0 -187 -106 -292 -300 -292z" />
    <glyph glyph-name="Ubreve" unicode="&#x16c;" horiz-adv-x="726" 
d="M363 746c-92 0 -150 52 -150 145h93c0 -35 22 -56 57 -56s57 21 57 56h93c0 -93 -58 -145 -150 -145zM363 -14c-193 0 -300 105 -300 292v417h149v-400c0 -112 52 -173 151 -173c98 0 151 61 151 173v400h149v-417c0 -187 -106 -292 -300 -292z" />
    <glyph glyph-name="Ucircumflex" unicode="&#xdb;" horiz-adv-x="726" 
d="M197 749l107 145h118l106 -145h-112l-56 66l-55 -66h-108zM363 -14c-193 0 -300 105 -300 292v417h149v-400c0 -112 52 -173 151 -173c98 0 151 61 151 173v400h149v-417c0 -187 -106 -292 -300 -292z" />
    <glyph glyph-name="Udieresis" unicode="&#xdc;" horiz-adv-x="726" 
d="M259 751c-43 0 -74 32 -74 72c0 41 31 71 74 71c42 0 74 -30 74 -71c0 -40 -32 -72 -74 -72zM467 751c-43 0 -74 32 -74 72c0 41 31 71 74 71c42 0 74 -30 74 -71c0 -40 -32 -72 -74 -72zM363 -14c-193 0 -300 105 -300 292v417h149v-400c0 -112 52 -173 151 -173
c98 0 151 61 151 173v400h149v-417c0 -187 -106 -292 -300 -292z" />
    <glyph glyph-name="Ugrave" unicode="&#xd9;" horiz-adv-x="726" 
d="M313 749l-124 145h148l85 -145h-109zM363 -14c-193 0 -300 105 -300 292v417h149v-400c0 -112 52 -173 151 -173c98 0 151 61 151 173v400h149v-417c0 -187 -106 -292 -300 -292z" />
    <glyph glyph-name="Uhungarumlaut" unicode="&#x170;" horiz-adv-x="726" 
d="M223 749l68 145h137l-107 -145h-98zM401 749l69 145h137l-108 -145h-98zM363 -14c-193 0 -300 105 -300 292v417h149v-400c0 -112 52 -173 151 -173c98 0 151 61 151 173v400h149v-417c0 -187 -106 -292 -300 -292z" />
    <glyph glyph-name="Umacron" unicode="&#x16a;" horiz-adv-x="726" 
d="M210 772v99h306v-99h-306zM363 -14c-193 0 -300 105 -300 292v417h149v-400c0 -112 52 -173 151 -173c98 0 151 61 151 173v400h149v-417c0 -187 -106 -292 -300 -292z" />
    <glyph glyph-name="Uogonek" unicode="&#x172;" horiz-adv-x="726" 
d="M514 695h149v-417c0 -119 -43 -205 -125 -252c-67 -42 -102 -74 -102 -114c0 -20 12 -30 31 -30c13 0 22 5 31 12l32 -79c-21 -15 -53 -24 -93 -24c-62 0 -118 24 -118 89c0 38 24 74 69 107c-8 -1 -16 -1 -25 -1c-193 0 -300 105 -300 292v417h149v-400
c0 -112 52 -173 151 -173c98 0 151 61 151 173v400z" />
    <glyph glyph-name="Uring" unicode="&#x16e;" horiz-adv-x="726" 
d="M364 676c-71 0 -122 46 -122 109s51 109 122 109s123 -46 123 -109s-52 -109 -123 -109zM364 746c24 0 40 17 40 39s-16 38 -40 38s-40 -16 -40 -38s16 -39 40 -39zM363 -14c-193 0 -300 105 -300 292v417h149v-400c0 -112 52 -173 151 -173c98 0 151 61 151 173v400h149
v-417c0 -187 -106 -292 -300 -292z" />
    <glyph glyph-name="Utilde" unicode="&#x168;" horiz-adv-x="726" 
d="M196 754c0 88 41 137 103 137c59 0 76 -42 105 -42c20 0 28 16 29 42h89c-1 -88 -41 -136 -103 -136c-59 0 -77 42 -105 42c-20 0 -28 -17 -29 -43h-89zM363 -14c-193 0 -300 105 -300 292v417h149v-400c0 -112 52 -173 151 -173c98 0 151 61 151 173v400h149v-417
c0 -187 -106 -292 -300 -292z" />
    <glyph glyph-name="V" unicode="V" horiz-adv-x="658" 
d="M232 0l-237 695h156l181 -544l175 544h156l-237 -695h-194z" />
    <glyph glyph-name="W" unicode="W" horiz-adv-x="965" 
d="M178 0l-173 695h153l116 -505l129 505h159l136 -505l109 505h153l-173 -695h-167l-137 488l-139 -488h-166z" />
    <glyph glyph-name="Wacute" unicode="&#x1e82;" horiz-adv-x="965" 
d="M420 749l85 145h148l-124 -145h-109zM178 0l-173 695h153l116 -505l129 505h159l136 -505l109 505h153l-173 -695h-167l-137 488l-139 -488h-166z" />
    <glyph glyph-name="Wcircumflex" unicode="&#x174;" horiz-adv-x="965" 
d="M311 749l107 145h118l106 -145h-112l-56 66l-55 -66h-108zM178 0l-173 695h153l116 -505l129 505h159l136 -505l109 505h153l-173 -695h-167l-137 488l-139 -488h-166z" />
    <glyph glyph-name="Wdieresis" unicode="&#x1e84;" horiz-adv-x="965" 
d="M373 751c-43 0 -74 32 -74 72c0 41 31 71 74 71c42 0 74 -30 74 -71c0 -40 -32 -72 -74 -72zM581 751c-43 0 -74 32 -74 72c0 41 31 71 74 71c42 0 74 -30 74 -71c0 -40 -32 -72 -74 -72zM178 0l-173 695h153l116 -505l129 505h159l136 -505l109 505h153l-173 -695h-167
l-137 488l-139 -488h-166z" />
    <glyph glyph-name="Wgrave" unicode="&#x1e80;" horiz-adv-x="965" 
d="M427 749l-124 145h148l85 -145h-109zM178 0l-173 695h153l116 -505l129 505h159l136 -505l109 505h153l-173 -695h-167l-137 488l-139 -488h-166z" />
    <glyph glyph-name="X" unicode="X" horiz-adv-x="668" 
d="M5 0l235 356l-222 339h175l149 -235l145 235h170l-225 -342l232 -353h-176l-159 250l-155 -250h-169z" />
    <glyph glyph-name="Y" unicode="Y" horiz-adv-x="648" 
d="M248 0v270l-253 425h171l159 -278l158 278h170l-256 -425v-270h-149z" />
    <glyph glyph-name="Yacute" unicode="&#xdd;" horiz-adv-x="648" 
d="M266 749l85 145h148l-124 -145h-109zM248 0v270l-253 425h171l159 -278l158 278h170l-256 -425v-270h-149z" />
    <glyph glyph-name="Ycircumflex" unicode="&#x176;" horiz-adv-x="648" 
d="M157 749l107 145h118l106 -145h-112l-56 66l-55 -66h-108zM248 0v270l-253 425h171l159 -278l158 278h170l-256 -425v-270h-149z" />
    <glyph glyph-name="Ydieresis" unicode="&#x178;" horiz-adv-x="648" 
d="M219 751c-43 0 -74 32 -74 72c0 41 31 71 74 71c42 0 74 -30 74 -71c0 -40 -32 -72 -74 -72zM427 751c-43 0 -74 32 -74 72c0 41 31 71 74 71c42 0 74 -30 74 -71c0 -40 -32 -72 -74 -72zM248 0v270l-253 425h171l159 -278l158 278h170l-256 -425v-270h-149z" />
    <glyph glyph-name="Ygrave" unicode="&#x1ef2;" horiz-adv-x="648" 
d="M273 749l-124 145h148l85 -145h-109zM248 0v270l-253 425h171l159 -278l158 278h170l-256 -425v-270h-149z" />
    <glyph glyph-name="Z" unicode="Z" horiz-adv-x="611" 
d="M24 0v122l360 437h-347v136h536v-122l-360 -437h373v-136h-562z" />
    <glyph glyph-name="Zacute" unicode="&#x179;" horiz-adv-x="611" 
d="M249 749l85 145h148l-124 -145h-109zM24 0v122l360 437h-347v136h536v-122l-360 -437h373v-136h-562z" />
    <glyph glyph-name="Zcaron" unicode="&#x17d;" horiz-adv-x="611" 
d="M472 894l-107 -145h-118l-106 145h112l56 -66l55 66h108zM24 0v122l360 437h-347v136h536v-122l-360 -437h373v-136h-562z" />
    <glyph glyph-name="Zdotaccent" unicode="&#x17b;" horiz-adv-x="611" 
d="M306 750c-42 0 -75 30 -75 72s33 73 75 73s75 -31 75 -73s-33 -72 -75 -72zM24 0v122l360 437h-347v136h536v-122l-360 -437h373v-136h-562z" />
    <glyph glyph-name="Q.ss03" horiz-adv-x="791" 
d="M395 -14c-206 0 -357 152 -357 361c0 210 151 362 357 362c207 0 357 -152 357 -360c0 -75 -21 -144 -54 -196c26 -28 57 -37 105 -34v-124c-86 -5 -142 23 -181 70c-60 -50 -138 -79 -227 -79zM395 116c51 0 96 17 130 53c-32 39 -65 51 -121 51v123
c80 0 133 -29 177 -78c9 24 15 51 15 82c0 139 -83 232 -201 232c-116 0 -200 -94 -200 -232s84 -231 200 -231z" />
    <glyph glyph-name="a" unicode="a" horiz-adv-x="560" 
d="M221 -12c-111 0 -189 58 -189 154c0 85 80 155 193 155c60 0 106 -22 135 -48v53c0 59 -30 91 -88 91c-51 0 -87 -29 -101 -82l-134 22c29 103 114 172 245 172c137 0 223 -63 223 -209v-296h-136v60c-34 -46 -93 -72 -148 -72zM258 84c43 0 76 25 102 61v10
c-22 25 -59 49 -102 49c-48 0 -80 -25 -80 -60c0 -36 32 -60 80 -60z" />
    <glyph glyph-name="aacute" unicode="&#xe1;" horiz-adv-x="560" 
d="M228 546l85 145h148l-124 -145h-109zM221 -12c-111 0 -189 58 -189 154c0 85 80 155 193 155c60 0 106 -22 135 -48v53c0 59 -30 91 -88 91c-51 0 -87 -29 -101 -82l-134 22c29 103 114 172 245 172c137 0 223 -63 223 -209v-296h-136v60c-34 -46 -93 -72 -148 -72z
M258 84c43 0 76 25 102 61v10c-22 25 -59 49 -102 49c-48 0 -80 -25 -80 -60c0 -36 32 -60 80 -60z" />
    <glyph glyph-name="abreve" unicode="&#x103;" horiz-adv-x="560" 
d="M285 543c-92 0 -150 52 -150 145h93c0 -35 22 -56 57 -56s57 21 57 56h93c0 -93 -58 -145 -150 -145zM221 -12c-111 0 -189 58 -189 154c0 85 80 155 193 155c60 0 106 -22 135 -48v53c0 59 -30 91 -88 91c-51 0 -87 -29 -101 -82l-134 22c29 103 114 172 245 172
c137 0 223 -63 223 -209v-296h-136v60c-34 -46 -93 -72 -148 -72zM258 84c43 0 76 25 102 61v10c-22 25 -59 49 -102 49c-48 0 -80 -25 -80 -60c0 -36 32 -60 80 -60z" />
    <glyph glyph-name="acircumflex" unicode="&#xe2;" horiz-adv-x="560" 
d="M119 546l107 145h118l106 -145h-112l-56 66l-55 -66h-108zM221 -12c-111 0 -189 58 -189 154c0 85 80 155 193 155c60 0 106 -22 135 -48v53c0 59 -30 91 -88 91c-51 0 -87 -29 -101 -82l-134 22c29 103 114 172 245 172c137 0 223 -63 223 -209v-296h-136v60
c-34 -46 -93 -72 -148 -72zM258 84c43 0 76 25 102 61v10c-22 25 -59 49 -102 49c-48 0 -80 -25 -80 -60c0 -36 32 -60 80 -60z" />
    <glyph glyph-name="adieresis" unicode="&#xe4;" horiz-adv-x="560" 
d="M181 548c-43 0 -74 32 -74 72c0 41 31 71 74 71c42 0 74 -30 74 -71c0 -40 -32 -72 -74 -72zM389 548c-43 0 -74 32 -74 72c0 41 31 71 74 71c42 0 74 -30 74 -71c0 -40 -32 -72 -74 -72zM221 -12c-111 0 -189 58 -189 154c0 85 80 155 193 155c60 0 106 -22 135 -48v53
c0 59 -30 91 -88 91c-51 0 -87 -29 -101 -82l-134 22c29 103 114 172 245 172c137 0 223 -63 223 -209v-296h-136v60c-34 -46 -93 -72 -148 -72zM258 84c43 0 76 25 102 61v10c-22 25 -59 49 -102 49c-48 0 -80 -25 -80 -60c0 -36 32 -60 80 -60z" />
    <glyph glyph-name="agrave" unicode="&#xe0;" horiz-adv-x="560" 
d="M235 546l-124 145h148l85 -145h-109zM221 -12c-111 0 -189 58 -189 154c0 85 80 155 193 155c60 0 106 -22 135 -48v53c0 59 -30 91 -88 91c-51 0 -87 -29 -101 -82l-134 22c29 103 114 172 245 172c137 0 223 -63 223 -209v-296h-136v60c-34 -46 -93 -72 -148 -72z
M258 84c43 0 76 25 102 61v10c-22 25 -59 49 -102 49c-48 0 -80 -25 -80 -60c0 -36 32 -60 80 -60z" />
    <glyph glyph-name="amacron" unicode="&#x101;" horiz-adv-x="560" 
d="M132 569v99h306v-99h-306zM221 -12c-111 0 -189 58 -189 154c0 85 80 155 193 155c60 0 106 -22 135 -48v53c0 59 -30 91 -88 91c-51 0 -87 -29 -101 -82l-134 22c29 103 114 172 245 172c137 0 223 -63 223 -209v-296h-136v60c-34 -46 -93 -72 -148 -72zM258 84
c43 0 76 25 102 61v10c-22 25 -59 49 -102 49c-48 0 -80 -25 -80 -60c0 -36 32 -60 80 -60z" />
    <glyph glyph-name="aogonek" unicode="&#x105;" horiz-adv-x="560" 
d="M490 -106l32 -79c-21 -15 -51 -24 -91 -24c-63 0 -120 24 -120 89c0 42 28 85 86 120h-28v60c-34 -46 -93 -72 -148 -72c-111 0 -189 58 -189 154c0 85 80 155 193 155c60 0 106 -22 135 -48v53c0 59 -30 91 -88 91c-51 0 -87 -29 -101 -82l-134 22
c29 103 114 172 245 172c137 0 223 -63 223 -209v-296c-53 -37 -77 -62 -77 -89c0 -20 12 -29 30 -29c13 0 23 5 32 12zM360 145v10c-22 25 -59 49 -102 49c-48 0 -80 -25 -80 -60c0 -36 32 -60 80 -60c43 0 76 25 102 61z" />
    <glyph glyph-name="aring" unicode="&#xe5;" horiz-adv-x="560" 
d="M374 493c82 -24 131 -87 131 -197v-296h-136v60c-34 -46 -93 -72 -148 -72c-111 0 -189 58 -189 154c0 85 80 155 193 155c60 0 106 -22 135 -48v53c0 59 -30 91 -88 91c-51 0 -87 -29 -101 -82l-134 22c22 79 77 137 160 161c-22 19 -34 46 -34 77c0 63 51 109 123 109
c71 0 122 -46 122 -109c0 -31 -13 -59 -34 -78zM286 609c-25 0 -41 -16 -41 -38s16 -38 41 -38c23 0 40 16 40 38s-17 38 -40 38zM360 145v10c-22 25 -59 49 -102 49c-48 0 -80 -25 -80 -60c0 -36 32 -60 80 -60c43 0 76 25 102 61z" />
    <glyph glyph-name="atilde" unicode="&#xe3;" horiz-adv-x="560" 
d="M118 551c0 88 41 137 103 137c59 0 76 -42 105 -42c20 0 28 16 29 42h89c-1 -88 -41 -136 -103 -136c-59 0 -77 42 -105 42c-20 0 -28 -17 -29 -43h-89zM221 -12c-111 0 -189 58 -189 154c0 85 80 155 193 155c60 0 106 -22 135 -48v53c0 59 -30 91 -88 91
c-51 0 -87 -29 -101 -82l-134 22c29 103 114 172 245 172c137 0 223 -63 223 -209v-296h-136v60c-34 -46 -93 -72 -148 -72zM258 84c43 0 76 25 102 61v10c-22 25 -59 49 -102 49c-48 0 -80 -25 -80 -60c0 -36 32 -60 80 -60z" />
    <glyph glyph-name="ae" unicode="&#xe6;" horiz-adv-x="896" 
d="M748 181l115 -58c-38 -76 -112 -135 -237 -135c-87 0 -159 33 -205 92c-50 -58 -114 -92 -195 -92c-113 0 -194 58 -194 154c0 85 80 155 193 155c60 0 106 -22 135 -48v53c0 59 -30 91 -88 91c-51 0 -87 -29 -101 -82l-134 22c29 103 109 172 239 172
c83 0 143 -24 177 -76c39 48 95 76 170 76c150 0 237 -101 237 -252c0 -13 0 -27 -1 -39h-352c7 -71 52 -114 122 -114c55 0 93 29 119 81zM614 398c-57 0 -96 -38 -106 -101h204c-6 64 -37 101 -98 101zM256 84c45 0 79 28 107 69c-24 26 -62 51 -105 51
c-48 0 -80 -25 -80 -60c0 -36 31 -60 78 -60z" />
    <glyph glyph-name="b" unicode="b" horiz-adv-x="614" 
d="M356 -12c-76 0 -132 36 -160 91v-79h-136v695h144v-277c31 55 82 87 155 87c129 0 227 -108 227 -259c0 -150 -99 -258 -230 -258zM321 100c72 0 116 55 116 146c0 92 -44 147 -116 147c-65 0 -117 -63 -117 -147c0 -83 52 -146 117 -146z" />
    <glyph glyph-name="c" unicode="c" horiz-adv-x="544" 
d="M286 -12c-149 0 -258 88 -258 258c0 148 105 259 247 259c122 0 223 -63 248 -213l-137 -28c-13 88 -53 129 -105 129c-65 0 -104 -56 -104 -147c0 -89 42 -146 111 -146c54 0 89 40 109 100l125 -53c-46 -95 -113 -159 -236 -159z" />
    <glyph glyph-name="cacute" unicode="&#x107;" horiz-adv-x="544" 
d="M217 546l85 145h148l-124 -145h-109zM286 -12c-149 0 -258 88 -258 258c0 148 105 259 247 259c122 0 223 -63 248 -213l-137 -28c-13 88 -53 129 -105 129c-65 0 -104 -56 -104 -147c0 -89 42 -146 111 -146c54 0 89 40 109 100l125 -53c-46 -95 -113 -159 -236 -159z
" />
    <glyph glyph-name="ccaron" unicode="&#x10d;" horiz-adv-x="544" 
d="M440 691l-107 -145h-118l-106 145h112l56 -66l55 66h108zM286 -12c-149 0 -258 88 -258 258c0 148 105 259 247 259c122 0 223 -63 248 -213l-137 -28c-13 88 -53 129 -105 129c-65 0 -104 -56 -104 -147c0 -89 42 -146 111 -146c54 0 89 40 109 100l125 -53
c-46 -95 -113 -159 -236 -159z" />
    <glyph glyph-name="ccedilla" unicode="&#xe7;" horiz-adv-x="544" 
d="M288 100c54 0 89 40 109 100l125 -53c-39 -81 -94 -139 -185 -155l-40 -148h-113l38 150c-115 22 -194 107 -194 252c0 148 105 259 247 259c122 0 223 -63 248 -213l-137 -28c-13 88 -53 129 -105 129c-65 0 -104 -56 -104 -147c0 -89 42 -146 111 -146z" />
    <glyph glyph-name="ccircumflex" unicode="&#x109;" horiz-adv-x="544" 
d="M108 546l107 145h118l106 -145h-112l-56 66l-55 -66h-108zM286 -12c-149 0 -258 88 -258 258c0 148 105 259 247 259c122 0 223 -63 248 -213l-137 -28c-13 88 -53 129 -105 129c-65 0 -104 -56 -104 -147c0 -89 42 -146 111 -146c54 0 89 40 109 100l125 -53
c-46 -95 -113 -159 -236 -159z" />
    <glyph glyph-name="cdotaccent" unicode="&#x10b;" horiz-adv-x="544" 
d="M274 547c-42 0 -75 30 -75 72s33 73 75 73s75 -31 75 -73s-33 -72 -75 -72zM286 -12c-149 0 -258 88 -258 258c0 148 105 259 247 259c122 0 223 -63 248 -213l-137 -28c-13 88 -53 129 -105 129c-65 0 -104 -56 -104 -147c0 -89 42 -146 111 -146c54 0 89 40 109 100
l125 -53c-46 -95 -113 -159 -236 -159z" />
    <glyph glyph-name="d" unicode="d" horiz-adv-x="614" 
d="M258 -12c-131 0 -230 108 -230 258c0 151 98 259 227 259c73 0 126 -29 154 -81v271h145v-695h-136v84c-29 -57 -84 -96 -160 -96zM292 100c66 0 117 63 117 146c0 84 -51 147 -117 147c-71 0 -115 -55 -115 -147c0 -91 44 -146 115 -146z" />
    <glyph glyph-name="eth" unicode="&#xf0;" horiz-adv-x="592" 
d="M401 629c101 -70 158 -180 158 -320c0 -192 -104 -321 -267 -321c-160 0 -264 100 -264 243c0 136 94 237 220 237c79 0 140 -31 174 -94c-9 76 -47 135 -108 177l-49 -44h-112l90 80c-38 15 -82 26 -130 32l64 90c57 -7 110 -21 156 -42l40 36h111zM292 100
c71 0 113 54 113 136c0 75 -43 124 -114 124s-114 -51 -114 -129c0 -80 44 -131 115 -131z" />
    <glyph glyph-name="dcaron" unicode="&#x10f;" horiz-adv-x="713" 
d="M258 -12c-131 0 -230 108 -230 258c0 151 98 259 227 259c73 0 126 -29 154 -81v271h145v-695h-136v84c-29 -57 -84 -96 -160 -96zM597 518l19 177h119l-45 -177h-93zM292 100c66 0 117 63 117 146c0 84 -51 147 -117 147c-71 0 -115 -55 -115 -147
c0 -91 44 -146 115 -146z" />
    <glyph glyph-name="dcroat" unicode="&#x111;" horiz-adv-x="614" 
d="M614 635v-85h-60v-550h-136v84c-29 -57 -84 -96 -160 -96c-131 0 -230 108 -230 258c0 151 98 259 227 259c73 0 126 -29 154 -81v126h-123v85h123v60h145v-60h60zM292 100c66 0 117 63 117 146c0 84 -51 147 -117 147c-71 0 -115 -55 -115 -147c0 -91 44 -146 115 -146z
" />
    <glyph glyph-name="e" unicode="e" horiz-adv-x="567" 
d="M420 180l114 -57c-38 -76 -112 -135 -236 -135c-155 0 -270 98 -270 258c0 153 112 259 262 259s241 -101 241 -252c0 -13 0 -30 -1 -39h-352c7 -71 52 -114 122 -114c55 0 93 29 120 80zM285 398c-57 0 -97 -38 -106 -101h204c-5 64 -37 101 -98 101z" />
    <glyph glyph-name="eacute" unicode="&#xe9;" horiz-adv-x="567" 
d="M466 691l-124 -145h-109l85 145h148zM420 180l114 -57c-38 -76 -112 -135 -236 -135c-155 0 -270 98 -270 258c0 153 112 259 262 259s241 -101 241 -252c0 -13 0 -30 -1 -39h-352c7 -71 52 -114 122 -114c55 0 93 29 120 80zM285 398c-57 0 -97 -38 -106 -101h204
c-5 64 -37 101 -98 101z" />
    <glyph glyph-name="ebreve" unicode="&#x115;" horiz-adv-x="567" 
d="M290 543c-92 0 -150 52 -150 145h93c0 -35 22 -56 57 -56s57 21 57 56h93c0 -93 -58 -145 -150 -145zM420 180l114 -57c-38 -76 -112 -135 -236 -135c-155 0 -270 98 -270 258c0 153 112 259 262 259s241 -101 241 -252c0 -13 0 -30 -1 -39h-352c7 -71 52 -114 122 -114
c55 0 93 29 120 80zM285 398c-57 0 -97 -38 -106 -101h204c-5 64 -37 101 -98 101z" />
    <glyph glyph-name="ecaron" unicode="&#x11b;" horiz-adv-x="567" 
d="M349 546h-118l-106 145h112l56 -66l55 66h108zM420 180l114 -57c-38 -76 -112 -135 -236 -135c-155 0 -270 98 -270 258c0 153 112 259 262 259s241 -101 241 -252c0 -13 0 -30 -1 -39h-352c7 -71 52 -114 122 -114c55 0 93 29 120 80zM285 398c-57 0 -97 -38 -106 -101
h204c-5 64 -37 101 -98 101z" />
    <glyph glyph-name="ecircumflex" unicode="&#xea;" horiz-adv-x="567" 
d="M287 612l-55 -66h-108l107 145h118l106 -145h-112zM420 180l114 -57c-38 -76 -112 -135 -236 -135c-155 0 -270 98 -270 258c0 153 112 259 262 259s241 -101 241 -252c0 -13 0 -30 -1 -39h-352c7 -71 52 -114 122 -114c55 0 93 29 120 80zM285 398
c-57 0 -97 -38 -106 -101h204c-5 64 -37 101 -98 101z" />
    <glyph glyph-name="edieresis" unicode="&#xeb;" horiz-adv-x="567" 
d="M186 548c-43 0 -74 32 -74 72c0 41 31 71 74 71c42 0 74 -30 74 -71c0 -40 -32 -72 -74 -72zM394 548c-43 0 -74 32 -74 72c0 41 31 71 74 71c42 0 74 -30 74 -71c0 -40 -32 -72 -74 -72zM420 180l114 -57c-38 -76 -112 -135 -236 -135c-155 0 -270 98 -270 258
c0 153 112 259 262 259s241 -101 241 -252c0 -13 0 -30 -1 -39h-352c7 -71 52 -114 122 -114c55 0 93 29 120 80zM285 398c-57 0 -97 -38 -106 -101h204c-5 64 -37 101 -98 101z" />
    <glyph glyph-name="edotaccent" unicode="&#x117;" horiz-adv-x="567" 
d="M290 547c-42 0 -75 30 -75 72s33 73 75 73s75 -31 75 -73s-33 -72 -75 -72zM420 180l114 -57c-38 -76 -112 -135 -236 -135c-155 0 -270 98 -270 258c0 153 112 259 262 259s241 -101 241 -252c0 -13 0 -30 -1 -39h-352c7 -71 52 -114 122 -114c55 0 93 29 120 80z
M285 398c-57 0 -97 -38 -106 -101h204c-5 64 -37 101 -98 101z" />
    <glyph glyph-name="egrave" unicode="&#xe8;" horiz-adv-x="567" 
d="M349 546h-109l-124 145h148zM420 180l114 -57c-38 -76 -112 -135 -236 -135c-155 0 -270 98 -270 258c0 153 112 259 262 259s241 -101 241 -252c0 -13 0 -30 -1 -39h-352c7 -71 52 -114 122 -114c55 0 93 29 120 80zM285 398c-57 0 -97 -38 -106 -101h204
c-5 64 -37 101 -98 101z" />
    <glyph glyph-name="emacron" unicode="&#x113;" horiz-adv-x="567" 
d="M443 668v-99h-306v99h306zM420 180l114 -57c-38 -76 -112 -135 -236 -135c-155 0 -270 98 -270 258c0 153 112 259 262 259s241 -101 241 -252c0 -13 0 -30 -1 -39h-352c7 -71 52 -114 122 -114c55 0 93 29 120 80zM285 398c-57 0 -97 -38 -106 -101h204
c-5 64 -37 101 -98 101z" />
    <glyph glyph-name="eogonek" unicode="&#x119;" horiz-adv-x="567" 
d="M534 123c-19 -39 -48 -73 -87 -97c-67 -42 -102 -74 -102 -114c0 -20 12 -30 31 -30c13 0 22 5 31 12l32 -79c-21 -15 -53 -24 -93 -24c-62 0 -118 24 -118 89c0 38 24 76 71 108h-1c-155 0 -270 98 -270 258c0 153 112 259 262 259s241 -101 241 -252
c0 -13 0 -30 -1 -39h-352c7 -71 52 -114 122 -114c55 0 93 29 120 80zM285 398c-57 0 -97 -38 -106 -101h204c-5 64 -37 101 -98 101z" />
    <glyph glyph-name="f" unicode="f" horiz-adv-x="354" 
d="M85 0v375h-77v118h71c-12 29 -16 53 -16 78c0 84 78 136 170 136c82 0 134 -31 157 -81l-89 -63c-11 25 -31 39 -59 39c-26 0 -47 -17 -47 -49c0 -19 7 -39 23 -60h130v-118h-118v-375h-145z" />
    <glyph glyph-name="g" unicode="g" horiz-adv-x="578" 
d="M469 486c-13 0 -25 -11 -34 -32c32 -28 52 -67 52 -116c0 -109 -96 -167 -214 -167c-30 0 -59 4 -85 11c-16 -6 -28 -19 -28 -35c0 -17 12 -32 39 -32h183c135 0 191 -54 191 -148c0 -119 -124 -190 -280 -190c-183 0 -273 53 -273 140c0 43 28 75 81 98
c-36 21 -56 54 -56 96c0 51 29 85 71 107c-35 28 -56 68 -56 120c0 109 94 167 213 167c33 0 64 -4 91 -13c28 58 69 86 122 86c49 0 102 -29 102 -117v-17l-87 -12c-2 40 -13 54 -32 54zM273 267c44 0 79 24 79 71c0 46 -35 70 -79 70s-79 -24 -79 -70c0 -47 35 -71 79 -71
zM359 -12h-138c-41 0 -68 -19 -68 -49c0 -39 43 -62 138 -62c84 0 140 30 140 71c0 29 -21 40 -72 40z" />
    <glyph glyph-name="gbreve" unicode="&#x11f;" horiz-adv-x="578" 
d="M270 543c-92 0 -150 52 -150 145h93c0 -35 22 -56 57 -56s57 21 57 56h93c0 -93 -58 -145 -150 -145zM469 486c-13 0 -25 -11 -34 -32c32 -28 52 -67 52 -116c0 -109 -96 -167 -214 -167c-30 0 -59 4 -85 11c-16 -6 -28 -19 -28 -35c0 -17 12 -32 39 -32h183
c135 0 191 -54 191 -148c0 -119 -124 -190 -280 -190c-183 0 -273 53 -273 140c0 43 28 75 81 98c-36 21 -56 54 -56 96c0 51 29 85 71 107c-35 28 -56 68 -56 120c0 109 94 167 213 167c33 0 64 -4 91 -13c28 58 69 86 122 86c49 0 102 -29 102 -117v-17l-87 -12
c-2 40 -13 54 -32 54zM273 267c44 0 79 24 79 71c0 46 -35 70 -79 70s-79 -24 -79 -70c0 -47 35 -71 79 -71zM359 -12h-138c-41 0 -68 -19 -68 -49c0 -39 43 -62 138 -62c84 0 140 30 140 71c0 29 -21 40 -72 40z" />
    <glyph glyph-name="gcircumflex" unicode="&#x11d;" horiz-adv-x="578" 
d="M469 486c-13 0 -25 -11 -34 -32c32 -28 52 -67 52 -116c0 -109 -96 -167 -214 -167c-30 0 -59 4 -85 11c-16 -6 -28 -19 -28 -35c0 -17 12 -32 39 -32h183c135 0 191 -54 191 -148c0 -119 -124 -190 -280 -190c-183 0 -273 53 -273 140c0 43 28 75 81 98
c-36 21 -56 54 -56 96c0 51 29 85 71 107c-35 28 -56 68 -56 120c0 109 94 167 213 167c33 0 64 -4 91 -13c11 22 24 40 39 54h-80l-56 66l-55 -66h-108l107 145h118l95 -129c18 11 39 16 62 16c49 0 102 -29 102 -117v-17l-87 -12c-2 40 -13 54 -32 54zM273 267
c44 0 79 24 79 71c0 46 -35 70 -79 70s-79 -24 -79 -70c0 -47 35 -71 79 -71zM359 -12h-138c-41 0 -68 -19 -68 -49c0 -39 43 -62 138 -62c84 0 140 30 140 71c0 29 -21 40 -72 40z" />
    <glyph glyph-name="uni0123" unicode="&#x123;" horiz-adv-x="578" 
d="M375 719l-45 -173h-124l63 173h106zM469 486c-13 0 -25 -11 -34 -32c32 -28 52 -67 52 -116c0 -109 -96 -167 -214 -167c-30 0 -59 4 -85 11c-16 -6 -28 -19 -28 -35c0 -17 12 -32 39 -32h183c135 0 191 -54 191 -148c0 -119 -124 -190 -280 -190
c-183 0 -273 53 -273 140c0 43 28 75 81 98c-36 21 -56 54 -56 96c0 51 29 85 71 107c-35 28 -56 68 -56 120c0 109 94 167 213 167c33 0 64 -4 91 -13c28 58 69 86 122 86c49 0 102 -29 102 -117v-17l-87 -12c-2 40 -13 54 -32 54zM273 267c44 0 79 24 79 71
c0 46 -35 70 -79 70s-79 -24 -79 -70c0 -47 35 -71 79 -71zM359 -12h-138c-41 0 -68 -19 -68 -49c0 -39 43 -62 138 -62c84 0 140 30 140 71c0 29 -21 40 -72 40z" />
    <glyph glyph-name="gdotaccent" unicode="&#x121;" horiz-adv-x="578" 
d="M270 547c-42 0 -75 30 -75 72s33 73 75 73s75 -31 75 -73s-33 -72 -75 -72zM469 486c-13 0 -25 -11 -34 -32c32 -28 52 -67 52 -116c0 -109 -96 -167 -214 -167c-30 0 -59 4 -85 11c-16 -6 -28 -19 -28 -35c0 -17 12 -32 39 -32h183c135 0 191 -54 191 -148
c0 -119 -124 -190 -280 -190c-183 0 -273 53 -273 140c0 43 28 75 81 98c-36 21 -56 54 -56 96c0 51 29 85 71 107c-35 28 -56 68 -56 120c0 109 94 167 213 167c33 0 64 -4 91 -13c28 58 69 86 122 86c49 0 102 -29 102 -117v-17l-87 -12c-2 40 -13 54 -32 54zM273 267
c44 0 79 24 79 71c0 46 -35 70 -79 70s-79 -24 -79 -70c0 -47 35 -71 79 -71zM359 -12h-138c-41 0 -68 -19 -68 -49c0 -39 43 -62 138 -62c84 0 140 30 140 71c0 29 -21 40 -72 40z" />
    <glyph glyph-name="h" unicode="h" horiz-adv-x="590" 
d="M60 0v695h144v-272c32 50 84 82 150 82c116 0 181 -73 181 -196v-309h-145v286c0 66 -29 101 -85 101s-101 -38 -101 -110v-277h-144z" />
    <glyph glyph-name="hbar" unicode="&#x127;" horiz-adv-x="590" 
d="M354 505c116 0 181 -73 181 -196v-309h-145v286c0 66 -29 101 -85 101s-101 -38 -101 -110v-277h-144v550h-60v85h60v60h144v-60h124v-85h-124v-127c32 50 84 82 150 82z" />
    <glyph glyph-name="hcircumflex" unicode="&#x125;" horiz-adv-x="590" 
d="M-34 732l107 145h118l106 -145h-112l-56 66l-55 -66h-108zM60 0v695h144v-272c32 50 84 82 150 82c116 0 181 -73 181 -196v-309h-145v286c0 66 -29 101 -85 101s-101 -38 -101 -110v-277h-144z" />
    <glyph glyph-name="i" unicode="i" horiz-adv-x="264" 
d="M132 550c-45 0 -81 34 -81 79s36 79 81 79c46 0 82 -34 82 -79s-36 -79 -82 -79zM60 0v493h144v-493h-144z" />
    <glyph glyph-name="dotlessi" unicode="&#x131;" horiz-adv-x="264" 
d="M60 0v493h144v-493h-144z" />
    <glyph glyph-name="iacute" unicode="&#xed;" horiz-adv-x="264" 
d="M75 546l85 145h148l-124 -145h-109zM60 0v493h144v-493h-144z" />
    <glyph glyph-name="ibreve" unicode="&#x12d;" horiz-adv-x="264" 
d="M132 543c-92 0 -150 52 -150 145h93c0 -35 22 -56 57 -56s57 21 57 56h93c0 -93 -58 -145 -150 -145zM60 0v493h144v-493h-144z" />
    <glyph glyph-name="icircumflex" unicode="&#xee;" horiz-adv-x="264" 
d="M-34 546l107 145h118l106 -145h-112l-56 66l-55 -66h-108zM60 0v493h144v-493h-144z" />
    <glyph glyph-name="idieresis" unicode="&#xef;" horiz-adv-x="264" 
d="M28 548c-43 0 -74 32 -74 72c0 41 31 71 74 71c42 0 74 -30 74 -71c0 -40 -32 -72 -74 -72zM236 548c-43 0 -74 32 -74 72c0 41 31 71 74 71c42 0 74 -30 74 -71c0 -40 -32 -72 -74 -72zM60 0v493h144v-493h-144z" />
    <glyph glyph-name="i.loclTRK" horiz-adv-x="264" 
d="M132 550c-45 0 -81 34 -81 79s36 79 81 79c46 0 82 -34 82 -79s-36 -79 -82 -79zM60 0v493h144v-493h-144z" />
    <glyph glyph-name="igrave" unicode="&#xec;" horiz-adv-x="264" 
d="M82 546l-124 145h148l85 -145h-109zM60 0v493h144v-493h-144z" />
    <glyph glyph-name="ij" unicode="&#x133;" horiz-adv-x="528" 
d="M132 550c-45 0 -81 34 -81 79s36 79 81 79c46 0 82 -34 82 -79s-36 -79 -82 -79zM396 550c-45 0 -81 34 -81 79s36 79 81 79c46 0 82 -34 82 -79s-36 -79 -82 -79zM60 0v493h144v-493h-144zM315 -223c-50 0 -93 13 -126 35l40 113c17 -18 36 -29 57 -29c22 0 38 11 38 48
v549h144v-558c0 -120 -75 -158 -153 -158z" />
    <glyph glyph-name="imacron" unicode="&#x12b;" horiz-adv-x="264" 
d="M-21 569v99h306v-99h-306zM60 0v493h144v-493h-144z" />
    <glyph glyph-name="iogonek" unicode="&#x12f;" horiz-adv-x="264" 
d="M132 550c-45 0 -81 34 -81 79s36 79 81 79c46 0 82 -34 82 -79s-36 -79 -82 -79zM201 -106l32 -79c-22 -15 -51 -24 -91 -24c-63 0 -120 24 -120 89c0 42 26 85 77 120h-39v493h144v-493c-42 -37 -65 -62 -65 -89c0 -20 12 -29 30 -29c13 0 23 5 32 12z" />
    <glyph glyph-name="itilde" unicode="&#x129;" horiz-adv-x="264" 
d="M-35 551c0 88 41 137 103 137c59 0 76 -42 105 -42c20 0 28 16 29 42h89c-1 -88 -41 -136 -103 -136c-59 0 -77 42 -105 42c-20 0 -28 -17 -29 -43h-89zM60 0v493h144v-493h-144z" />
    <glyph glyph-name="j" unicode="j" horiz-adv-x="264" 
d="M132 550c-45 0 -81 34 -81 79s36 79 81 79c46 0 82 -34 82 -79s-36 -79 -82 -79zM51 -223c-50 0 -93 13 -126 35l40 113c17 -18 36 -29 57 -29c22 0 38 11 38 48v549h144v-558c0 -120 -75 -158 -153 -158z" />
    <glyph glyph-name="uni0237" unicode="&#x237;" horiz-adv-x="264" 
d="M51 -223c-50 0 -93 13 -126 35l40 113c17 -18 36 -29 57 -29c22 0 38 11 38 48v549h144v-558c0 -120 -75 -158 -153 -158z" />
    <glyph glyph-name="jcircumflex" unicode="&#x135;" horiz-adv-x="264" 
d="M-34 546l107 145h118l106 -145h-112l-56 66l-55 -66h-108zM51 -223c-50 0 -93 13 -126 35l40 113c17 -18 36 -29 57 -29c22 0 38 11 38 48v549h144v-558c0 -120 -75 -158 -153 -158z" />
    <glyph glyph-name="k" unicode="k" horiz-adv-x="561" 
d="M391 223c48 -73 75 -100 128 -100c10 0 21 1 31 5l-2 -128c-18 -5 -38 -6 -53 -6c-95 0 -152 38 -215 140l-38 62l-38 -38v-158h-144v695h144v-406l180 204h170l-199 -214z" />
    <glyph glyph-name="uni0137" unicode="&#x137;" horiz-adv-x="561" 
d="M391 223c48 -73 75 -100 128 -100c10 0 21 1 31 5l-2 -128c-18 -5 -38 -6 -53 -6c-95 0 -152 38 -215 140l-38 62l-38 -38v-158h-144v695h144v-406l180 204h170l-199 -214zM182 -233l45 173h124l-62 -173h-107z" />
    <glyph glyph-name="kgreenlandic" unicode="&#x138;" horiz-adv-x="561" 
d="M391 223c47 -73 75 -100 128 -100c10 0 21 1 31 5l-2 -128c-18 -5 -38 -6 -53 -6c-95 0 -153 39 -215 140l-39 64l-37 -37v-161h-144v493h144v-203l179 203h170l-199 -213z" />
    <glyph glyph-name="l" unicode="l" horiz-adv-x="264" 
d="M60 0v695h144v-695h-144z" />
    <glyph glyph-name="lacute" unicode="&#x13a;" horiz-adv-x="264" 
d="M75 732l85 145h148l-124 -145h-109zM60 0v695h144v-695h-144z" />
    <glyph glyph-name="lcaron" unicode="&#x13e;" horiz-adv-x="363" 
d="M60 0v695h144v-695h-144zM247 518l19 177h119l-45 -177h-93z" />
    <glyph glyph-name="uni013C" unicode="&#x13c;" horiz-adv-x="264" 
d="M60 0v695h144v-695h-144zM25 -233l45 173h124l-62 -173h-107z" />
    <glyph glyph-name="ldot" unicode="&#x140;" horiz-adv-x="398" 
d="M60 0v695h144v-695h-144zM330 249c-49 0 -91 39 -91 90c0 52 42 91 91 91c52 0 92 -39 92 -91c0 -51 -40 -90 -92 -90z" />
    <glyph glyph-name="lslash" unicode="&#x142;" horiz-adv-x="264" 
d="M271 457v-91l-67 -29v-337h-144v276l-67 -29v92l67 28v328h144v-266z" />
    <glyph glyph-name="m" unicode="m" horiz-adv-x="906" 
d="M666 505c121 0 184 -73 184 -196v-309h-144v288c0 65 -28 99 -81 99c-55 0 -98 -38 -98 -109v-278h-144v288c0 65 -28 99 -81 99c-55 0 -98 -38 -98 -109v-278h-144v493h136v-70c32 50 84 82 148 82c70 0 122 -24 157 -83c41 61 101 83 165 83z" />
    <glyph glyph-name="n" unicode="n" horiz-adv-x="590" 
d="M60 0v493h136v-70c32 50 84 82 150 82c122 0 189 -73 189 -196v-309h-145v286c0 66 -29 101 -85 101s-101 -38 -101 -110v-277h-144z" />
    <glyph glyph-name="nacute" unicode="&#x144;" horiz-adv-x="590" 
d="M252 546l85 145h148l-124 -145h-109zM60 0v493h136v-70c32 50 84 82 150 82c122 0 189 -73 189 -196v-309h-145v286c0 66 -29 101 -85 101s-101 -38 -101 -110v-277h-144z" />
    <glyph glyph-name="napostrophe" unicode="&#x149;" horiz-adv-x="845" 
d="M124 707c56 0 97 -42 97 -111c0 -75 -40 -141 -94 -193l-67 48c28 25 49 59 53 92c-42 4 -77 35 -77 80c0 51 40 84 88 84zM601 505c122 0 189 -73 189 -196v-309h-145v286c0 66 -29 101 -85 101s-101 -38 -101 -110v-277h-144v493h136v-70c32 50 84 82 150 82z" />
    <glyph glyph-name="ncaron" unicode="&#x148;" horiz-adv-x="590" 
d="M475 691l-107 -145h-118l-106 145h112l56 -66l55 66h108zM60 0v493h136v-70c32 50 84 82 150 82c122 0 189 -73 189 -196v-309h-145v286c0 66 -29 101 -85 101s-101 -38 -101 -110v-277h-144z" />
    <glyph glyph-name="uni0146" unicode="&#x146;" horiz-adv-x="590" 
d="M60 0v493h136v-70c32 50 84 82 150 82c122 0 189 -73 189 -196v-309h-145v286c0 66 -29 101 -85 101s-101 -38 -101 -110v-277h-144zM189 -233l45 173h124l-62 -173h-107z" />
    <glyph glyph-name="eng" unicode="&#x14b;" horiz-adv-x="590" 
d="M380 -224c-51 0 -94 13 -127 35l40 113c17 -18 37 -29 58 -29c23 0 39 12 39 48v343c0 66 -29 101 -85 101s-101 -38 -101 -110v-277h-144v493h136v-70c32 50 84 82 150 82c122 0 189 -73 189 -196v-375c0 -120 -76 -158 -155 -158z" />
    <glyph glyph-name="ntilde" unicode="&#xf1;" horiz-adv-x="590" 
d="M142 551c0 88 41 137 103 137c59 0 76 -42 105 -42c20 0 28 16 29 42h89c-1 -88 -41 -136 -103 -136c-59 0 -77 42 -105 42c-20 0 -28 -17 -29 -43h-89zM60 0v493h136v-70c32 50 84 82 150 82c122 0 189 -73 189 -196v-309h-145v286c0 66 -29 101 -85 101
s-101 -38 -101 -110v-277h-144z" />
    <glyph glyph-name="o" unicode="o" 
d="M292 -12c-155 0 -264 107 -264 258c0 152 109 259 264 259c156 0 265 -107 265 -259c0 -151 -109 -258 -265 -258zM292 100c70 0 115 55 115 146s-45 147 -115 147s-115 -55 -115 -147c0 -91 45 -146 115 -146z" />
    <glyph glyph-name="oacute" unicode="&#xf3;" 
d="M235 546l85 145h148l-124 -145h-109zM292 -12c-155 0 -264 107 -264 258c0 152 109 259 264 259c156 0 265 -107 265 -259c0 -151 -109 -258 -265 -258zM292 100c70 0 115 55 115 146s-45 147 -115 147s-115 -55 -115 -147c0 -91 45 -146 115 -146z" />
    <glyph glyph-name="obreve" unicode="&#x14f;" 
d="M292 543c-92 0 -150 52 -150 145h93c0 -35 22 -56 57 -56s57 21 57 56h93c0 -93 -58 -145 -150 -145zM292 -12c-155 0 -264 107 -264 258c0 152 109 259 264 259c156 0 265 -107 265 -259c0 -151 -109 -258 -265 -258zM292 100c70 0 115 55 115 146s-45 147 -115 147
s-115 -55 -115 -147c0 -91 45 -146 115 -146z" />
    <glyph glyph-name="ocircumflex" unicode="&#xf4;" 
d="M126 546l107 145h118l106 -145h-112l-56 66l-55 -66h-108zM292 -12c-155 0 -264 107 -264 258c0 152 109 259 264 259c156 0 265 -107 265 -259c0 -151 -109 -258 -265 -258zM292 100c70 0 115 55 115 146s-45 147 -115 147s-115 -55 -115 -147c0 -91 45 -146 115 -146z
" />
    <glyph glyph-name="odieresis" unicode="&#xf6;" 
d="M188 548c-43 0 -74 32 -74 72c0 41 31 71 74 71c42 0 74 -30 74 -71c0 -40 -32 -72 -74 -72zM396 548c-43 0 -74 32 -74 72c0 41 31 71 74 71c42 0 74 -30 74 -71c0 -40 -32 -72 -74 -72zM292 -12c-155 0 -264 107 -264 258c0 152 109 259 264 259
c156 0 265 -107 265 -259c0 -151 -109 -258 -265 -258zM292 100c70 0 115 55 115 146s-45 147 -115 147s-115 -55 -115 -147c0 -91 45 -146 115 -146z" />
    <glyph glyph-name="ograve" unicode="&#xf2;" 
d="M242 546l-124 145h148l85 -145h-109zM292 -12c-155 0 -264 107 -264 258c0 152 109 259 264 259c156 0 265 -107 265 -259c0 -151 -109 -258 -265 -258zM292 100c70 0 115 55 115 146s-45 147 -115 147s-115 -55 -115 -147c0 -91 45 -146 115 -146z" />
    <glyph glyph-name="ohungarumlaut" unicode="&#x151;" 
d="M152 546l68 145h137l-107 -145h-98zM330 546l69 145h137l-108 -145h-98zM292 -12c-155 0 -264 107 -264 258c0 152 109 259 264 259c156 0 265 -107 265 -259c0 -151 -109 -258 -265 -258zM292 100c70 0 115 55 115 146s-45 147 -115 147s-115 -55 -115 -147
c0 -91 45 -146 115 -146z" />
    <glyph glyph-name="omacron" unicode="&#x14d;" 
d="M139 569v99h306v-99h-306zM292 -12c-155 0 -264 107 -264 258c0 152 109 259 264 259c156 0 265 -107 265 -259c0 -151 -109 -258 -265 -258zM292 100c70 0 115 55 115 146s-45 147 -115 147s-115 -55 -115 -147c0 -91 45 -146 115 -146z" />
    <glyph glyph-name="oslash" unicode="&#xf8;" horiz-adv-x="587" 
d="M562 493l-66 -74c39 -45 61 -104 61 -173c0 -151 -107 -258 -265 -258c-55 0 -104 13 -144 37l-22 -25h-104l66 75c-38 44 -60 103 -60 171c0 152 107 259 264 259c55 0 104 -13 144 -36l22 24h104zM173 246c0 -24 3 -46 9 -65l175 198c-18 13 -40 20 -65 20
c-74 0 -119 -58 -119 -153zM411 246c0 25 -3 47 -9 66l-176 -198c18 -13 40 -20 66 -20c74 0 119 58 119 152z" />
    <glyph glyph-name="otilde" unicode="&#xf5;" 
d="M125 551c0 88 41 137 103 137c59 0 76 -42 105 -42c20 0 28 16 29 42h89c-1 -88 -41 -136 -103 -136c-59 0 -77 42 -105 42c-20 0 -28 -17 -29 -43h-89zM292 -12c-155 0 -264 107 -264 258c0 152 109 259 264 259c156 0 265 -107 265 -259c0 -151 -109 -258 -265 -258z
M292 100c70 0 115 55 115 146s-45 147 -115 147s-115 -55 -115 -147c0 -91 45 -146 115 -146z" />
    <glyph glyph-name="oe" unicode="&#x153;" horiz-adv-x="935" 
d="M787 181l115 -58c-38 -76 -113 -135 -237 -135c-80 0 -145 26 -190 74c-43 -47 -105 -74 -183 -74c-157 0 -264 106 -264 258s107 259 264 259c79 0 142 -27 185 -74c43 47 105 74 180 74c151 0 241 -101 241 -252c0 -13 0 -30 -1 -39h-352c7 -71 53 -114 122 -114
c55 0 93 29 120 81zM652 398c-56 0 -97 -38 -106 -101h205c-6 64 -37 101 -99 101zM292 100c72 0 115 55 115 146s-43 147 -115 147s-115 -56 -115 -147s43 -146 115 -146z" />
    <glyph glyph-name="p" unicode="p" horiz-adv-x="614" 
d="M60 -210v703h136v-79c28 54 84 91 160 91c131 0 230 -108 230 -259s-98 -258 -227 -258c-73 0 -126 29 -155 81v-279h-144zM321 100c72 0 116 55 116 146s-44 147 -116 147c-65 0 -117 -63 -117 -147c0 -83 52 -146 117 -146z" />
    <glyph glyph-name="thorn" unicode="&#xfe;" horiz-adv-x="614" 
d="M60 -210v905h144v-278c31 56 82 88 155 88c129 0 227 -108 227 -259s-98 -258 -227 -258c-73 0 -124 31 -155 87v-285h-144zM321 100c72 0 116 55 116 146c0 92 -44 147 -116 147c-65 0 -117 -63 -117 -147c0 -83 52 -146 117 -146z" />
    <glyph glyph-name="q" unicode="q" horiz-adv-x="614" 
d="M409 -210v285c-30 -56 -81 -87 -154 -87c-129 0 -227 108 -227 258c0 151 98 259 230 259c76 0 132 -37 160 -91v79h136v-703h-145zM292 101c66 0 117 63 117 145c0 83 -51 146 -117 146c-71 0 -115 -55 -115 -146c0 -90 44 -145 115 -145z" />
    <glyph glyph-name="r" unicode="r" horiz-adv-x="488" 
d="M60 0v493h136v-89c26 61 73 97 142 97c80 0 139 -55 139 -149c0 -25 -4 -53 -14 -84l-131 14c4 15 5 28 5 40c0 43 -17 64 -51 64c-45 0 -82 -49 -82 -138v-248h-144z" />
    <glyph glyph-name="racute" unicode="&#x155;" horiz-adv-x="488" 
d="M209 546l85 145h148l-124 -145h-109zM60 0v493h136v-89c26 61 73 97 142 97c80 0 139 -55 139 -149c0 -25 -4 -53 -14 -84l-131 14c4 15 5 28 5 40c0 43 -17 64 -51 64c-45 0 -82 -49 -82 -138v-248h-144z" />
    <glyph glyph-name="rcaron" unicode="&#x159;" horiz-adv-x="488" 
d="M432 691l-107 -145h-118l-106 145h112l56 -66l55 66h108zM60 0v493h136v-89c26 61 73 97 142 97c80 0 139 -55 139 -149c0 -25 -4 -53 -14 -84l-131 14c4 15 5 28 5 40c0 43 -17 64 -51 64c-45 0 -82 -49 -82 -138v-248h-144z" />
    <glyph glyph-name="uni0157" unicode="&#x157;" horiz-adv-x="488" 
d="M60 0v493h136v-89c26 61 73 97 142 97c80 0 139 -55 139 -149c0 -25 -4 -53 -14 -84l-131 14c4 15 5 28 5 40c0 43 -17 64 -51 64c-45 0 -82 -49 -82 -138v-248h-144zM25 -233l45 173h124l-62 -173h-107z" />
    <glyph glyph-name="s" unicode="s" horiz-adv-x="521" 
d="M265 -12c-141 0 -242 62 -243 173l136 16c7 -67 52 -88 111 -88c44 0 77 15 77 51c0 26 -14 38 -56 45l-56 10c-96 17 -190 47 -190 162c0 90 84 148 223 148c134 0 207 -63 221 -144l-128 -31c-9 37 -35 74 -95 74c-48 0 -77 -18 -77 -47s19 -41 66 -49l56 -9
c93 -14 181 -45 181 -155c0 -101 -97 -156 -226 -156z" />
    <glyph glyph-name="sacute" unicode="&#x15b;" horiz-adv-x="521" 
d="M210 546l85 145h148l-124 -145h-109zM265 -12c-141 0 -242 62 -243 173l136 16c7 -67 52 -88 111 -88c44 0 77 15 77 51c0 26 -14 38 -56 45l-56 10c-96 17 -190 47 -190 162c0 90 84 148 223 148c134 0 207 -63 221 -144l-128 -31c-9 37 -35 74 -95 74
c-48 0 -77 -18 -77 -47s19 -41 66 -49l56 -9c93 -14 181 -45 181 -155c0 -101 -97 -156 -226 -156z" />
    <glyph glyph-name="scaron" unicode="&#x161;" horiz-adv-x="521" 
d="M433 691l-107 -145h-118l-106 145h112l56 -66l55 66h108zM265 -12c-141 0 -242 62 -243 173l136 16c7 -67 52 -88 111 -88c44 0 77 15 77 51c0 26 -14 38 -56 45l-56 10c-96 17 -190 47 -190 162c0 90 84 148 223 148c134 0 207 -63 221 -144l-128 -31
c-9 37 -35 74 -95 74c-48 0 -77 -18 -77 -47s19 -41 66 -49l56 -9c93 -14 181 -45 181 -155c0 -101 -97 -156 -226 -156z" />
    <glyph glyph-name="scedilla" unicode="&#x15f;" horiz-adv-x="521" 
d="M491 144c0 -86 -70 -139 -171 -152l-40 -148h-113l37 148c-108 16 -181 75 -182 169l136 16c7 -67 52 -88 111 -88c44 0 77 15 77 51c0 26 -14 38 -56 45l-56 10c-96 17 -190 47 -190 162c0 90 84 148 223 148c134 0 207 -63 221 -144l-128 -31c-9 37 -35 74 -95 74
c-48 0 -77 -18 -77 -47s19 -41 66 -49l56 -9c93 -14 181 -45 181 -155z" />
    <glyph glyph-name="scircumflex" unicode="&#x15d;" horiz-adv-x="521" 
d="M101 546l107 145h118l106 -145h-112l-56 66l-55 -66h-108zM265 -12c-141 0 -242 62 -243 173l136 16c7 -67 52 -88 111 -88c44 0 77 15 77 51c0 26 -14 38 -56 45l-56 10c-96 17 -190 47 -190 162c0 90 84 148 223 148c134 0 207 -63 221 -144l-128 -31
c-9 37 -35 74 -95 74c-48 0 -77 -18 -77 -47s19 -41 66 -49l56 -9c93 -14 181 -45 181 -155c0 -101 -97 -156 -226 -156z" />
    <glyph glyph-name="uni0219" unicode="&#x219;" horiz-adv-x="521" 
d="M265 -12c-141 0 -242 62 -243 173l136 16c7 -67 52 -88 111 -88c44 0 77 15 77 51c0 26 -14 38 -56 45l-56 10c-96 17 -190 47 -190 162c0 90 84 148 223 148c134 0 207 -63 221 -144l-128 -31c-9 37 -35 74 -95 74c-48 0 -77 -18 -77 -47s19 -41 66 -49l56 -9
c93 -14 181 -45 181 -155c0 -101 -97 -156 -226 -156zM159 -233l45 173h124l-62 -173h-107z" />
    <glyph glyph-name="germandbls" unicode="&#xdf;" horiz-adv-x="677" 
d="M452 -12c-95 0 -168 28 -205 83l87 90c20 -42 62 -65 110 -65c40 0 70 18 70 53c0 28 -19 43 -50 54l-36 12c-77 28 -139 45 -139 132c0 82 111 111 111 187c0 48 -41 65 -90 65c-68 0 -105 -41 -105 -114v-485h-145v497c0 133 113 210 258 210c135 0 237 -44 237 -151
c0 -99 -133 -134 -133 -186c0 -32 26 -36 71 -51l35 -12c72 -24 132 -60 132 -155c0 -109 -90 -164 -208 -164z" />
    <glyph glyph-name="t" unicode="t" horiz-adv-x="440" 
d="M245 -12c-108 0 -166 52 -166 167v220h-69v118h76l36 142h101v-142h192v-118h-192v-209c0 -34 13 -53 40 -53s47 23 69 75l108 -59c-46 -90 -106 -141 -195 -141z" />
    <glyph glyph-name="tbar" unicode="&#x167;" horiz-adv-x="440" 
d="M330 174l108 -58c-42 -84 -108 -128 -193 -128c-108 0 -166 52 -166 166v80h-70v85h70v69h-69v105h76l36 142h101v-142h192v-105h-192v-69h162v-85h-162v-71c0 -34 13 -53 40 -53c26 0 48 19 67 64z" />
    <glyph glyph-name="tcaron" unicode="&#x165;" horiz-adv-x="440" 
d="M280 541l19 177h119l-45 -177h-93zM245 -12c-108 0 -166 52 -166 167v220h-69v118h76l36 142h101v-142h192v-118h-192v-209c0 -34 13 -53 40 -53s47 23 69 75l108 -59c-46 -90 -106 -141 -195 -141z" />
    <glyph glyph-name="uni0163" unicode="&#x163;" horiz-adv-x="440" 
d="M245 -12c-108 0 -166 52 -166 167v220h-69v118h76l36 142h101v-142h192v-118h-192v-209c0 -34 13 -53 40 -53s47 23 69 75l108 -59c-46 -90 -106 -141 -195 -141zM124 -233l45 173h124l-62 -173h-107z" />
    <glyph glyph-name="uni021B" unicode="&#x21b;" horiz-adv-x="440" 
d="M245 -12c-108 0 -166 52 -166 167v220h-69v118h76l36 142h101v-142h192v-118h-192v-209c0 -34 13 -53 40 -53s47 23 69 75l108 -59c-46 -90 -106 -141 -195 -141zM124 -233l45 173h124l-62 -173h-107z" />
    <glyph glyph-name="u" unicode="u" 
d="M240 -12c-119 0 -185 73 -185 197v308h145v-288c0 -65 28 -99 81 -99c55 0 98 37 98 107v280h145v-493h-137v70c-32 -50 -83 -82 -147 -82z" />
    <glyph glyph-name="uacute" unicode="&#xfa;" 
d="M234 546l85 145h148l-124 -145h-109zM240 -12c-119 0 -185 73 -185 197v308h145v-288c0 -65 28 -99 81 -99c55 0 98 37 98 107v280h145v-493h-137v70c-32 -50 -83 -82 -147 -82z" />
    <glyph glyph-name="ubreve" unicode="&#x16d;" 
d="M291 543c-92 0 -150 52 -150 145h93c0 -35 22 -56 57 -56s57 21 57 56h93c0 -93 -58 -145 -150 -145zM240 -12c-119 0 -185 73 -185 197v308h145v-288c0 -65 28 -99 81 -99c55 0 98 37 98 107v280h145v-493h-137v70c-32 -50 -83 -82 -147 -82z" />
    <glyph glyph-name="ucircumflex" unicode="&#xfb;" 
d="M125 546l107 145h118l106 -145h-112l-56 66l-55 -66h-108zM240 -12c-119 0 -185 73 -185 197v308h145v-288c0 -65 28 -99 81 -99c55 0 98 37 98 107v280h145v-493h-137v70c-32 -50 -83 -82 -147 -82z" />
    <glyph glyph-name="udieresis" unicode="&#xfc;" 
d="M187 548c-43 0 -74 32 -74 72c0 41 31 71 74 71c42 0 74 -30 74 -71c0 -40 -32 -72 -74 -72zM395 548c-43 0 -74 32 -74 72c0 41 31 71 74 71c42 0 74 -30 74 -71c0 -40 -32 -72 -74 -72zM240 -12c-119 0 -185 73 -185 197v308h145v-288c0 -65 28 -99 81 -99
c55 0 98 37 98 107v280h145v-493h-137v70c-32 -50 -83 -82 -147 -82z" />
    <glyph glyph-name="ugrave" unicode="&#xf9;" 
d="M241 546l-124 145h148l85 -145h-109zM240 -12c-119 0 -185 73 -185 197v308h145v-288c0 -65 28 -99 81 -99c55 0 98 37 98 107v280h145v-493h-137v70c-32 -50 -83 -82 -147 -82z" />
    <glyph glyph-name="uhungarumlaut" unicode="&#x171;" 
d="M151 546l68 145h137l-107 -145h-98zM329 546l69 145h137l-108 -145h-98zM240 -12c-119 0 -185 73 -185 197v308h145v-288c0 -65 28 -99 81 -99c55 0 98 37 98 107v280h145v-493h-137v70c-32 -50 -83 -82 -147 -82z" />
    <glyph glyph-name="umacron" unicode="&#x16b;" 
d="M138 569v99h306v-99h-306zM240 -12c-119 0 -185 73 -185 197v308h145v-288c0 -65 28 -99 81 -99c55 0 98 37 98 107v280h145v-493h-137v70c-32 -50 -83 -82 -147 -82z" />
    <glyph glyph-name="uogonek" unicode="&#x173;" 
d="M509 -106l32 -79c-21 -15 -51 -24 -91 -24c-63 0 -120 24 -120 89c0 42 28 85 86 120h-29v70c-32 -50 -83 -82 -147 -82c-119 0 -185 73 -185 197v308h145v-288c0 -65 28 -99 81 -99c55 0 98 37 98 107v280h145v-493c-53 -37 -77 -62 -77 -89c0 -20 12 -29 30 -29
c13 0 23 5 32 12z" />
    <glyph glyph-name="uring" unicode="&#x16f;" 
d="M292 502c-72 0 -122 46 -122 109c0 64 50 109 122 109c71 0 122 -45 122 -109c0 -63 -51 -109 -122 -109zM292 573c24 0 40 16 40 38c0 23 -16 38 -40 38s-41 -15 -41 -38c0 -22 17 -38 41 -38zM240 -12c-119 0 -185 73 -185 197v308h145v-288c0 -65 28 -99 81 -99
c55 0 98 37 98 107v280h145v-493h-137v70c-32 -50 -83 -82 -147 -82z" />
    <glyph glyph-name="utilde" unicode="&#x169;" 
d="M124 551c0 88 41 137 103 137c59 0 76 -42 105 -42c20 0 28 16 29 42h89c-1 -88 -41 -136 -103 -136c-59 0 -77 42 -105 42c-20 0 -28 -17 -29 -43h-89zM240 -12c-119 0 -185 73 -185 197v308h145v-288c0 -65 28 -99 81 -99c55 0 98 37 98 107v280h145v-493h-137v70
c-32 -50 -83 -82 -147 -82z" />
    <glyph glyph-name="v" unicode="v" horiz-adv-x="520" 
d="M179 0l-184 493h153l113 -340l111 340h153l-183 -493h-163z" />
    <glyph glyph-name="w" unicode="w" horiz-adv-x="785" 
d="M158 0l-151 493h149l81 -328l83 328h145l85 -328l79 328h149l-151 -493h-149l-86 320l-85 -320h-149z" />
    <glyph glyph-name="wacute" unicode="&#x1e83;" horiz-adv-x="785" 
d="M339 546l85 145h148l-124 -145h-109zM158 0l-151 493h149l81 -328l83 328h145l85 -328l79 328h149l-151 -493h-149l-86 320l-85 -320h-149z" />
    <glyph glyph-name="wcircumflex" unicode="&#x175;" horiz-adv-x="785" 
d="M230 546l107 145h118l106 -145h-112l-56 66l-55 -66h-108zM158 0l-151 493h149l81 -328l83 328h145l85 -328l79 328h149l-151 -493h-149l-86 320l-85 -320h-149z" />
    <glyph glyph-name="wdieresis" unicode="&#x1e85;" horiz-adv-x="785" 
d="M292 548c-43 0 -74 32 -74 72c0 41 31 71 74 71c42 0 74 -30 74 -71c0 -40 -32 -72 -74 -72zM500 548c-43 0 -74 32 -74 72c0 41 31 71 74 71c42 0 74 -30 74 -71c0 -40 -32 -72 -74 -72zM158 0l-151 493h149l81 -328l83 328h145l85 -328l79 328h149l-151 -493h-149
l-86 320l-85 -320h-149z" />
    <glyph glyph-name="wgrave" unicode="&#x1e81;" horiz-adv-x="785" 
d="M346 546l-124 145h148l85 -145h-109zM158 0l-151 493h149l81 -328l83 328h145l85 -328l79 328h149l-151 -493h-149l-86 320l-85 -320h-149z" />
    <glyph glyph-name="x" unicode="x" horiz-adv-x="539" 
d="M1 0l183 253l-169 240h166l91 -140l93 140h159l-169 -240l183 -253h-166l-105 153l-107 -153h-159z" />
    <glyph glyph-name="y" unicode="y" horiz-adv-x="520" 
d="M143 -223c-57 0 -107 20 -143 77l89 84c16 -30 35 -42 56 -42c31 0 48 25 65 74l11 30h-48l-178 493h153l113 -346l111 346h153l-211 -571c-42 -112 -95 -145 -171 -145z" />
    <glyph glyph-name="yacute" unicode="&#xfd;" horiz-adv-x="520" 
d="M204 546l85 145h148l-124 -145h-109zM143 -223c-57 0 -107 20 -143 77l89 84c16 -30 35 -42 56 -42c31 0 48 25 65 74l11 30h-48l-178 493h153l113 -346l111 346h153l-211 -571c-42 -112 -95 -145 -171 -145z" />
    <glyph glyph-name="ycircumflex" unicode="&#x177;" horiz-adv-x="520" 
d="M95 546l107 145h118l106 -145h-112l-56 66l-55 -66h-108zM143 -223c-57 0 -107 20 -143 77l89 84c16 -30 35 -42 56 -42c31 0 48 25 65 74l11 30h-48l-178 493h153l113 -346l111 346h153l-211 -571c-42 -112 -95 -145 -171 -145z" />
    <glyph glyph-name="ydieresis" unicode="&#xff;" horiz-adv-x="520" 
d="M157 548c-43 0 -74 32 -74 72c0 41 31 71 74 71c42 0 74 -30 74 -71c0 -40 -32 -72 -74 -72zM365 548c-43 0 -74 32 -74 72c0 41 31 71 74 71c42 0 74 -30 74 -71c0 -40 -32 -72 -74 -72zM143 -223c-57 0 -107 20 -143 77l89 84c16 -30 35 -42 56 -42c31 0 48 25 65 74
l11 30h-48l-178 493h153l113 -346l111 346h153l-211 -571c-42 -112 -95 -145 -171 -145z" />
    <glyph glyph-name="ygrave" unicode="&#x1ef3;" horiz-adv-x="520" 
d="M211 546l-124 145h148l85 -145h-109zM143 -223c-57 0 -107 20 -143 77l89 84c16 -30 35 -42 56 -42c31 0 48 25 65 74l11 30h-48l-178 493h153l113 -346l111 346h153l-211 -571c-42 -112 -95 -145 -171 -145z" />
    <glyph glyph-name="z" unicode="z" horiz-adv-x="477" 
d="M20 0v98l244 276h-233v118h417v-98l-246 -276h256v-118h-438z" />
    <glyph glyph-name="zacute" unicode="&#x17a;" horiz-adv-x="477" 
d="M182 546l85 145h148l-124 -145h-109zM20 0v98l244 276h-233v118h417v-98l-246 -276h256v-118h-438z" />
    <glyph glyph-name="zcaron" unicode="&#x17e;" horiz-adv-x="477" 
d="M405 691l-107 -145h-118l-106 145h112l56 -66l55 66h108zM20 0v98l244 276h-233v118h417v-98l-246 -276h256v-118h-438z" />
    <glyph glyph-name="zdotaccent" unicode="&#x17c;" horiz-adv-x="477" 
d="M239 547c-42 0 -75 30 -75 72s33 73 75 73s75 -31 75 -73s-33 -72 -75 -72zM20 0v98l244 276h-233v118h417v-98l-246 -276h256v-118h-438z" />
    <glyph glyph-name="f.short" horiz-adv-x="324" 
d="M85 0v375h-77v118h71c-12 29 -16 53 -16 78c0 84 78 136 169 136c56 0 100 -17 119 -37l-54 -92c-13 15 -29 24 -53 24c-26 0 -49 -17 -49 -49c0 -19 7 -39 23 -60h116v-118h-104v-375h-145z" />
    <glyph glyph-name="a.ss01" horiz-adv-x="613" 
d="M258 -12c-132 0 -231 108 -231 258c0 151 99 259 228 259c78 0 133 -38 162 -91v79h137v-493h-137v84c-29 -57 -83 -96 -159 -96zM292 100c66 0 117 63 117 146c0 84 -51 147 -117 147c-72 0 -116 -55 -116 -147c0 -91 44 -146 116 -146z" />
    <glyph glyph-name="aacute.ss01" horiz-adv-x="613" 
d="M244 546l85 145h148l-124 -145h-109zM258 -12c-132 0 -231 108 -231 258c0 151 99 259 228 259c78 0 133 -38 162 -91v79h137v-493h-137v84c-29 -57 -83 -96 -159 -96zM292 100c66 0 117 63 117 146c0 84 -51 147 -117 147c-72 0 -116 -55 -116 -147
c0 -91 44 -146 116 -146z" />
    <glyph glyph-name="abreve.ss01" horiz-adv-x="613" 
d="M301 543c-92 0 -150 52 -150 145h93c0 -35 22 -56 57 -56s57 21 57 56h93c0 -93 -58 -145 -150 -145zM258 -12c-132 0 -231 108 -231 258c0 151 99 259 228 259c78 0 133 -38 162 -91v79h137v-493h-137v84c-29 -57 -83 -96 -159 -96zM292 100c66 0 117 63 117 146
c0 84 -51 147 -117 147c-72 0 -116 -55 -116 -147c0 -91 44 -146 116 -146z" />
    <glyph glyph-name="acircumflex.ss01" horiz-adv-x="613" 
d="M135 546l107 145h118l106 -145h-112l-56 66l-55 -66h-108zM258 -12c-132 0 -231 108 -231 258c0 151 99 259 228 259c78 0 133 -38 162 -91v79h137v-493h-137v84c-29 -57 -83 -96 -159 -96zM292 100c66 0 117 63 117 146c0 84 -51 147 -117 147c-72 0 -116 -55 -116 -147
c0 -91 44 -146 116 -146z" />
    <glyph glyph-name="adieresis.ss01" horiz-adv-x="613" 
d="M197 548c-43 0 -74 32 -74 72c0 41 31 71 74 71c42 0 74 -30 74 -71c0 -40 -32 -72 -74 -72zM405 548c-43 0 -74 32 -74 72c0 41 31 71 74 71c42 0 74 -30 74 -71c0 -40 -32 -72 -74 -72zM258 -12c-132 0 -231 108 -231 258c0 151 99 259 228 259c78 0 133 -38 162 -91
v79h137v-493h-137v84c-29 -57 -83 -96 -159 -96zM292 100c66 0 117 63 117 146c0 84 -51 147 -117 147c-72 0 -116 -55 -116 -147c0 -91 44 -146 116 -146z" />
    <glyph glyph-name="agrave.ss01" horiz-adv-x="613" 
d="M251 546l-124 145h148l85 -145h-109zM258 -12c-132 0 -231 108 -231 258c0 151 99 259 228 259c78 0 133 -38 162 -91v79h137v-493h-137v84c-29 -57 -83 -96 -159 -96zM292 100c66 0 117 63 117 146c0 84 -51 147 -117 147c-72 0 -116 -55 -116 -147
c0 -91 44 -146 116 -146z" />
    <glyph glyph-name="amacron.ss01" horiz-adv-x="613" 
d="M148 569v99h306v-99h-306zM258 -12c-132 0 -231 108 -231 258c0 151 99 259 228 259c78 0 133 -38 162 -91v79h137v-493h-137v84c-29 -57 -83 -96 -159 -96zM292 100c66 0 117 63 117 146c0 84 -51 147 -117 147c-72 0 -116 -55 -116 -147c0 -91 44 -146 116 -146z" />
    <glyph glyph-name="aogonek.ss01" horiz-adv-x="613" 
d="M538 -106l32 -79c-21 -15 -51 -24 -91 -24c-63 0 -120 24 -120 89c0 42 28 85 86 120h-28v84c-29 -57 -83 -96 -159 -96c-132 0 -231 108 -231 258c0 151 99 259 228 259c78 0 133 -38 162 -91v79h137v-493h-1c-53 -37 -77 -62 -77 -89c0 -20 12 -29 30 -29
c13 0 23 5 32 12zM292 100c66 0 117 63 117 146c0 84 -51 147 -117 147c-72 0 -116 -55 -116 -147c0 -91 44 -146 116 -146z" />
    <glyph glyph-name="aring.ss01" horiz-adv-x="613" 
d="M417 493h137v-493h-137v84c-29 -57 -83 -96 -159 -96c-132 0 -231 108 -231 258c0 124 67 219 163 249c-20 19 -31 45 -31 75c0 64 51 109 122 109c72 0 123 -45 123 -109c0 -39 -19 -71 -51 -90c28 -16 49 -39 64 -66v79zM281 608c-24 0 -40 -15 -40 -38
c0 -22 16 -38 40 -38s40 16 40 38c0 23 -16 38 -40 38zM292 100c66 0 117 63 117 146c0 84 -51 147 -117 147c-72 0 -116 -55 -116 -147c0 -91 44 -146 116 -146z" />
    <glyph glyph-name="atilde.ss01" horiz-adv-x="613" 
d="M134 551c0 88 41 137 103 137c59 0 76 -42 105 -42c20 0 28 16 29 42h89c-1 -88 -41 -136 -103 -136c-59 0 -77 42 -105 42c-20 0 -28 -17 -29 -43h-89zM258 -12c-132 0 -231 108 -231 258c0 151 99 259 228 259c78 0 133 -38 162 -91v79h137v-493h-137v84
c-29 -57 -83 -96 -159 -96zM292 100c66 0 117 63 117 146c0 84 -51 147 -117 147c-72 0 -116 -55 -116 -147c0 -91 44 -146 116 -146z" />
    <glyph glyph-name="g.ss01" horiz-adv-x="613" 
d="M276 -223c-125 0 -214 51 -249 141l116 61c18 -55 66 -89 133 -89c94 0 141 43 141 141v62c-29 -57 -83 -97 -159 -97c-132 0 -231 106 -231 254c0 149 99 255 229 255c76 0 130 -32 161 -90v78h137v-468c0 -156 -100 -248 -278 -248zM292 108c66 0 117 61 117 142
c0 82 -51 143 -117 143c-72 0 -116 -53 -116 -143c0 -89 44 -142 116 -142z" />
    <glyph glyph-name="gbreve.ss01" horiz-adv-x="613" 
d="M301 543c-92 0 -150 52 -150 145h93c0 -35 22 -56 57 -56s57 21 57 56h93c0 -93 -58 -145 -150 -145zM276 -223c-125 0 -214 51 -249 141l116 61c18 -55 66 -89 133 -89c94 0 141 43 141 141v62c-29 -57 -83 -97 -159 -97c-132 0 -231 106 -231 254c0 149 99 255 229 255
c76 0 130 -32 161 -90v78h137v-468c0 -156 -100 -248 -278 -248zM292 108c66 0 117 61 117 142c0 82 -51 143 -117 143c-72 0 -116 -53 -116 -143c0 -89 44 -142 116 -142z" />
    <glyph glyph-name="gcircumflex.ss01" horiz-adv-x="613" 
d="M135 546l107 145h118l106 -145h-112l-56 66l-55 -66h-108zM276 -223c-125 0 -214 51 -249 141l116 61c18 -55 66 -89 133 -89c94 0 141 43 141 141v62c-29 -57 -83 -97 -159 -97c-132 0 -231 106 -231 254c0 149 99 255 229 255c76 0 130 -32 161 -90v78h137v-468
c0 -156 -100 -248 -278 -248zM292 108c66 0 117 61 117 142c0 82 -51 143 -117 143c-72 0 -116 -53 -116 -143c0 -89 44 -142 116 -142z" />
    <glyph glyph-name="uni0123.ss01" horiz-adv-x="613" 
d="M406 719l-45 -173h-124l63 173h106zM276 -223c-125 0 -214 51 -249 141l116 61c18 -55 66 -89 133 -89c94 0 141 43 141 141v62c-29 -57 -83 -97 -159 -97c-132 0 -231 106 -231 254c0 149 99 255 229 255c76 0 130 -32 161 -90v78h137v-468c0 -156 -100 -248 -278 -248z
M292 108c66 0 117 61 117 142c0 82 -51 143 -117 143c-72 0 -116 -53 -116 -143c0 -89 44 -142 116 -142z" />
    <glyph glyph-name="gdotaccent.ss01" horiz-adv-x="613" 
d="M301 547c-42 0 -75 30 -75 72s33 73 75 73s75 -31 75 -73s-33 -72 -75 -72zM276 -223c-125 0 -214 51 -249 141l116 61c18 -55 66 -89 133 -89c94 0 141 43 141 141v62c-29 -57 -83 -97 -159 -97c-132 0 -231 106 -231 254c0 149 99 255 229 255c76 0 130 -32 161 -90v78
h137v-468c0 -156 -100 -248 -278 -248zM292 108c66 0 117 61 117 142c0 82 -51 143 -117 143c-72 0 -116 -53 -116 -143c0 -89 44 -142 116 -142z" />
    <glyph glyph-name="y.ss01" 
d="M270 -223c-119 0 -201 47 -240 127l110 69c21 -54 62 -84 125 -84c79 0 122 40 122 148v37c-32 -55 -83 -83 -147 -83c-119 0 -185 73 -185 196v306h145v-286c0 -64 28 -98 81 -98c55 0 98 38 98 107v277h145v-471c0 -169 -97 -245 -254 -245z" />
    <glyph glyph-name="yacute.ss01" 
d="M234 546l85 145h148l-124 -145h-109zM270 -223c-119 0 -201 47 -240 127l110 69c21 -54 62 -84 125 -84c79 0 122 40 122 148v37c-32 -55 -83 -83 -147 -83c-119 0 -185 73 -185 196v306h145v-286c0 -64 28 -98 81 -98c55 0 98 38 98 107v277h145v-471
c0 -169 -97 -245 -254 -245z" />
    <glyph glyph-name="ycircumflex.ss01" 
d="M125 546l107 145h118l106 -145h-112l-56 66l-55 -66h-108zM270 -223c-119 0 -201 47 -240 127l110 69c21 -54 62 -84 125 -84c79 0 122 40 122 148v37c-32 -55 -83 -83 -147 -83c-119 0 -185 73 -185 196v306h145v-286c0 -64 28 -98 81 -98c55 0 98 38 98 107v277h145
v-471c0 -169 -97 -245 -254 -245z" />
    <glyph glyph-name="ydieresis.ss01" 
d="M187 548c-43 0 -74 32 -74 72c0 41 31 71 74 71c42 0 74 -30 74 -71c0 -40 -32 -72 -74 -72zM395 548c-43 0 -74 32 -74 72c0 41 31 71 74 71c42 0 74 -30 74 -71c0 -40 -32 -72 -74 -72zM270 -223c-119 0 -201 47 -240 127l110 69c21 -54 62 -84 125 -84
c79 0 122 40 122 148v37c-32 -55 -83 -83 -147 -83c-119 0 -185 73 -185 196v306h145v-286c0 -64 28 -98 81 -98c55 0 98 38 98 107v277h145v-471c0 -169 -97 -245 -254 -245z" />
    <glyph glyph-name="ygrave.ss01" 
d="M241 546l-124 145h148l85 -145h-109zM270 -223c-119 0 -201 47 -240 127l110 69c21 -54 62 -84 125 -84c79 0 122 40 122 148v37c-32 -55 -83 -83 -147 -83c-119 0 -185 73 -185 196v306h145v-286c0 -64 28 -98 81 -98c55 0 98 38 98 107v277h145v-471
c0 -169 -97 -245 -254 -245z" />
    <glyph glyph-name="f.ss02" horiz-adv-x="348" 
d="M85 0v375h-77v118h71v61c0 93 64 153 167 153c62 0 109 -17 136 -40l-58 -102c-16 18 -40 30 -61 30c-29 0 -45 -19 -45 -48v-54h122v-118h-110v-375h-145z" />
    <glyph glyph-name="r.ss02" horiz-adv-x="400" 
d="M60 0v493h136v-93c26 63 76 101 140 101c20 0 34 -1 54 -8v-139c-26 10 -50 12 -70 12c-67 0 -116 -34 -116 -118v-248h-144z" />
    <glyph glyph-name="racute.ss02" horiz-adv-x="400" 
d="M184 546l85 145h148l-124 -145h-109zM60 0v493h136v-93c26 63 76 101 140 101c20 0 34 -1 54 -8v-139c-26 10 -50 12 -70 12c-67 0 -116 -34 -116 -118v-248h-144z" />
    <glyph glyph-name="rcaron.ss02" horiz-adv-x="400" 
d="M407 691l-107 -145h-118l-106 145h112l56 -66l55 66h108zM60 0v493h136v-93c26 63 76 101 140 101c20 0 34 -1 54 -8v-139c-26 10 -50 12 -70 12c-67 0 -116 -34 -116 -118v-248h-144z" />
    <glyph glyph-name="uni0157.ss02" horiz-adv-x="400" 
d="M60 0v493h136v-93c26 63 76 101 140 101c20 0 34 -1 54 -8v-139c-26 10 -50 12 -70 12c-67 0 -116 -34 -116 -118v-248h-144zM25 -233l45 173h124l-62 -173h-107z" />
    <glyph glyph-name="f.short.ss02" horiz-adv-x="330" 
d="M85 0v375h-77v118h71v61c0 93 66 153 170 153c44 0 74 -6 99 -18l-26 -108c-20 12 -32 15 -51 15c-34 0 -53 -24 -53 -54v-49h114v-118h-102v-375h-145z" />
    <glyph glyph-name="f_f.ss02" horiz-adv-x="653" 
d="M523 547v-54h122v-118h-110v-375h-145v375h-160v-375h-145v375h-77v118h71v61c0 93 66 153 170 153c44 0 74 -6 99 -18l-26 -108c-20 12 -32 15 -51 15c-34 0 -53 -24 -53 -54v-49h166v61c0 93 64 153 167 153c62 0 109 -17 136 -40l-58 -102c-16 18 -40 30 -61 30
c-29 0 -45 -19 -45 -48z" />
    <glyph glyph-name="f_f_i.ss02" horiz-adv-x="899" 
d="M767 550c-45 0 -81 34 -81 79s36 79 81 79c46 0 82 -34 82 -79s-36 -79 -82 -79zM576 596c-34 0 -53 -24 -53 -54v-49h114v-118h-102v-375h-145v375h-160v-375h-145v375h-77v118h71v61c0 93 66 153 170 153c44 0 74 -6 99 -18l-26 -108c-20 12 -32 15 -51 15
c-34 0 -53 -24 -53 -54v-49h166v61c0 93 66 153 170 153c44 0 74 -6 99 -18l-26 -108c-20 12 -32 15 -51 15zM695 0v493h144v-493h-144z" />
    <glyph glyph-name="f_f_l.ss02" horiz-adv-x="899" 
d="M576 596c-34 0 -53 -24 -53 -54v-49h114v-118h-102v-375h-145v375h-160v-375h-145v375h-77v118h71v61c0 93 66 153 170 153c44 0 74 -6 99 -18l-26 -108c-20 12 -32 15 -51 15c-34 0 -53 -24 -53 -54v-49h166v61c0 93 66 153 170 153c44 0 74 -6 99 -18l-26 -108
c-20 12 -32 15 -51 15zM695 695h144v-695h-144v695z" />
    <glyph glyph-name="fi.ss02" horiz-adv-x="594" 
d="M462 550c-45 0 -81 34 -81 79s36 79 81 79c46 0 82 -34 82 -79s-36 -79 -82 -79zM85 0v375h-77v118h71v61c0 93 66 153 170 153c44 0 74 -6 99 -18l-26 -108c-20 12 -32 15 -51 15c-34 0 -53 -24 -53 -54v-49h114v-118h-102v-375h-145zM390 0v493h144v-493h-144z" />
    <glyph glyph-name="fl.ss02" horiz-adv-x="594" 
d="M85 0v375h-77v118h71v61c0 93 66 153 170 153c44 0 74 -6 99 -18l-26 -108c-20 12 -32 15 -51 15c-34 0 -53 -24 -53 -54v-49h114v-118h-102v-375h-145zM390 0v695h144v-695h-144z" />
    <glyph glyph-name="ordfeminine" unicode="&#xaa;" horiz-adv-x="439" 
d="M172 340c-85 0 -140 41 -140 111c0 61 57 110 144 110c43 0 75 -16 96 -34v36c0 40 -21 62 -63 62c-35 0 -60 -17 -70 -52l-103 16c21 72 83 120 181 120c102 0 167 -49 167 -153v-207h-106v42c-25 -32 -67 -51 -106 -51zM199 410c30 0 54 18 73 43v8
c-17 16 -43 32 -73 32c-33 0 -55 -18 -55 -41c0 -25 22 -42 55 -42z" />
    <glyph glyph-name="ordmasculine" unicode="&#xba;" horiz-adv-x="442" 
d="M221 340c-115 0 -193 76 -193 184c0 109 78 185 193 185s194 -76 194 -185c0 -108 -79 -184 -194 -184zM221 425c49 0 80 38 80 99s-31 100 -80 100s-80 -39 -80 -100s31 -99 80 -99z" />
    <glyph glyph-name="uni0394" unicode="&#x394;" horiz-adv-x="740" 
d="M31 0v116l258 579h161l258 -579v-116h-677zM199 137h339l-171 402z" />
    <glyph glyph-name="uni03A9" unicode="&#x3a9;" horiz-adv-x="800" 
d="M54 0v131h164v41c-82 41 -166 115 -166 246c0 170 146 291 348 291s348 -121 348 -291c0 -130 -88 -206 -166 -245v-42h164v-131h-289v196c67 40 135 108 135 202c0 109 -80 181 -192 181s-192 -72 -192 -181c0 -93 66 -160 135 -202v-196h-289z" />
    <glyph glyph-name="uni03BC" unicode="&#x3bc;" horiz-adv-x="588" 
d="M60 -200v693h145v-299c2 -57 30 -88 81 -88c55 0 98 37 98 107v280h144v-493h-136v70c-28 -52 -70 -78 -122 -78c-33 0 -67 11 -86 34l20 -226h-144z" />
    <glyph glyph-name="pi" unicode="&#x3c0;" horiz-adv-x="654" 
d="M636 375h-105v-219c0 -23 9 -36 29 -36c12 0 21 4 32 15l29 -113c-24 -18 -52 -28 -92 -28c-92 0 -143 49 -143 151v230h-146v-375h-144v375h-82v118h622v-118z" />
    <glyph glyph-name="zero" unicode="0" horiz-adv-x="698" 
d="M349 -14c-191 0 -306 142 -306 361s115 362 306 362s305 -143 305 -362s-114 -361 -305 -361zM349 118c99 0 151 97 151 229s-52 230 -151 230c-100 0 -151 -98 -151 -230s51 -229 151 -229z" />
    <glyph glyph-name="one" unicode="1" horiz-adv-x="380" 
d="M154 0v496c-34 -26 -82 -37 -146 -37v137c95 -3 155 26 155 99h139v-695h-148z" />
    <glyph glyph-name="two" unicode="2" horiz-adv-x="611" 
d="M36 0v48c0 100 51 186 192 264l94 52c70 39 93 74 93 123c0 59 -44 95 -108 95c-75 0 -114 -50 -114 -105c0 -21 4 -43 12 -62l-139 -37c-13 28 -20 62 -20 100c0 113 86 231 269 231c151 0 250 -85 250 -208c0 -105 -48 -170 -166 -232l-95 -51c-51 -27 -83 -56 -92 -84
h362l-2 -134h-536z" />
    <glyph glyph-name="three" unicode="3" horiz-adv-x="618" 
d="M314 -14c-189 0 -276 104 -276 233c0 30 5 61 14 89l140 -36c-5 -16 -8 -34 -8 -51c0 -66 43 -111 129 -111c70 0 115 36 115 94c0 54 -44 88 -119 88h-36v120h31c69 0 109 31 109 88c0 53 -39 85 -103 85c-78 0 -117 -57 -125 -137l-144 21c18 132 103 240 276 240
c156 0 247 -74 247 -194c0 -85 -64 -142 -136 -156c90 -15 151 -69 151 -164c0 -128 -101 -209 -265 -209z" />
    <glyph glyph-name="four" unicode="4" horiz-adv-x="591" 
d="M343 0v147h-321v148c118 105 211 245 233 400h152c-27 -172 -125 -327 -240 -415h176v125h142v-125h82v-133h-82v-147h-142z" />
    <glyph glyph-name="five" unicode="5" horiz-adv-x="599" 
d="M295 -14c-156 0 -256 82 -267 204l140 29c6 -60 51 -111 123 -111c69 0 118 46 118 118c0 70 -48 116 -118 116c-51 0 -86 -20 -120 -59l-113 34c18 107 30 263 34 378h429v-132h-306c-2 -49 -8 -114 -17 -169c33 39 84 59 145 59c133 0 218 -97 218 -227
c0 -140 -107 -240 -266 -240z" />
    <glyph glyph-name="six" unicode="6" horiz-adv-x="639" 
d="M332 -14c-179 0 -289 130 -289 342c0 232 117 381 296 381c163 0 246 -77 261 -206l-141 -23c-11 68 -49 105 -119 105c-89 0 -152 -87 -150 -241c32 70 95 105 177 105c136 0 238 -84 237 -225c0 -142 -112 -238 -272 -238zM332 103c71 0 122 48 122 115
s-51 115 -122 115c-72 0 -124 -49 -124 -116c0 -66 52 -114 124 -114z" />
    <glyph glyph-name="seven" unicode="7" horiz-adv-x="525" 
d="M132 0c6 223 82 405 224 565h-353v130h496v-134c-138 -180 -214 -352 -218 -561h-149z" />
    <glyph glyph-name="eight" unicode="8" horiz-adv-x="651" 
d="M325 -14c-169 0 -282 81 -282 219c0 70 40 133 120 166c-54 27 -94 77 -94 145c0 119 111 193 256 193c146 0 257 -74 257 -193c0 -68 -40 -119 -93 -145c79 -31 119 -96 119 -166c0 -138 -113 -219 -283 -219zM325 423c62 0 107 35 107 87c0 51 -45 86 -107 86
c-61 0 -106 -35 -106 -86c0 -52 45 -87 106 -87zM325 99c76 0 131 40 131 105c0 63 -55 106 -131 106c-75 0 -130 -43 -130 -106c0 -65 55 -105 130 -105z" />
    <glyph glyph-name="nine" unicode="9" horiz-adv-x="642" 
d="M300 -14c-162 0 -249 80 -263 213l141 23c13 -75 51 -112 121 -112c92 0 156 88 153 241c-33 -68 -89 -103 -171 -103c-136 0 -242 84 -242 224c0 142 111 237 271 237c179 0 289 -130 289 -341c0 -232 -118 -382 -299 -382zM311 364c72 0 123 49 123 115
c0 65 -51 113 -123 113c-71 0 -123 -48 -123 -114s51 -114 123 -114z" />
    <glyph glyph-name="zero.osf" horiz-adv-x="617" 
d="M308 -12c-161 0 -275 111 -275 279c0 169 114 280 275 280c162 0 276 -111 276 -280c0 -168 -114 -279 -276 -279zM308 100c77 0 127 63 127 167c0 105 -50 168 -127 168c-76 0 -126 -63 -126 -168c0 -104 50 -167 126 -167z" />
    <glyph glyph-name="one.osf" horiz-adv-x="357" 
d="M142 0v357c-29 -22 -70 -34 -126 -34v126c84 -6 147 23 147 86h124v-535h-145z" />
    <glyph glyph-name="two.osf" horiz-adv-x="551" 
d="M21 0v31c0 80 42 157 195 221l58 24c66 27 94 48 94 94c0 43 -30 72 -88 72c-73 0 -109 -54 -113 -124l-141 10c5 115 86 219 259 219c146 0 231 -69 231 -163c0 -108 -66 -145 -190 -190l-40 -14c-57 -21 -78 -38 -89 -61h324v-119h-500z" />
    <glyph glyph-name="three.osf" horiz-adv-x="574" 
d="M282 -172c-177 0 -264 100 -264 224c0 25 4 51 13 75l136 -25c-4 -15 -7 -31 -7 -47c0 -68 46 -115 122 -115c69 0 115 39 115 102c0 56 -42 94 -113 94h-35v111h28c67 0 105 39 105 97c0 52 -37 91 -100 91c-75 0 -114 -49 -121 -137l-139 16c17 133 101 233 267 233
c150 0 242 -72 242 -192c0 -85 -60 -143 -134 -157c90 -15 150 -68 150 -162c0 -128 -108 -208 -265 -208z" />
    <glyph glyph-name="four.osf" horiz-adv-x="557" 
d="M333 -160v160h-316v130c114 120 189 259 211 405h148c-26 -157 -108 -298 -221 -421h178v131h138v-131h76v-114h-76v-160h-138z" />
    <glyph glyph-name="five.osf" horiz-adv-x="573" 
d="M286 -172c-151 0 -244 75 -263 199l138 23c5 -60 49 -109 117 -109s118 42 118 122c0 71 -46 122 -113 122c-47 0 -85 -21 -118 -59l-116 34c18 106 32 265 33 374h422v-118h-307c-2 -49 -8 -118 -16 -173c31 34 78 55 141 55c131 0 223 -94 223 -230
c0 -139 -107 -240 -259 -240z" />
    <glyph glyph-name="six.osf" horiz-adv-x="603" 
d="M325 707c147 0 237 -77 250 -206l-141 -20c-13 74 -52 114 -116 114c-89 0 -142 -96 -140 -247c32 63 90 96 171 96c127 0 226 -81 226 -218c0 -143 -108 -238 -264 -238c-173 0 -278 130 -278 342c0 229 110 377 292 377zM311 334c-68 0 -117 -47 -117 -119
c0 -70 49 -115 117 -115c66 0 115 46 115 116c0 72 -52 118 -115 118z" />
    <glyph glyph-name="seven.osf" horiz-adv-x="534" 
d="M137 -160c5 223 90 416 240 576h-365v119h491v-120c-143 -180 -218 -372 -222 -575h-144z" />
    <glyph glyph-name="eight.osf" horiz-adv-x="598" 
d="M299 -13c-162 0 -271 80 -271 218c0 69 42 132 124 165c-55 26 -100 74 -100 145c0 119 108 193 247 193s247 -74 247 -193c0 -71 -44 -119 -97 -145c79 -32 121 -96 121 -165c0 -138 -108 -218 -271 -218zM299 420c58 0 100 37 100 89c0 51 -42 89 -100 89
s-100 -38 -100 -89c0 -52 42 -89 100 -89zM299 99c70 0 120 39 120 104c0 63 -53 106 -120 106c-68 0 -120 -43 -120 -106c0 -65 51 -104 120 -104z" />
    <glyph glyph-name="nine.osf" horiz-adv-x="603" 
d="M279 -172c-148 0 -237 77 -250 206l140 20c13 -74 52 -114 116 -114c89 0 142 96 140 247c-32 -63 -90 -96 -170 -96c-128 0 -227 81 -227 218c0 143 109 238 264 238c174 0 278 -130 278 -342c0 -229 -110 -377 -291 -377zM293 201c68 0 116 47 116 118
c0 70 -48 116 -116 116c-67 0 -115 -46 -115 -116c0 -72 51 -118 115 -118z" />
    <glyph glyph-name="zero.tf" horiz-adv-x="640" 
d="M320 -14c-182 0 -289 145 -289 361s107 362 289 362c180 0 289 -146 289 -362s-109 -361 -289 -361zM320 112c92 0 141 92 141 235s-49 236 -141 236c-93 0 -141 -93 -141 -236s48 -235 141 -235z" />
    <glyph glyph-name="one.tf" horiz-adv-x="640" 
d="M421 135h160v-135h-472v135h164v360c-37 -35 -96 -47 -165 -47v138c106 -4 174 29 174 109h139v-560z" />
    <glyph glyph-name="two.tf" horiz-adv-x="640" 
d="M54 0v48c0 100 51 186 192 264l93 52c71 39 94 74 94 123c0 59 -44 95 -108 95c-75 0 -114 -50 -114 -105c0 -21 4 -43 12 -62l-139 -37c-13 28 -20 62 -20 100c0 113 86 231 269 231c151 0 250 -85 250 -208c0 -105 -48 -170 -166 -232l-96 -51c-50 -27 -82 -56 -91 -84
h361l-1 -134h-536z" />
    <glyph glyph-name="three.tf" horiz-adv-x="640" 
d="M322 -14c-190 0 -277 104 -277 233c0 30 6 61 15 89l140 -36c-5 -16 -8 -34 -8 -51c0 -66 43 -111 129 -111c69 0 114 36 114 94c0 54 -43 88 -118 88h-37v120h32c69 0 109 31 109 88c0 53 -39 85 -104 85c-77 0 -116 -57 -125 -137l-143 21c17 132 103 240 276 240
c155 0 246 -74 246 -194c0 -85 -63 -142 -135 -156c90 -15 151 -69 151 -164c0 -128 -101 -209 -265 -209z" />
    <glyph glyph-name="four.tf" horiz-adv-x="640" 
d="M371 0v147h-321v148c117 105 211 245 233 400h152c-27 -172 -125 -327 -240 -415h176v125h142v-125h82v-133h-82v-147h-142z" />
    <glyph glyph-name="five.tf" horiz-adv-x="640" 
d="M314 -14c-156 0 -256 82 -267 204l140 29c6 -60 51 -111 123 -111c69 0 118 46 118 118c0 70 -48 116 -118 116c-51 0 -86 -20 -120 -59l-114 34c19 107 31 263 35 378h429v-132h-306c-2 -49 -8 -114 -17 -169c32 39 84 59 145 59c133 0 218 -97 218 -227
c0 -140 -107 -240 -266 -240z" />
    <glyph glyph-name="six.tf" horiz-adv-x="640" 
d="M334 -14c-179 0 -288 130 -288 342c0 232 116 381 296 381c162 0 245 -77 260 -206l-141 -23c-11 68 -49 105 -119 105c-89 0 -152 -87 -150 -241c32 70 95 105 177 105c136 0 238 -84 237 -225c0 -142 -112 -238 -272 -238zM334 103c71 0 122 48 122 115
s-51 115 -122 115c-72 0 -124 -49 -124 -116c0 -66 52 -114 124 -114z" />
    <glyph glyph-name="seven.tf" horiz-adv-x="640" 
d="M187 0c5 223 82 405 224 565h-353v130h496v-134c-139 -180 -214 -352 -218 -561h-149z" />
    <glyph glyph-name="eight.tf" horiz-adv-x="640" 
d="M322 -14c-170 0 -282 81 -282 219c0 70 40 133 120 166c-54 27 -94 77 -94 145c0 119 111 193 256 193c146 0 257 -74 257 -193c0 -68 -40 -119 -93 -145c79 -31 119 -96 119 -166c0 -138 -113 -219 -283 -219zM322 423c62 0 107 35 107 87c0 51 -45 86 -107 86
c-61 0 -107 -35 -107 -86c0 -52 46 -87 107 -87zM322 99c76 0 131 40 131 105c0 63 -55 106 -131 106c-75 0 -130 -43 -130 -106c0 -65 55 -105 130 -105z" />
    <glyph glyph-name="nine.tf" horiz-adv-x="640" 
d="M300 -14c-162 0 -249 80 -263 213l141 23c13 -75 52 -112 121 -112c92 0 156 88 154 241c-33 -68 -90 -103 -172 -103c-136 0 -242 84 -242 224c0 142 111 237 271 237c180 0 289 -130 289 -341c0 -232 -118 -382 -299 -382zM311 364c72 0 123 49 123 115
c0 65 -51 113 -123 113c-71 0 -122 -48 -122 -114s50 -114 122 -114z" />
    <glyph glyph-name="zero.tosf" horiz-adv-x="600" 
d="M300 -12c-158 0 -269 111 -269 280s111 280 269 280s269 -111 269 -280s-111 -280 -269 -280zM300 100c72 0 119 63 119 168s-47 168 -119 168s-119 -63 -119 -168s47 -168 119 -168z" />
    <glyph glyph-name="one.tosf" horiz-adv-x="600" 
d="M396 113h132v-113h-428v113h151v244c-32 -25 -71 -40 -146 -40v126c89 -7 155 24 155 92h136v-422z" />
    <glyph glyph-name="two.tosf" horiz-adv-x="600" 
d="M38 0v31c0 80 42 157 195 221l58 24c66 27 94 48 94 94c0 43 -30 72 -88 72c-73 0 -109 -54 -113 -124l-141 10c5 115 86 219 259 219c146 0 231 -69 231 -163c0 -108 -66 -145 -190 -190l-40 -14c-57 -21 -78 -38 -88 -61h323v-119h-500z" />
    <glyph glyph-name="three.tosf" horiz-adv-x="600" 
d="M298 -173c-177 0 -264 100 -264 224c0 25 4 51 13 75l136 -24c-4 -16 -7 -32 -7 -48c0 -67 46 -115 122 -115c69 0 115 40 115 103c0 55 -42 93 -113 93h-36v112h29c67 0 105 38 105 96c0 53 -37 92 -100 92c-75 0 -114 -50 -121 -138l-139 16c17 134 100 233 267 233
c150 0 241 -72 241 -192c0 -85 -59 -143 -133 -157c90 -14 149 -68 149 -161c0 -129 -107 -209 -264 -209z" />
    <glyph glyph-name="four.tosf" horiz-adv-x="600" 
d="M357 -160v160h-316v130c114 120 189 259 211 405h149c-26 -157 -108 -298 -222 -421h178v131h139v-131h76v-114h-76v-160h-139z" />
    <glyph glyph-name="five.tosf" horiz-adv-x="600" 
d="M303 -172c-151 0 -244 75 -262 199l137 23c6 -60 50 -109 118 -109c67 0 117 42 117 122c0 71 -45 122 -112 122c-48 0 -85 -21 -119 -59l-116 34c18 106 33 265 34 374h421v-118h-306c-2 -49 -8 -118 -17 -173c31 34 78 55 142 55c131 0 222 -94 222 -230
c0 -139 -106 -240 -259 -240z" />
    <glyph glyph-name="six.tosf" horiz-adv-x="600" 
d="M321 707c148 0 237 -77 250 -206l-140 -20c-13 74 -52 114 -116 114c-89 0 -142 -96 -140 -247c32 63 90 96 170 96c128 0 227 -81 227 -218c0 -143 -109 -238 -264 -238c-174 0 -278 130 -278 342c0 229 110 377 291 377zM307 334c-68 0 -116 -47 -116 -119
c0 -70 48 -115 116 -115c67 0 115 46 115 116c0 72 -51 118 -115 118z" />
    <glyph glyph-name="seven.tosf" horiz-adv-x="600" 
d="M162 -160c5 223 90 416 240 576h-364v119h490v-120c-143 -180 -217 -372 -221 -575h-145z" />
    <glyph glyph-name="eight.tosf" horiz-adv-x="600" 
d="M298 -13c-162 0 -271 80 -271 218c0 69 43 132 124 165c-55 26 -100 74 -100 145c0 119 108 193 247 193s248 -74 248 -193c0 -71 -45 -119 -98 -145c79 -32 121 -96 121 -165c0 -138 -108 -218 -271 -218zM298 420c59 0 100 37 100 89c0 51 -41 89 -100 89
c-58 0 -100 -38 -100 -89c0 -52 42 -89 100 -89zM298 99c70 0 120 39 120 104c0 63 -52 106 -120 106s-119 -43 -119 -106c0 -65 50 -104 119 -104z" />
    <glyph glyph-name="nine.tosf" horiz-adv-x="600" 
d="M278 -172c-148 0 -237 77 -250 206l141 20c12 -74 51 -114 115 -114c90 0 143 96 140 247c-31 -63 -90 -96 -170 -96c-127 0 -226 81 -226 218c0 143 108 238 264 238c173 0 278 -130 278 -342c0 -229 -110 -377 -292 -377zM292 201c68 0 116 47 116 118
c0 70 -48 116 -116 116c-66 0 -115 -46 -115 -116c0 -72 51 -118 115 -118z" />
    <glyph glyph-name="uni00B9" unicode="&#xb9;" horiz-adv-x="282" 
d="M104 270v290c-20 -16 -57 -24 -98 -24v99c60 -2 109 18 109 60h98v-425h-109z" />
    <glyph glyph-name="uni00B2" unicode="&#xb2;" horiz-adv-x="412" 
d="M24 273v30c0 65 35 112 137 169l50 28c41 23 57 45 57 72c0 30 -25 51 -63 51c-43 0 -66 -27 -66 -59c0 -13 3 -26 7 -36l-103 -23c-7 17 -11 36 -11 59c0 74 60 143 177 143c96 0 167 -46 169 -126c1 -66 -34 -103 -114 -143l-50 -26c-31 -15 -50 -32 -57 -49h225v-90
h-358z" />
    <glyph glyph-name="uni00B3" unicode="&#xb3;" horiz-adv-x="417" 
d="M213 265c-124 0 -185 66 -185 140c0 20 3 39 9 57l105 -23c-3 -10 -5 -21 -5 -32c0 -34 22 -58 75 -58c42 0 68 20 68 52c0 30 -26 49 -69 49h-21v75h15c42 0 67 19 67 52c0 28 -22 47 -59 47c-48 0 -71 -32 -77 -77l-105 15c11 76 73 145 187 145c95 0 166 -45 166 -119
c0 -54 -37 -89 -86 -96c58 -11 95 -40 95 -99c0 -79 -75 -128 -180 -128z" />
    <glyph glyph-name="uni2074" unicode="&#x2074;" horiz-adv-x="398" 
d="M226 270v88h-206v102c66 62 119 138 131 235h114c-16 -107 -79 -198 -142 -248h103v71h106v-71h50v-89h-50v-88h-106z" />
    <glyph glyph-name="fraction" unicode="&#x2044;" horiz-adv-x="290" 
d="M-147 0l477 695h107l-477 -695h-107z" />
    <glyph glyph-name="onehalf" unicode="&#xbd;" horiz-adv-x="962" 
d="M104 270v290c-20 -16 -57 -24 -98 -24v99c60 -2 109 18 109 60h98v-425h-109zM134 0l477 695h108l-477 -695h-108zM574 -1v31c0 65 35 112 137 169l50 27c41 24 56 45 56 72c0 30 -24 51 -63 51c-42 0 -65 -27 -65 -59c0 -13 2 -25 7 -36l-103 -23c-8 18 -11 37 -11 59
c0 74 59 143 177 143c96 0 167 -46 168 -125c2 -66 -33 -104 -113 -144l-50 -25c-31 -16 -50 -33 -57 -49h225v-91h-358z" />
    <glyph glyph-name="onequarter" unicode="&#xbc;" horiz-adv-x="905" 
d="M104 270v290c-20 -16 -57 -24 -98 -24v99c60 -2 109 18 109 60h98v-425h-109zM134 0l477 695h108l-477 -695h-108zM733 -4v88h-206v103c66 61 119 137 131 234h114c-16 -106 -79 -198 -142 -248h103v71h106v-71h50v-89h-50v-88h-106z" />
    <glyph glyph-name="threequarters" unicode="&#xbe;" horiz-adv-x="1043" 
d="M213 265c-124 0 -185 66 -185 140c0 20 3 39 9 57l105 -23c-3 -10 -5 -21 -5 -32c0 -34 22 -58 75 -58c42 0 68 20 68 52c0 30 -26 49 -69 49h-21v75h15c42 0 67 19 67 52c0 28 -22 47 -59 47c-48 0 -71 -32 -77 -77l-105 15c11 76 73 145 187 145c95 0 166 -45 166 -119
c0 -54 -37 -89 -86 -96c58 -11 95 -40 95 -99c0 -79 -75 -128 -180 -128zM270 0l477 695h107l-477 -695h-107zM871 -1v88h-206v103c66 61 119 137 130 234h115c-17 -106 -79 -198 -142 -248h103v71h106v-71h49v-89h-49v-88h-106z" />
    <glyph glyph-name="period" unicode="." horiz-adv-x="254" 
d="M127 -12c-49 0 -91 39 -91 90c0 52 42 90 91 90c52 0 92 -38 92 -90c0 -51 -40 -90 -92 -90z" />
    <glyph glyph-name="comma" unicode="," horiz-adv-x="255" 
d="M124 164c56 0 97 -42 97 -110c0 -76 -40 -142 -94 -193l-67 47c28 25 49 59 53 92c-42 4 -77 35 -77 80c0 51 40 84 88 84z" />
    <glyph glyph-name="colon" unicode=":" horiz-adv-x="274" 
d="M137 323c-49 0 -91 39 -91 90c0 52 42 90 91 90c52 0 92 -38 92 -90c0 -51 -40 -90 -92 -90zM137 -12c-49 0 -91 39 -91 90c0 52 42 90 91 90c52 0 92 -38 92 -90c0 -51 -40 -90 -92 -90z" />
    <glyph glyph-name="semicolon" unicode=";" horiz-adv-x="275" 
d="M137 323c-49 0 -91 39 -91 90c0 52 42 90 91 90c52 0 92 -38 92 -90c0 -51 -40 -90 -92 -90zM134 164c56 0 97 -42 97 -110c0 -76 -40 -142 -94 -193l-67 47c28 25 49 59 53 92c-42 4 -77 35 -77 80c0 51 40 84 88 84z" />
    <glyph glyph-name="ellipsis" unicode="&#x2026;" horiz-adv-x="734" 
d="M127 -12c-49 0 -91 39 -91 90c0 52 42 90 91 90c52 0 92 -38 92 -90c0 -51 -40 -90 -92 -90zM367 -13c-50 0 -92 39 -92 91c0 51 42 90 92 90c52 0 91 -39 91 -90c0 -52 -39 -91 -91 -91zM607 -12c-49 0 -91 39 -91 90c0 52 42 90 91 90c52 0 92 -38 92 -90
c0 -51 -40 -90 -92 -90z" />
    <glyph glyph-name="exclam" unicode="!" horiz-adv-x="288" 
d="M79 222l-11 473h156l-10 -473h-135zM144 -12c-49 0 -91 39 -91 90c0 52 42 90 91 90c52 0 92 -38 92 -90c0 -51 -40 -90 -92 -90z" />
    <glyph glyph-name="exclamdown" unicode="&#xa1;" horiz-adv-x="288" 
d="M144 506c50 0 92 -39 92 -91c0 -51 -42 -90 -92 -90c-51 0 -91 39 -91 90c0 52 40 91 91 91zM209 271l11 -472h-156l11 472h134z" />
    <glyph glyph-name="question" unicode="?" horiz-adv-x="571" 
d="M206 216c0 64 22 110 86 153c75 52 93 79 93 123c0 53 -37 90 -98 90c-72 0 -110 -47 -110 -102c0 -21 4 -41 11 -59l-140 -37c-13 28 -20 59 -20 97c0 112 83 228 268 228c152 0 243 -80 243 -210c0 -83 -44 -144 -136 -200c-40 -26 -50 -46 -51 -83h-146zM274 -12
c-50 0 -91 39 -91 90c0 52 41 90 91 90c52 0 91 -38 91 -90c0 -51 -39 -90 -91 -90z" />
    <glyph glyph-name="questiondown" unicode="&#xbf;" horiz-adv-x="571" 
d="M298 506c49 0 91 -39 91 -91c0 -51 -42 -90 -91 -90c-52 0 -92 39 -92 90c0 52 40 91 92 91zM365 277c0 -63 -22 -109 -85 -153c-75 -52 -94 -78 -94 -122c0 -53 38 -90 99 -90c71 0 110 47 110 102c0 20 -4 40 -12 58l141 38c12 -28 19 -60 19 -97
c0 -112 -82 -228 -267 -228c-153 0 -243 79 -243 210c0 83 44 144 136 200c40 25 49 46 50 82h146z" />
    <glyph glyph-name="periodcentered" unicode="&#xb7;" horiz-adv-x="274" 
d="M137 198c-49 0 -91 40 -91 91s42 90 91 90c52 0 92 -39 92 -90s-40 -91 -92 -91z" />
    <glyph glyph-name="bullet" unicode="&#x2022;" horiz-adv-x="428" 
d="M214 175c-85 0 -158 68 -158 157c0 90 73 157 158 157c90 0 159 -67 159 -157c0 -89 -69 -157 -159 -157z" />
    <glyph glyph-name="asterisk" unicode="*" horiz-adv-x="467" 
d="M167 319l-97 71l67 88l-101 31l36 114l103 -35l-1 107h120l-1 -106l102 34l37 -114l-101 -31l67 -88l-98 -71l-67 94z" />
    <glyph glyph-name="numbersign" unicode="#" horiz-adv-x="710" 
d="M671 429h-124l-22 -163h125l-15 -108h-126l-22 -158h-118l22 158h-127l-22 -158h-117l22 158h-123l15 108h124l22 163h-125l14 108h127l22 158h117l-22 -158h127l22 158h118l-22 -158h122zM407 266l22 163h-127l-22 -163h127z" />
    <glyph glyph-name="slash" unicode="/" horiz-adv-x="452" 
d="M8 -100l309 830h116l-308 -830h-117z" />
    <glyph glyph-name="backslash" unicode="\" horiz-adv-x="454" 
d="M327 -100l-309 830h119l309 -830h-119z" />
    <glyph glyph-name="exclamdown.case" horiz-adv-x="288" 
d="M144 707c50 0 92 -39 92 -90c0 -52 -42 -90 -92 -90c-51 0 -91 38 -91 90c0 51 40 90 91 90zM209 473l11 -473h-156l11 473h134z" />
    <glyph glyph-name="questiondown.case" horiz-adv-x="571" 
d="M293 707c50 0 92 -39 92 -90c0 -52 -42 -90 -92 -90c-51 0 -91 38 -91 90c0 51 40 90 91 90zM361 479c0 -64 -22 -110 -86 -153c-75 -52 -93 -79 -93 -123c0 -53 38 -90 99 -90c71 0 110 47 110 102c0 21 -5 41 -12 59l140 37c13 -28 20 -59 20 -97
c0 -112 -83 -228 -268 -228c-152 0 -243 80 -243 210c0 83 44 144 137 200c39 26 49 46 50 83h146z" />
    <glyph glyph-name="periodcentered.case" horiz-adv-x="274" 
d="M137 261c-49 0 -91 39 -91 91c0 51 42 90 91 90c52 0 92 -39 92 -90c0 -52 -40 -91 -92 -91z" />
    <glyph glyph-name="slash.case" horiz-adv-x="442" 
d="M8 -67l309 830h116l-308 -830h-117z" />
    <glyph glyph-name="backslash.case" horiz-adv-x="444" 
d="M317 -67l-309 830h119l309 -830h-119z" />
    <glyph glyph-name="parenleft" unicode="(" horiz-adv-x="370" 
d="M300 -144c-143 74 -242 211 -242 436c0 226 99 363 242 438l50 -93c-109 -66 -171 -173 -171 -344c0 -172 62 -280 171 -344z" />
    <glyph glyph-name="parenright" unicode=")" horiz-adv-x="370" 
d="M70 -144l-50 93c110 66 172 173 172 344c0 172 -62 280 -172 344l50 93c144 -74 243 -211 243 -436c0 -226 -99 -363 -243 -438z" />
    <glyph glyph-name="braceleft" unicode="{" horiz-adv-x="393" 
d="M364 -144c-164 6 -234 52 -234 148c0 61 32 104 32 166c0 49 -40 75 -119 75h-7v96h7c79 0 119 25 119 75c0 62 -32 105 -32 166c0 96 70 142 234 148v-103c-85 -5 -118 -17 -118 -71c0 -51 33 -90 33 -160c0 -58 -37 -94 -102 -103c66 -10 102 -45 102 -103
c0 -70 -33 -108 -33 -159c0 -55 33 -67 118 -72v-103z" />
    <glyph glyph-name="braceright" unicode="}" horiz-adv-x="393" 
d="M29 -144v103c85 5 118 17 118 71c0 51 -33 90 -33 160c0 58 37 94 102 103c-66 10 -102 45 -102 103c0 70 33 108 33 159c0 55 -33 67 -118 72v103c164 -6 235 -52 235 -148c0 -61 -32 -104 -32 -166c0 -49 39 -75 118 -75h7v-96h-7c-79 0 -118 -25 -118 -75
c0 -62 32 -105 32 -166c0 -96 -71 -142 -235 -148z" />
    <glyph glyph-name="bracketleft" unicode="[" horiz-adv-x="364" 
d="M339 627h-125v-668h125v-103h-243v874h243v-103z" />
    <glyph glyph-name="bracketright" unicode="]" horiz-adv-x="364" 
d="M268 730v-874h-243v102h125v670h-125v102h243z" />
    <glyph glyph-name="parenleft.case" horiz-adv-x="370" 
d="M300 -90c-143 74 -242 211 -242 436c0 226 99 363 242 438l50 -93c-109 -66 -171 -173 -171 -344c0 -172 62 -280 171 -344z" />
    <glyph glyph-name="parenright.case" horiz-adv-x="370" 
d="M70 -90l-50 93c110 66 172 173 172 344c0 172 -62 280 -172 344l50 93c144 -74 243 -211 243 -436c0 -226 -99 -363 -243 -438z" />
    <glyph glyph-name="braceleft.case" horiz-adv-x="393" 
d="M364 -90c-164 6 -234 52 -234 148c0 61 32 104 32 166c0 49 -40 75 -119 75h-7v96h7c79 0 119 25 119 75c0 62 -32 105 -32 166c0 96 70 142 234 148v-103c-85 -5 -118 -17 -118 -71c0 -51 33 -90 33 -160c0 -58 -37 -94 -102 -103c66 -10 102 -45 102 -103
c0 -70 -33 -108 -33 -159c0 -55 33 -67 118 -72v-103z" />
    <glyph glyph-name="braceright.case" horiz-adv-x="393" 
d="M29 -90v103c85 5 118 17 118 71c0 51 -33 90 -33 160c0 58 37 94 102 103c-66 10 -102 45 -102 103c0 70 33 108 33 159c0 55 -33 67 -118 72v103c164 -6 235 -52 235 -148c0 -61 -32 -104 -32 -166c0 -49 39 -75 118 -75h7v-96h-7c-79 0 -118 -25 -118 -75
c0 -62 32 -105 32 -166c0 -96 -71 -142 -235 -148z" />
    <glyph glyph-name="bracketleft.case" horiz-adv-x="364" 
d="M339 681h-125v-668h125v-103h-243v874h243v-103z" />
    <glyph glyph-name="bracketright.case" horiz-adv-x="364" 
d="M268 784v-874h-243v102h125v670h-125v102h243z" />
    <glyph glyph-name="hyphen" unicode="-" horiz-adv-x="364" 
d="M46 225v123h273v-123h-273z" />
    <glyph glyph-name="uni00AD" unicode="&#xad;" horiz-adv-x="364" 
d="M46 225v123h273v-123h-273z" />
    <glyph glyph-name="endash" unicode="&#x2013;" horiz-adv-x="573" 
d="M53 246v117h466v-117h-466z" />
    <glyph glyph-name="emdash" unicode="&#x2014;" horiz-adv-x="1000" 
d="M35 246v117h930v-117h-930z" />
    <glyph glyph-name="underscore" unicode="_" horiz-adv-x="469" 
d="M10 -138v116h449v-116h-449z" />
    <glyph glyph-name="hyphen.case" horiz-adv-x="364" 
d="M46 292v122h273v-122h-273z" />
    <glyph glyph-name="endash.case" horiz-adv-x="573" 
d="M53 294v117h466v-117h-466z" />
    <glyph glyph-name="emdash.case" horiz-adv-x="1000" 
d="M35 294v116h930v-116h-930z" />
    <glyph glyph-name="quotesinglbase" unicode="&#x201a;" horiz-adv-x="255" 
d="M124 164c56 0 97 -42 97 -110c0 -76 -40 -142 -94 -193l-67 47c28 25 49 59 53 92c-42 4 -77 35 -77 80c0 51 40 84 88 84z" />
    <glyph glyph-name="quotedblbase" unicode="&#x201e;" horiz-adv-x="463" 
d="M124 164c56 0 97 -42 97 -110c0 -76 -40 -142 -94 -193l-67 47c28 25 49 59 53 92c-42 4 -77 35 -77 80c0 51 40 84 88 84zM333 164c55 0 96 -42 96 -110c0 -76 -39 -142 -94 -193l-67 47c29 25 49 59 53 92c-41 4 -77 35 -77 80c0 51 40 84 89 84z" />
    <glyph glyph-name="quotedblleft" unicode="&#x201c;" horiz-adv-x="462" 
d="M142 568c42 -4 77 -36 77 -80c0 -51 -40 -85 -88 -85c-56 0 -97 43 -97 111c0 76 40 142 94 193l67 -48c-28 -25 -49 -59 -53 -91zM349 568c41 -4 77 -36 77 -80c0 -51 -40 -85 -89 -85c-55 0 -96 43 -96 111c0 76 39 142 94 193l67 -48c-29 -25 -49 -59 -53 -91z" />
    <glyph glyph-name="quotedblright" unicode="&#x201d;" horiz-adv-x="462" 
d="M124 707c56 0 97 -42 97 -111c0 -75 -40 -141 -94 -193l-67 48c28 25 49 59 53 92c-42 4 -77 35 -77 80c0 51 40 84 88 84zM331 706c55 0 96 -43 96 -111c0 -76 -39 -141 -93 -193l-67 48c28 25 48 59 52 91c-41 4 -77 36 -77 80c0 51 40 85 89 85z" />
    <glyph glyph-name="quoteleft" unicode="&#x2018;" horiz-adv-x="255" 
d="M142 568c42 -4 77 -36 77 -80c0 -51 -40 -85 -88 -85c-56 0 -97 43 -97 111c0 76 40 142 94 193l67 -48c-28 -25 -49 -59 -53 -91z" />
    <glyph glyph-name="quoteright" unicode="&#x2019;" horiz-adv-x="255" 
d="M124 707c56 0 97 -42 97 -111c0 -75 -40 -141 -94 -193l-67 48c28 25 49 59 53 92c-42 4 -77 35 -77 80c0 51 40 84 88 84z" />
    <glyph glyph-name="guillemotleft" unicode="&#xab;" horiz-adv-x="568" 
d="M269 93l-228 128v126l228 128v-131l-118 -60l118 -58v-133zM517 93l-227 128v126l227 128v-131l-118 -60l118 -58v-133z" />
    <glyph glyph-name="guillemotright" unicode="&#xbb;" horiz-adv-x="568" 
d="M51 93v131l118 60l-118 59v132l228 -128v-126zM300 93v131l118 60l-118 59v132l227 -128v-126z" />
    <glyph glyph-name="guilsinglleft" unicode="&#x2039;" horiz-adv-x="320" 
d="M269 93l-228 128v126l228 128v-131l-118 -60l118 -58v-133z" />
    <glyph glyph-name="guilsinglright" unicode="&#x203a;" horiz-adv-x="320" 
d="M51 93v131l118 60l-118 59v132l228 -128v-126z" />
    <glyph glyph-name="quotedbl" unicode="&#x22;" horiz-adv-x="450" 
d="M66 440l-13 255h149l-13 -255h-123zM261 440l-13 255h149l-13 -255h-123z" />
    <glyph glyph-name="quotesingle" unicode="'" horiz-adv-x="254" 
d="M66 440l-13 255h149l-13 -255h-123z" />
    <glyph glyph-name="guillemotleft.case" horiz-adv-x="568" 
d="M269 160l-228 128v126l228 128v-131l-118 -60l118 -58v-133zM517 160l-227 128v126l227 128v-131l-118 -60l118 -58v-133z" />
    <glyph glyph-name="guillemotright.case" horiz-adv-x="568" 
d="M51 160v131l118 60l-118 59v132l228 -128v-126zM300 160v131l118 60l-118 59v132l227 -128v-126z" />
    <glyph glyph-name="guilsinglleft.case" horiz-adv-x="316" 
d="M269 160l-228 128v126l228 128v-131l-118 -60l118 -58v-133z" />
    <glyph glyph-name="guilsinglright.case" horiz-adv-x="320" 
d="M51 161v131l118 60l-118 58v133l228 -128v-126z" />
    <glyph glyph-name="uni00A0" unicode="&#xa0;" horiz-adv-x="230" 
 />
    <glyph glyph-name="Euro" unicode="&#x20ac;" horiz-adv-x="751" 
d="M559 244l153 -25c-41 -156 -148 -233 -308 -233c-151 0 -265 91 -304 240h-91v84h77c-1 12 -1 24 -1 37c0 9 0 18 1 27h-77v85h90c39 152 159 250 311 250c156 0 261 -83 294 -230l-147 -37c-25 99 -76 142 -153 142c-70 0 -127 -42 -153 -125h167v-85h-181
c-1 -9 -1 -18 -1 -27c0 -13 0 -25 1 -37h181v-84h-164c26 -76 80 -115 148 -115c80 0 131 37 157 133z" />
    <glyph glyph-name="cent" unicode="&#xa2;" horiz-adv-x="570" 
d="M337 103c41 13 70 50 87 97l113 -53c-41 -85 -99 -145 -200 -157v-92h-82v93c-128 15 -217 102 -217 255c0 136 90 241 217 257v92h82v-93c101 -15 181 -78 202 -202l-125 -27c-10 66 -38 102 -77 116v-286zM175 246c0 -70 30 -122 80 -141v285c-51 -18 -80 -70 -80 -144
z" />
    <glyph glyph-name="currency" unicode="&#xa4;" horiz-adv-x="479" 
d="M110 121l-82 83l46 46c-11 24 -19 51 -19 81s8 58 20 81l-47 47l82 82l49 -48c24 13 51 19 82 19c29 0 56 -6 79 -18l48 47l83 -82l-47 -46c12 -24 20 -52 20 -82s-8 -58 -19 -82l46 -45l-82 -83l-48 47c-24 -12 -51 -18 -80 -18c-31 0 -58 6 -82 19zM241 233
c55 0 97 41 97 98c0 56 -42 98 -97 98c-57 0 -99 -42 -99 -98c0 -57 42 -98 99 -98z" />
    <glyph glyph-name="dollar" unicode="$" horiz-adv-x="658" 
d="M620 210c0 -125 -96 -211 -246 -223v-96h-87v97c-161 15 -250 100 -250 212c0 28 6 60 14 85l139 -33c-5 -15 -8 -31 -8 -46c0 -52 41 -88 105 -100v186h-2c-165 29 -231 98 -231 208s89 197 233 208v96h87v-98c151 -16 232 -99 241 -233l-142 -18c-8 66 -39 113 -99 131
v-174l30 -5c156 -28 216 -94 216 -197zM198 508c0 -45 35 -67 89 -80v163c-57 -7 -89 -38 -89 -83zM374 104c65 9 103 43 103 92c0 47 -39 69 -94 79l-9 2v-173z" />
    <glyph glyph-name="florin" unicode="&#x192;" horiz-adv-x="472" 
d="M389 595c-31 0 -49 -19 -56 -66l-16 -111h109l-16 -100h-107l-21 -145c-17 -121 -81 -184 -196 -184c-37 0 -69 8 -89 20l28 116c18 -17 37 -23 57 -23c31 0 49 19 56 66l21 150h-99l16 100h98l15 106c17 121 81 184 196 184c37 0 69 -8 89 -20l-28 -116
c-17 17 -37 23 -57 23z" />
    <glyph glyph-name="sterling" unicode="&#xa3;" horiz-adv-x="695" 
d="M521 234l145 -4c0 -151 -70 -244 -199 -244c-63 0 -107 30 -145 64c-33 -41 -85 -64 -153 -64c-91 0 -150 52 -150 132c0 77 59 132 153 132c21 0 40 -4 57 -10c-7 23 -19 46 -32 70h-123v90h77c-15 34 -26 68 -26 103c0 125 103 206 260 206c155 0 256 -96 257 -246
l-147 -12c-4 79 -48 131 -115 131c-68 0 -103 -40 -103 -99c0 -27 9 -55 20 -83h163v-90h-122c16 -37 28 -76 28 -118c0 -15 -1 -29 -3 -42c28 -23 54 -40 82 -40c48 0 73 38 76 124zM173 77c29 0 49 21 59 60c-18 13 -37 22 -59 22c-29 0 -49 -17 -49 -41
c0 -25 20 -41 49 -41z" />
    <glyph glyph-name="yen" unicode="&#xa5;" horiz-adv-x="658" 
d="M658 695l-218 -345h120v-90h-158v-75h158v-90h-158v-95h-149v95h-158v90h158v75h-158v90h120l-215 345h171l159 -278l158 278h170z" />
    <glyph glyph-name="plus" unicode="+" horiz-adv-x="504" 
d="M468 359v-117h-155v-163h-126v163h-151v117h151v163h126v-163h155z" />
    <glyph glyph-name="minus" unicode="&#x2212;" horiz-adv-x="504" 
d="M36 242v117h432v-117h-432z" />
    <glyph glyph-name="multiply" unicode="&#xd7;" horiz-adv-x="504" 
d="M463 427l-128 -127l128 -128l-82 -83l-129 128l-129 -128l-83 83l129 128l-129 127l83 83l129 -128l129 128z" />
    <glyph glyph-name="divide" unicode="&#xf7;" horiz-adv-x="504" 
d="M252 406c-39 0 -70 31 -70 70s31 69 70 69s69 -30 69 -69s-30 -70 -69 -70zM36 242v117h432v-117h-432zM252 55c-39 0 -70 30 -70 69s31 70 70 70s69 -31 69 -70s-30 -69 -69 -69z" />
    <glyph glyph-name="equal" unicode="=" horiz-adv-x="504" 
d="M53 345v117h397v-117h-397zM53 138v117h397v-117h-397z" />
    <glyph glyph-name="notequal" unicode="&#x2260;" horiz-adv-x="504" 
d="M450 345h-132l-40 -90h172v-117h-224l-37 -83h-93l37 83h-80v117h133l41 90h-174v117h226l38 84h91l-37 -84h79v-117z" />
    <glyph glyph-name="greater" unicode="&#x3e;" horiz-adv-x="504" 
d="M58 86v127l253 90l-253 91v127l388 -153v-129z" />
    <glyph glyph-name="less" unicode="&#x3c;" horiz-adv-x="504" 
d="M445 86l-389 153v129l389 153v-127l-254 -91l254 -90v-127z" />
    <glyph glyph-name="greaterequal" unicode="&#x2265;" horiz-adv-x="504" 
d="M448 375v-128l-364 -130h364v-117h-389v236l247 75l-247 75v128z" />
    <glyph glyph-name="lessequal" unicode="&#x2264;" horiz-adv-x="504" 
d="M449 514v-128l-246 -75l246 -75v-128h-1v-108h-389v117h365l-364 130v128z" />
    <glyph glyph-name="plusminus" unicode="&#xb1;" horiz-adv-x="504" 
d="M313 417h155v-117h-155v-137h-126v137h-151v117h151v138h126v-138zM36 0v117h432v-117h-432z" />
    <glyph glyph-name="approxequal" unicode="&#x2248;" horiz-adv-x="504" 
d="M330 320c-66 0 -101 50 -141 50c-28 0 -39 -19 -43 -46l-108 19c10 93 53 142 133 142c65 0 101 -50 141 -50c28 0 39 15 43 46l108 -19c-10 -92 -52 -142 -133 -142zM330 116c-66 0 -101 50 -141 50c-28 0 -39 -18 -43 -45l-108 18c10 93 53 143 133 143
c65 0 101 -50 141 -50c28 0 39 18 43 45l108 -18c-10 -93 -52 -143 -133 -143z" />
    <glyph glyph-name="asciitilde" unicode="~" horiz-adv-x="504" 
d="M333 214c-78 0 -101 55 -143 55c-29 0 -40 -23 -45 -55l-108 21c10 99 53 151 133 151c77 0 101 -55 144 -55c29 0 40 23 44 55l109 -21c-10 -98 -53 -151 -134 -151z" />
    <glyph glyph-name="logicalnot" unicode="&#xac;" horiz-adv-x="504" 
d="M307 163v126h-266v117h392v-243h-126z" />
    <glyph glyph-name="asciicircum" unicode="^" horiz-adv-x="508" 
d="M44 412l148 282h126l147 -282h-131l-81 156l-79 -156h-130z" />
    <glyph glyph-name="infinity" unicode="&#x221e;" horiz-adv-x="736" 
d="M540 471c99 0 165 -74 165 -169c0 -97 -71 -173 -167 -173c-65 0 -114 33 -171 92c-51 -61 -101 -92 -172 -92c-99 0 -164 74 -164 169c0 97 70 173 167 173c65 0 114 -33 171 -92c51 61 100 92 171 92zM529 234c36 0 62 26 62 65c0 40 -27 69 -64 69
c-28 0 -55 -22 -91 -67c38 -43 66 -67 93 -67zM209 232c28 0 55 22 90 67c-37 43 -65 68 -92 68c-36 0 -63 -27 -63 -66c0 -40 28 -69 65 -69z" />
    <glyph glyph-name="integral" unicode="&#x222b;" horiz-adv-x="411" 
d="M87 -100c-39 0 -73 7 -100 20l33 113c18 -12 31 -15 50 -15c39 0 59 24 59 70v449c0 112 78 170 186 170c39 0 73 -7 100 -20l-33 -113c-18 12 -31 15 -50 15c-39 0 -58 -24 -58 -70v-449c0 -112 -79 -170 -187 -170z" />
    <glyph glyph-name="uni2126" unicode="&#x2126;" horiz-adv-x="800" 
d="M54 0v131h164v41c-82 41 -166 115 -166 246c0 170 146 291 348 291s348 -121 348 -291c0 -130 -88 -206 -166 -245v-42h164v-131h-289v196c67 40 135 108 135 202c0 109 -80 181 -192 181s-192 -72 -192 -181c0 -93 66 -160 135 -202v-196h-289z" />
    <glyph glyph-name="uni2206" unicode="&#x2206;" horiz-adv-x="740" 
d="M31 0v116l258 579h161l258 -579v-116h-677zM199 137h339l-171 402z" />
    <glyph glyph-name="product" unicode="&#x220f;" horiz-adv-x="820" 
d="M795 695v-136h-105v-649h-149v649h-262v-649h-149v649h-105v136h770z" />
    <glyph glyph-name="summation" unicode="&#x2211;" horiz-adv-x="627" 
d="M33 -90v121l222 282l-225 261v121h556v-136h-360l171 -196v-92l-176 -225h381v-136h-569z" />
    <glyph glyph-name="radical" unicode="&#x221a;" horiz-adv-x="682" 
d="M272 -87l-166 390h-62v113h153l144 -345l213 624h120l-269 -782h-133z" />
    <glyph glyph-name="partialdiff" unicode="&#x2202;" horiz-adv-x="588" 
d="M291 -12c-161 0 -264 100 -264 243c0 136 96 233 221 233c80 0 138 -27 173 -90c-16 141 -136 204 -317 228l47 107c240 -31 407 -176 407 -400c0 -192 -104 -321 -267 -321zM291 100c71 0 113 54 113 136c0 75 -43 124 -114 124s-114 -51 -114 -129
c0 -80 43 -131 115 -131z" />
    <glyph glyph-name="uni00B5" unicode="&#xb5;" horiz-adv-x="588" 
d="M60 -200v693h145v-299c2 -57 30 -88 81 -88c55 0 98 37 98 107v280h144v-493h-136v70c-28 -52 -70 -78 -122 -78c-33 0 -67 11 -86 34l20 -226h-144z" />
    <glyph glyph-name="percent" unicode="%" horiz-adv-x="995" 
d="M222 316c-117 0 -194 78 -194 195c0 119 77 196 194 196s195 -77 195 -196c0 -117 -78 -195 -195 -195zM219 0l441 695h121l-441 -695h-121zM222 411c48 0 81 40 81 100c0 61 -33 102 -81 102c-47 0 -80 -41 -80 -102c0 -60 33 -100 80 -100zM772 -12
c-117 0 -194 77 -194 195s77 196 194 196s195 -78 195 -196s-78 -195 -195 -195zM772 82c48 0 81 40 81 101s-33 101 -81 101c-47 0 -80 -40 -80 -101s33 -101 80 -101z" />
    <glyph glyph-name="perthousand" unicode="&#x2030;" horiz-adv-x="1431" 
d="M222 316c-117 0 -194 78 -194 195c0 119 77 196 194 196s195 -77 195 -196c0 -117 -78 -195 -195 -195zM219 0l441 695h121l-441 -695h-121zM222 411c48 0 81 40 81 100c0 61 -33 102 -81 102c-47 0 -80 -41 -80 -102c0 -60 33 -100 80 -100zM772 -12
c-117 0 -194 77 -194 195s77 196 194 196s195 -78 195 -196s-78 -195 -195 -195zM1208 -12c-117 0 -194 77 -194 195s77 196 194 196s195 -78 195 -196s-78 -195 -195 -195zM772 82c48 0 81 40 81 101s-33 101 -81 101c-47 0 -80 -40 -80 -101s33 -101 80 -101zM1208 82
c48 0 81 40 81 101s-33 101 -81 101c-47 0 -80 -40 -80 -101s33 -101 80 -101z" />
    <glyph glyph-name="arrowup" unicode="&#x2191;" horiz-adv-x="720" 
d="M610 379c-104 2 -145 19 -178 62v-181c0 -83 66 -92 168 -92l-14 -143c-141 0 -195 23 -227 96c-32 -73 -79 -94 -225 -94l-15 141c103 0 168 10 168 92v181c-33 -43 -73 -60 -178 -62l-4 144c115 12 157 55 211 155h87c55 -100 97 -143 212 -155z" />
    <glyph glyph-name="uni2197" unicode="&#x2197;" horiz-adv-x="720" 
d="M651 570c-31 -109 -32 -170 40 -259l-105 -99c-72 76 -88 116 -81 170l-138 -138c-44 -55 -5 -105 63 -174l-111 -91c-99 100 -122 154 -93 228c-74 -29 -122 -10 -225 93l90 110c72 -72 125 -112 183 -54l128 128c-54 -7 -94 10 -170 82l99 105c89 -73 150 -72 259 -40z
" />
    <glyph glyph-name="arrowright" unicode="&#x2192;" horiz-adv-x="720" 
d="M526 575c12 -114 56 -156 155 -211v-87c-99 -55 -143 -97 -155 -211l-144 4c3 105 19 145 63 178h-163c-77 0 -86 -65 -86 -168l-143 15c0 140 22 194 95 226c-73 32 -95 80 -95 226l143 14c0 -103 10 -168 86 -168h163c-44 33 -60 73 -63 178z" />
    <glyph glyph-name="uni2198" unicode="&#x2198;" horiz-adv-x="721" 
d="M692 341c-73 -89 -72 -150 -40 -259l-61 -61c-109 31 -170 32 -259 -40l-99 105c76 72 116 88 170 81l-138 138c-55 44 -105 5 -174 -63l-91 111c100 99 154 122 228 93c-29 74 -10 122 93 225l110 -90c-71 -71 -111 -125 -56 -181l130 -130c-7 54 10 94 82 170z" />
    <glyph glyph-name="arrowdown" unicode="&#x2193;" horiz-adv-x="720" 
d="M610 318l5 -144c-115 -12 -157 -56 -212 -155h-87c-54 99 -96 143 -211 155l4 144c105 -3 145 -19 178 -63v182c0 82 -65 91 -168 91l15 143c140 0 195 -22 227 -95c31 73 79 93 225 93l14 -141c-102 0 -168 -10 -168 -91v-182c33 44 74 60 178 63z" />
    <glyph glyph-name="uni2199" unicode="&#x2199;" horiz-adv-x="720" 
d="M494 444c74 29 122 10 225 -93l-90 -110c-72 72 -125 112 -183 54l-128 -128c54 7 94 -10 170 -82l-99 -105c-89 73 -150 72 -259 40l-61 61c31 109 32 170 -40 259l105 99c72 -76 88 -116 81 -170l138 138c44 55 5 105 -63 174l111 91c99 -100 122 -154 93 -228z" />
    <glyph glyph-name="arrowleft" unicode="&#x2190;" horiz-adv-x="720" 
d="M572 320c73 -32 95 -80 95 -226l-143 -14c0 103 -10 168 -85 168h-163c43 -33 60 -73 62 -178l-144 -4c-12 114 -55 156 -155 211v87c100 55 143 97 155 211l144 -4c-2 -105 -19 -145 -62 -178h163c76 0 85 65 85 168l143 -15c0 -140 -22 -194 -95 -226z" />
    <glyph glyph-name="uni2196" unicode="&#x2196;" horiz-adv-x="721" 
d="M630 411l90 -111c-99 -100 -153 -122 -227 -93c29 -74 10 -123 -94 -226l-109 90c72 72 111 126 54 183l-129 129c8 -54 -9 -95 -81 -171l-105 99c72 90 71 150 40 259l61 62c109 -32 170 -33 259 40l99 -105c-76 -73 -116 -89 -170 -82l128 -128c58 -59 111 -19 184 54z
" />
    <glyph glyph-name="arrowboth" unicode="&#x2194;" horiz-adv-x="862" 
d="M668 573c12 -113 56 -155 155 -210v-86c-99 -55 -143 -97 -155 -210l-144 5c2 102 19 143 63 176h-311c43 -33 60 -74 62 -176l-144 -5c-12 113 -55 155 -155 210v86c100 55 143 97 155 210l144 -4c-2 -103 -19 -143 -62 -177h311c-44 34 -61 74 -63 177z" />
    <glyph glyph-name="arrowupdn" unicode="&#x2195;" horiz-adv-x="716" 
d="M430 175c33 43 73 60 176 63l4 -144c-112 -12 -154 -56 -209 -156h-87c-54 100 -97 144 -209 156l4 144c103 -3 143 -20 176 -63v329c-33 -43 -73 -60 -176 -62l-4 144c112 12 155 55 209 155h87c55 -100 97 -143 209 -155l-4 -144c-103 2 -143 19 -176 62v-329z" />
    <glyph glyph-name="uni25CF" unicode="&#x25cf;" horiz-adv-x="810" 
d="M405 709c-214 0 -367 -152 -367 -362s153 -361 367 -361c213 0 366 151 366 361s-153 362 -366 362z" />
    <glyph glyph-name="circle" unicode="&#x25cb;" horiz-adv-x="810" 
d="M406 -14c-214 0 -368 151 -368 361s154 362 368 362c213 0 366 -152 366 -362s-153 -361 -366 -361zM406 118c130 0 222 94 222 229s-92 230 -222 230c-131 0 -223 -95 -223 -230s92 -229 223 -229z" />
    <glyph glyph-name="lozenge" unicode="&#x25ca;" horiz-adv-x="589" 
d="M251 0l-213 300l210 306h90l213 -301l-210 -305h-90zM296 126l119 177l-120 176l-121 -176z" />
    <glyph glyph-name="uni25AF" unicode="&#x25af;" horiz-adv-x="643" 
d="M73 695h497v-695h-497v695zM214 563v-431h215v431h-215z" />
    <glyph glyph-name="filledbox" unicode="&#x25a0;" horiz-adv-x="849" 
d="M73 696h704v-696h-704v696z" />
    <glyph glyph-name="uni25A1" unicode="&#x25a1;" horiz-adv-x="842" 
d="M73 695h697v-695h-697v695zM214 563v-431h414v431h-414z" />
    <glyph glyph-name="uni25FD" unicode="&#x25fd;" horiz-adv-x="645" 
d="M60 520h526v-520h-526v520zM201 388v-256h243v256h-243z" />
    <glyph glyph-name="uni25FE" unicode="&#x25fe;" horiz-adv-x="645" 
d="M60 520h526v-520h-526v520z" />
    <glyph glyph-name="triagup" unicode="&#x25b2;" horiz-adv-x="823" 
d="M413 710l406 -710h-814z" />
    <glyph glyph-name="uni25B6" unicode="&#x25b6;" horiz-adv-x="505" 
d="M60 506l446 -256l-446 -256v512z" />
    <glyph glyph-name="uni25C0" unicode="&#x25c0;" horiz-adv-x="505" 
d="M445 506v-512l-446 256z" />
    <glyph glyph-name="uni25B3" unicode="&#x25b3;" horiz-adv-x="823" 
d="M5 0l408 710l406 -710h-814zM237 132h350l-175 319z" />
    <glyph glyph-name="uni25B7" unicode="&#x25b7;" horiz-adv-x="516" 
d="M60 520l458 -263l-458 -263v526zM169 174l147 83l-147 84v-167z" />
    <glyph glyph-name="uni25C1" unicode="&#x25c1;" horiz-adv-x="516" 
d="M457 520v-526l-458 263zM348 174v167l-147 -84z" />
    <glyph glyph-name="at" unicode="@" horiz-adv-x="954" 
d="M463 -198c-242 0 -425 165 -425 401c0 240 194 410 450 410c254 0 433 -159 433 -380c0 -180 -98 -247 -203 -247c-77 0 -119 35 -130 77c-28 -46 -70 -76 -141 -76c-114 0 -197 97 -197 219c0 121 83 219 197 219c64 0 105 -23 132 -64v52h105v-269c0 -38 18 -56 43 -56
c48 0 77 54 77 146c0 164 -133 280 -317 280c-192 0 -331 -126 -331 -311c0 -178 129 -302 308 -302c80 0 134 19 191 54l30 -96c-56 -35 -134 -57 -222 -57zM476 89c64 0 103 56 103 117s-39 117 -103 117c-65 0 -104 -50 -104 -117s39 -117 104 -117z" />
    <glyph glyph-name="ampersand" unicode="&#x26;" horiz-adv-x="748" 
d="M739 18c-17 -12 -45 -21 -73 -21c-54 0 -93 14 -158 65c-70 -54 -142 -76 -218 -76c-158 0 -265 76 -265 193c0 77 44 140 141 190c-49 53 -71 96 -71 151c0 111 89 189 223 189c127 0 207 -66 207 -174c0 -72 -48 -134 -142 -184l127 -113c26 40 45 90 58 156l128 -22
c-16 -94 -49 -160 -92 -214c32 -23 53 -31 73 -31c13 0 27 3 36 10zM315 596c-49 0 -79 -29 -79 -73c0 -32 18 -54 66 -98c56 31 86 60 86 103c0 42 -31 68 -73 68zM178 198c0 -59 49 -95 118 -95c39 0 77 9 120 39l-134 120c-14 12 -27 23 -39 34c-46 -28 -65 -57 -65 -98z
" />
    <glyph glyph-name="paragraph" unicode="&#xb6;" horiz-adv-x="831" 
d="M402 0c-186 0 -364 120 -364 349s178 347 364 347h111v-696h-111zM605 0v695h152v-695h-152z" />
    <glyph glyph-name="section" unicode="&#xa7;" horiz-adv-x="587" 
d="M547 326c0 -65 -47 -107 -116 -130c44 -27 66 -63 66 -123c0 -95 -82 -155 -219 -155c-136 0 -212 60 -229 147l131 31c12 -46 39 -78 98 -78c49 0 78 20 78 52s-18 48 -63 60l-63 17c-96 24 -190 49 -190 154c0 65 47 107 116 130c-44 27 -66 62 -66 123
c0 95 82 155 219 155c136 0 211 -60 229 -147l-131 -31c-12 46 -39 77 -98 77c-49 0 -79 -19 -79 -52c0 -31 19 -47 64 -59l63 -17c96 -25 190 -49 190 -154zM314 241c10 -3 19 -5 28 -8c34 13 61 36 61 69c0 36 -21 53 -66 66l-64 18c-9 3 -19 5 -27 8
c-35 -12 -62 -36 -62 -69c0 -36 21 -53 66 -66z" />
    <glyph glyph-name="copyright" unicode="&#xa9;" horiz-adv-x="800" 
d="M401 -14c-207 0 -363 153 -363 362s155 361 362 361s361 -152 361 -361s-154 -362 -360 -362zM400 54c165 0 287 122 287 294c0 171 -122 294 -287 294c-166 0 -287 -123 -287 -294c0 -172 121 -294 287 -294zM403 140c-119 0 -201 77 -201 206c0 119 83 209 199 209
c89 0 166 -51 185 -157l-90 -24c-17 70 -53 98 -98 98c-60 0 -97 -47 -97 -125c0 -75 37 -124 102 -124c51 0 76 30 100 78l85 -32c-33 -74 -93 -129 -185 -129z" />
    <glyph glyph-name="registered" unicode="&#xae;" horiz-adv-x="459" 
d="M231 333c-110 0 -193 81 -193 189c0 107 83 187 193 187c109 0 190 -81 190 -188s-81 -188 -190 -188zM231 377c82 0 143 61 143 144s-61 144 -143 144c-84 0 -145 -61 -145 -144s61 -144 145 -144zM154 429v195h85c47 0 76 -22 76 -59c0 -34 -19 -52 -46 -58l7 -9
c17 -22 27 -26 45 -26v-43c-37 0 -57 8 -87 50l-13 18h-22v-68h-45zM199 535h36c23 0 34 9 34 26c0 15 -11 26 -34 26h-36v-52z" />
    <glyph glyph-name="trademark" unicode="&#x2122;" horiz-adv-x="652" 
d="M99 441v192h-79v62h226v-62h-79v-192h-68zM279 441v254h92l71 -138l68 138h89v-254h-67v165l-67 -121h-51l-67 121v-165h-68z" />
    <glyph glyph-name="degree" unicode="&#xb0;" horiz-adv-x="386" 
d="M193 418c-90 0 -157 63 -157 146s67 145 157 145s158 -62 158 -145s-68 -146 -158 -146zM193 502c36 0 63 27 63 62c0 36 -27 63 -63 63c-35 0 -62 -27 -62 -63c0 -35 27 -62 62 -62z" />
    <glyph glyph-name="bar" unicode="|" horiz-adv-x="298" 
d="M93 -100v830h113v-830h-113z" />
    <glyph glyph-name="brokenbar" unicode="&#xa6;" horiz-adv-x="298" 
d="M93 387v343h113v-343h-113zM93 -100v337h113v-337h-113z" />
    <glyph glyph-name="dagger" unicode="&#x2020;" horiz-adv-x="469" 
d="M443 542v-116h-146v-211h-125v211h-146v116h146v153h125v-153h146z" />
    <glyph glyph-name="daggerdbl" unicode="&#x2021;" horiz-adv-x="469" 
d="M443 454h-146v-91h146v-116h-146v-125h-125v125h-146v116h146v91h-146v117h146v124h125v-124h146v-117z" />
    <glyph glyph-name="at.case" horiz-adv-x="954" 
d="M463 -68c-242 0 -425 165 -425 401c0 240 194 410 450 410c254 0 433 -159 433 -380c0 -180 -98 -247 -203 -247c-77 0 -119 35 -130 77c-28 -46 -70 -76 -141 -76c-114 0 -197 97 -197 219c0 121 83 219 197 219c64 0 105 -23 132 -64v52h105v-269c0 -38 18 -56 43 -56
c48 0 77 54 77 146c0 164 -133 280 -317 280c-192 0 -331 -126 -331 -311c0 -178 129 -302 308 -302c80 0 134 19 191 54l30 -96c-56 -35 -134 -57 -222 -57zM476 219c64 0 103 56 103 117s-39 117 -103 117c-65 0 -104 -50 -104 -117s39 -117 104 -117z" />
    <glyph glyph-name="bar.case" horiz-adv-x="298" 
d="M93 -67v830h113v-830h-113z" />
    <glyph glyph-name="brokenbar.case" horiz-adv-x="298" 
d="M93 420v343h113v-343h-113zM93 -67v337h113v-337h-113z" />
    <glyph glyph-name="uni0308" unicode="&#x308;" horiz-adv-x="0" 
d="M-304 548c-43 0 -74 32 -74 72c0 41 31 71 74 71c42 0 74 -30 74 -71c0 -40 -32 -72 -74 -72zM-96 548c-43 0 -74 32 -74 72c0 41 31 71 74 71c42 0 74 -30 74 -71c0 -40 -32 -72 -74 -72z" />
    <glyph glyph-name="uni0307" unicode="&#x307;" horiz-adv-x="0" 
d="M-200 547c-42 0 -75 30 -75 72s33 73 75 73s75 -31 75 -73s-33 -72 -75 -72z" />
    <glyph glyph-name="gravecomb" unicode="&#x300;" horiz-adv-x="0" 
d="M-250 546l-124 145h148l85 -145h-109z" />
    <glyph glyph-name="acutecomb" unicode="&#x301;" horiz-adv-x="0" 
d="M-257 546l85 145h148l-124 -145h-109z" />
    <glyph glyph-name="uni030B" unicode="&#x30b;" horiz-adv-x="0" 
d="M-340 546l68 145h137l-107 -145h-98zM-162 546l69 145h137l-108 -145h-98z" />
    <glyph glyph-name="uni030C.alt" horiz-adv-x="0" 
d="M-216 518l19 177h119l-45 -177h-93z" />
    <glyph glyph-name="uni0302" unicode="&#x302;" horiz-adv-x="0" 
d="M-366 546l107 145h118l106 -145h-112l-56 66l-55 -66h-108z" />
    <glyph glyph-name="uni030C" unicode="&#x30c;" horiz-adv-x="0" 
d="M-34 691l-107 -145h-118l-106 145h112l56 -66l55 66h108z" />
    <glyph glyph-name="uni0306" unicode="&#x306;" horiz-adv-x="0" 
d="M-200 543c-92 0 -150 52 -150 145h93c0 -35 22 -56 57 -56s57 21 57 56h93c0 -93 -58 -145 -150 -145z" />
    <glyph glyph-name="uni030A" unicode="&#x30a;" horiz-adv-x="0" 
d="M-199 502c-72 0 -122 46 -122 109c0 64 50 109 122 109c71 0 122 -45 122 -109c0 -63 -51 -109 -122 -109zM-199 573c24 0 40 16 40 38c0 23 -16 38 -40 38s-41 -15 -41 -38c0 -22 17 -38 41 -38z" />
    <glyph glyph-name="tildecomb" unicode="&#x303;" horiz-adv-x="0" 
d="M-367 548c0 88 41 137 103 137c59 0 76 -42 105 -42c20 0 28 16 29 42h89c-1 -88 -41 -136 -103 -136c-59 0 -77 42 -105 42c-20 0 -28 -17 -29 -43h-89z" />
    <glyph glyph-name="uni0304" unicode="&#x304;" horiz-adv-x="0" 
d="M-353 569v99h306v-99h-306z" />
    <glyph glyph-name="uni0312" unicode="&#x312;" horiz-adv-x="0" 
d="M-95 719l-45 -173h-124l63 173h106z" />
    <glyph glyph-name="uni0326" unicode="&#x326;" horiz-adv-x="0" 
d="M-306 -233l45 173h124l-62 -173h-107z" />
    <glyph glyph-name="uni0327" unicode="&#x327;" horiz-adv-x="0" 
d="M-298 -162l43 170h116l-46 -170h-113z" />
    <glyph glyph-name="uni0328" unicode="&#x328;" horiz-adv-x="0" 
d="M-197 -209c-63 0 -120 24 -120 89c0 50 39 100 119 138l75 -18c-53 -37 -77 -62 -77 -89c0 -20 12 -29 30 -29c13 0 23 5 32 12l32 -79c-21 -15 -51 -24 -91 -24z" />
    <glyph glyph-name="dieresis" unicode="&#xa8;" horiz-adv-x="400" 
d="M96 548c-43 0 -74 32 -74 72c0 41 31 71 74 71c42 0 74 -30 74 -71c0 -40 -32 -72 -74 -72zM304 548c-43 0 -74 32 -74 72c0 41 31 71 74 71c42 0 74 -30 74 -71c0 -40 -32 -72 -74 -72z" />
    <glyph glyph-name="dotaccent" unicode="&#x2d9;" horiz-adv-x="400" 
d="M200 547c-42 0 -75 30 -75 72s33 73 75 73s75 -31 75 -73s-33 -72 -75 -72z" />
    <glyph glyph-name="grave" unicode="`" horiz-adv-x="400" 
d="M150 546l-124 145h148l85 -145h-109z" />
    <glyph glyph-name="acute" unicode="&#xb4;" horiz-adv-x="400" 
d="M143 546l85 145h148l-124 -145h-109z" />
    <glyph glyph-name="hungarumlaut" unicode="&#x2dd;" horiz-adv-x="400" 
d="M60 546l68 145h137l-107 -145h-98zM238 546l69 145h137l-108 -145h-98z" />
    <glyph glyph-name="circumflex" unicode="&#x2c6;" horiz-adv-x="400" 
d="M34 546l107 145h118l106 -145h-112l-56 66l-55 -66h-108z" />
    <glyph glyph-name="caron" unicode="&#x2c7;" horiz-adv-x="400" 
d="M366 691l-107 -145h-118l-106 145h112l56 -66l55 66h108z" />
    <glyph glyph-name="breve" unicode="&#x2d8;" horiz-adv-x="400" 
d="M200 543c-92 0 -150 52 -150 145h93c0 -35 22 -56 57 -56s57 21 57 56h93c0 -93 -58 -145 -150 -145z" />
    <glyph glyph-name="ring" unicode="&#x2da;" horiz-adv-x="400" 
d="M201 502c-72 0 -122 46 -122 109c0 64 50 109 122 109c71 0 122 -45 122 -109c0 -63 -51 -109 -122 -109zM201 573c24 0 40 16 40 38c0 23 -16 38 -40 38s-41 -15 -41 -38c0 -22 17 -38 41 -38z" />
    <glyph glyph-name="tilde" unicode="&#x2dc;" horiz-adv-x="400" 
d="M33 548c0 88 41 137 103 137c59 0 76 -42 105 -42c20 0 28 16 29 42h89c-1 -88 -41 -136 -103 -136c-59 0 -77 42 -105 42c-20 0 -28 -17 -29 -43h-89z" />
    <glyph glyph-name="macron" unicode="&#xaf;" horiz-adv-x="400" 
d="M47 569v99h306v-99h-306z" />
    <glyph glyph-name="cedilla" unicode="&#xb8;" horiz-adv-x="400" 
d="M102 -162l43 170h116l-46 -170h-113z" />
    <glyph glyph-name="ogonek" unicode="&#x2db;" horiz-adv-x="400" 
d="M203 -209c-63 0 -120 24 -120 89c0 50 39 100 119 138l75 -18c-53 -37 -77 -62 -77 -89c0 -20 12 -29 30 -29c13 0 23 5 32 12l32 -79c-21 -15 -51 -24 -91 -24z" />
    <glyph glyph-name="uni0000" horiz-adv-x="600" 
 />
    <glyph glyph-name="uni0000" horiz-adv-x="600" 
 />
    </font>
</defs>
</svg>
